<svg xmlns="http://www.w3.org/2000/svg" viewBox="0 0 4680 3120"><g data-name="5"><path fill="#eceffe" d="M3754.78 1393.33a949.65 949.65 0 0 1-352.93 740c-163.62 132.7-372.15 212.13-599.18 212.13a948.22 948.22 0 0 1-403.22-89.35 676.16 676.16 0 0 1-427.3 151.24c-223.25 0-403.9-122.28-545.18-274-110.82-119-291-288.34-134-405.1 201.12-149.54 135.78-469.55 337.82-587.21a674.34 674.34 0 0 1 115.08-53.32 659.68 659.68 0 0 1 68.95-20.3q9.14-2.17 18.37-4.07a678.53 678.53 0 0 1 80.59-11.76c137.35-357 483.52-610.26 888.86-610.26a951.6 951.6 0 0 1 268.19 38.29c8.39 2.45 16.73 5 25 7.71q20.7 6.66 40.91 14.34c7.22 2.61 14.31 5.38 21.4 8.25 349.86 140.8 596.64 483.29 596.64 883.41Z"/><path fill="#dbdffe" d="M3754.78 1401.29a958 958 0 0 1-64.78 347.34c-256.58 147.67-597.16 215.66-958 168.4-547.18-71.67-981.1-387.44-1119-770.21a679 679 0 0 1 116-53.76 666 666 0 0 1 69.53-20.48q9.21-2.19 18.53-4.1a683 683 0 0 1 81.26-11.86c138.5-359.95 487.56-615.36 896.29-615.36a959.6 959.6 0 0 1 270.44 38.61c8.45 2.47 16.87 5 25.25 7.77q20.86 6.74 41.25 14.46c7.28 2.64 14.43 5.43 21.58 8.32 352.77 142.05 601.65 487.4 601.65 890.87Z"/><ellipse cx="2501.14" cy="2611.27" fill="#c2c7f8" rx="1149.05" ry="148.73"/><g opacity=".71"><rect width="471.57" height="438.56" x="3211.54" y="910.78" fill="#959cf5" rx="14.79"/><path fill="#7886ea" d="M3668.31 1351h-442a16.47 16.47 0 0 1-16.45-16.45v-409a16.47 16.47 0 0 1 16.45-16.45h442a16.47 16.47 0 0 1 16.45 16.45v409a16.47 16.47 0 0 1-16.45 16.45Zm-442-438.55a13.16 13.16 0 0 0-13.14 13.14v409a13.16 13.16 0 0 0 13.14 13.14h442a13.15 13.15 0 0 0 13.14-13.14v-409a13.15 13.15 0 0 0-13.14-13.14Z"/><path fill="#2d43b2" d="M3668.31 1351.82h-442a17.3 17.3 0 0 1-17.27-17.28v-409a17.3 17.3 0 0 1 17.27-17.28h442a17.3 17.3 0 0 1 17.28 17.28v409a17.3 17.3 0 0 1-17.28 17.28Zm-442-438.56a12.33 12.33 0 0 0-12.31 12.32v409a12.33 12.33 0 0 0 12.31 12.32h442a12.34 12.34 0 0 0 12.32-12.32v-409a12.34 12.34 0 0 0-12.32-12.32Z" opacity=".62"/></g><rect width="106.18" height="87.75" x="3394.23" y="999.67" fill="#2c44b7" rx="5.56"/><circle cx="3447.32" cy="1036.79" r="12.71" fill="#dbdffe"/><path fill="#dbdffe" d="M3440.48 1043.24h13.75v24.35a6.41 6.41 0 0 1-6.41 6.41h-.93a6.41 6.41 0 0 1-6.41-6.41v-24.35Z"/><path fill="#2c44b7" d="m3422.43 999.91-4.94-.49c.16-1.62 4.23-39.77 29.83-39.77s27.77 38.28 27.85 39.9l-5 .23c0-.35-1.89-35.17-22.89-35.17-21.11 0-24.82 34.95-24.85 35.3Z"/><path fill="#f9b132" d="M3596.77 1212.93v51.7a10.85 10.85 0 0 1-2.94 7.12 32.42 32.42 0 0 1-9.1 7.08 69.64 69.64 0 0 1-6.95 3.37c-18.82 8.14-50.28 14.22-87.85 16.8-1.76.14-3.54.27-5.3.37-2 .13-3.9.23-5.85.33-2.58.13-5.19.26-7.84.36-4.7.13-9.49.27-14.32.33-2.52.07-5.06.07-7.61.07s-5.1 0-7.61-.07c-4.83-.06-9.63-.2-14.32-.33-2.65-.1-5.26-.23-7.84-.36-3.81-.2-7.51-.4-11.15-.7-42.67-2.94-77.44-10.45-94.8-20.17a31.25 31.25 0 0 1-9.13-7.12 10.93 10.93 0 0 1-2.91-7.08v-51.7Z"/><path fill="#f9a621" d="M3596.77 1216.21v48.42a10.85 10.85 0 0 1-2.94 7.12 32.42 32.42 0 0 1-9.1 7.08 69.64 69.64 0 0 1-6.95 3.37c-18.82 8.14-50.28 14.22-87.85 16.8-1.76.14-3.54.27-5.3.37v-83.16Z"/><path fill="#ffd180" d="M3596.77 1213c0 11.28-21.6 21.34-55.31 27.92-10.52 2.05-22.22 3.73-34.79 5.06a593 593 0 0 1-115.32 0c-51.87-5.36-88.58-17.67-90.1-32.06a7 7 0 0 1 0-.92 10.32 10.32 0 0 1 1.92-5.79c7.51-11.21 36.59-20.67 76.55-25.8a532.8 532.8 0 0 1 60.73-4.14c2.85 0 5.69-.06 8.57-.06 10 0 19.71.23 29.11.69 14.22.7 27.72 1.89 40.16 3.51h.13c40 5.13 69 14.62 76.48 25.83a10.59 10.59 0 0 1 1.87 5.76Z"/><ellipse cx="3449" cy="1210.61" fill="#adadad" rx="119.01" ry="23.96"/><path fill="#565656" d="M3508.48 1207.29h-6.12q-1.79-6.54-10.65-9.76a58.72 58.72 0 0 0-19.81-3.17q-23.18 0-30.86 13.16h-34.44c1.26-3.17 5.16-5.49 11.68-6.91 3-.66 4.86-2 4.86-3.47a1.92 1.92 0 0 0-.43-1.19c-1.49-2.09-6.48-3.15-10.72-2.25-11.64 2.54-18.26 7.08-19.78 13.59h-9.43c-2.94 0-5.29 1.13-5.29 2.48s2.35 2.52 5.29 2.52h9.43a4.24 4.24 0 0 0 .17.66q1.74 6.54 10.35 10.06 9.14 3.66 22.06 3.67c7.84 0 14.36-1.06 19.62-3.25a25.08 25.08 0 0 0 11.94-10.48c.2-.3.37-.63.56-1h31.83a10.59 10.59 0 0 1-.63 1 10.22 10.22 0 0 1-4.1 3.41 25.62 25.62 0 0 1-4.34 1.45c-2.54.66-4.07 1.89-4.07 3.18a2 2 0 0 0 .57 1.35c1.68 1.92 6.51 2.78 10.38 1.82 9-2.25 14.19-6 15.65-11.21a4 4 0 0 0 .16-.66h6.12c2.95 0 5.3-1.13 5.3-2.52s-2.35-2.48-5.3-2.48Zm-86.17 11.65q-12.69 0-15.48-6a5.36 5.36 0 0 1-.39-1h31.78a5.46 5.46 0 0 1-.56 1c-2.48 4.06-7.57 6-15.35 6Zm37.48-11.45q3.57-5.46 14.33-5.46c7.6 0 12.4 1.82 14.35 5.46Z"/><path fill="#f9b132" d="M3596.77 1149.75v51.67a10.76 10.76 0 0 1-1.88 5.79 23.54 23.54 0 0 1-5.92 5.72c-9.9 7.11-28.68 13.17-53.13 17.44a480 480 0 0 1-62.75 6.38q-11.76.45-24.08.46c-3.64 0-7.21 0-10.79-.1-12.6-.23-24.77-.82-36.28-1.75-38.64-3.14-70.16-10.06-87.1-18.92a50 50 0 0 1-5.79-3.51 22 22 0 0 1-5.92-5.79 10.06 10.06 0 0 1-1.88-5.72v-51.67Z"/><path fill="#f9a621" d="M3401.94 1164.31v71c-38.64-3.14-70.16-10.06-87.1-18.92v-52.13ZM3473.09 1171.25v65.5q-11.76.45-24.08.46c-3.64 0-7.21 0-10.79-.1v-65.86Z"/><path fill="#ffd983" d="M3596.77 1149.74c0 9.06-13.86 17.33-36.75 23.61-20.9 5.76-49.29 9.89-81.51 11.45-9.52.5-19.41.73-29.5.73-3.18 0-6.32 0-9.46-.07-31.29-.5-60-3.31-83-7.81-33.74-6.55-55.38-16.6-55.38-27.91 0-14.82 37.35-27.59 90.51-33 17.13-1.72 35.89-2.71 55.57-2.78h1.75c8.73 0 17.3.2 25.6.53 25.74 1.1 49.19 3.81 68.54 7.68 32.76 6.56 53.63 16.48 53.63 27.57Z"/><path fill="#ffe285" d="m3447.29 1113.94-7.74 71.52c-31.29-.5-60-3.31-83-7.81 9.39-16.3 24.11-41.84 35.13-60.93 17.17-1.72 35.93-2.72 55.61-2.78ZM3560 1173.35c-20.9 5.76-49.29 9.89-81.51 11.45l-3.9-70.33c25.74 1.1 49.19 3.81 68.54 7.68Z"/><ellipse cx="3449" cy="1147.4" fill="#fff0a4" rx="119.01" ry="23.96"/><path fill="#f9ac30" d="M3508.48 1144.08h-6.12q-1.79-6.55-10.65-9.73a55.48 55.48 0 0 0-16.17-3.1c-1.19-.07-2.42-.1-3.64-.1q-18.81 0-27.42 8.69a22.65 22.65 0 0 0-3.44 4.47h-34.44c1.26-3.17 5.16-5.49 11.68-6.91 3-.66 4.86-2 4.86-3.48a2 2 0 0 0-.43-1.19c-1.49-2.08-6.48-3.14-10.72-2.25-11.64 2.55-18.26 7.08-19.78 13.6h-9.43c-2.94 0-5.29 1.12-5.29 2.51s2.35 2.48 5.29 2.48h9.43a4.1 4.1 0 0 0 .17.67c1.12 4.36 4.6 7.74 10.35 10 6.09 2.45 13.43 3.71 22.06 3.71a55 55 0 0 0 17.4-2.45c.77-.27 1.49-.53 2.22-.83a25 25 0 0 0 11.94-10.48c.2-.3.37-.63.56-1h31.83a10.59 10.59 0 0 1-.63 1 10.12 10.12 0 0 1-4.1 3.4 24.66 24.66 0 0 1-4.34 1.46 8.57 8.57 0 0 0-2.78 1.22 2.53 2.53 0 0 0-1.29 2 2 2 0 0 0 .57 1.36 3.62 3.62 0 0 0 1 .79c2.15 1.36 6.12 1.86 9.42 1 9-2.25 14.19-6 15.65-11.21a4.07 4.07 0 0 0 .16-.67h6.12c2.95 0 5.3-1.12 5.3-2.48s-2.39-2.48-5.34-2.48Zm-86.17 11.64c-8.5 0-13.66-2-15.48-6a5.36 5.36 0 0 1-.39-1h31.78a9.78 9.78 0 0 1-.52 1c-2.49 4.02-7.61 6-15.39 6Zm37.48-11.44q3.57-5.46 14.33-5.46a16.17 16.17 0 0 1 1.85.07q9.83.39 12.5 5.39Z"/><circle cx="3446.33" cy="911.52" r="15.58"/><path d="M3446.33 929.59a18.07 18.07 0 1 1 18.06-18.07 18.1 18.1 0 0 1-18.06 18.07Zm0-31.17a13.11 13.11 0 1 0 13.1 13.1 13.12 13.12 0 0 0-13.1-13.1Z"/><path d="M3443.85 862.33h4.96v49.19h-4.96z"/><path fill="#7482e8" d="M3409.13 750.81h111.52v111.52h-111.52z"/><path fill="#959cf5" d="M3378.93 750.81h111.52v111.52h-111.52z"/><path fill="#7482e8" d="M3248.18 560.64h111.52v111.52h-111.52z"/><path fill="#959cf5" d="M3217.98 560.64h111.52v111.52h-111.52z"/><path fill="#6279e8" d="M3190.13 360h103.09v111.52h-103.09z"/><path fill="#7d8bef" d="M3162.22 360h103.09v111.52h-103.09z"/><path fill="#2c44b7" d="M3629.4 360h103.09v111.52H3629.4z"/><path fill="#3e51c7" d="M3601.49 360h103.09v111.52h-103.09z"/><path fill="#7482e8" d="M3387.61 370.47h103.09v111.52h-103.09z"/><path fill="#959cf5" d="M3359.7 370.47h103.09v111.52H3359.7z"/><path fill="#2c44b7" d="M3511.15 560.64h111.52v111.52h-111.52z"/><path fill="#3e51c7" d="M3480.96 560.64h111.52v111.52h-111.52z"/><circle cx="3443.2" cy="750.81" r="8.59"/><path d="M3443.2 761.89a11.08 11.08 0 1 1 11.08-11.08 11.09 11.09 0 0 1-11.08 11.08Zm0-17.19a6.12 6.12 0 1 0 6.11 6.11 6.12 6.12 0 0 0-6.11-6.11Z"/><circle cx="3443.2" cy="715.27" r="6.65"/><path d="M3443.2 724.4a9.13 9.13 0 1 1 9.13-9.13 9.15 9.15 0 0 1-9.13 9.13Zm0-13.3a4.17 4.17 0 1 0 4.17 4.17 4.17 4.17 0 0 0-4.17-4.17Z"/><circle cx="3271.96" cy="672.16" r="6.65"/><path d="M3272 681.3a9.14 9.14 0 1 1 9.14-9.14 9.15 9.15 0 0 1-9.14 9.14Zm0-13.31a4.17 4.17 0 1 0 4.17 4.17A4.17 4.17 0 0 0 3272 668Z"/><circle cx="3271.96" cy="560.64" r="6.65"/><path d="M3272 569.77a9.13 9.13 0 1 1 9.14-9.13 9.14 9.14 0 0 1-9.14 9.13Zm0-13.3a4.17 4.17 0 1 0 4.17 4.17 4.17 4.17 0 0 0-4.17-4.17Z"/><circle cx="3213.77" cy="471.52" r="6.65"/><path d="M3213.77 480.65a9.13 9.13 0 1 1 9.13-9.13 9.14 9.14 0 0 1-9.13 9.13Zm0-13.3a4.17 4.17 0 1 0 4.17 4.17 4.17 4.17 0 0 0-4.17-4.17Z"/><circle cx="3413.59" cy="481.99" r="6.65"/><path d="M3413.59 491.12a9.13 9.13 0 1 1 9.13-9.13 9.13 9.13 0 0 1-9.13 9.13Zm0-13.3a4.17 4.17 0 1 0 4.17 4.17 4.17 4.17 0 0 0-4.17-4.17Z"/><circle cx="3655.54" cy="472.24" r="6.65"/><path d="M3655.54 481.37a9.13 9.13 0 1 1 9.14-9.13 9.14 9.14 0 0 1-9.14 9.13Zm0-13.3a4.17 4.17 0 1 0 4.18 4.17 4.17 4.17 0 0 0-4.18-4.17Z"/><circle cx="3536.72" cy="672.16" r="6.65"/><path d="M3536.72 681.3a9.14 9.14 0 1 1 9.13-9.14 9.14 9.14 0 0 1-9.13 9.14Zm0-13.31a4.17 4.17 0 1 0 4.17 4.17 4.17 4.17 0 0 0-4.17-4.16Z"/><path d="M3445.68 750.81h-5v-38h89.76a3.77 3.77 0 0 0 3.76-3.76v-36.89h5V709a8.73 8.73 0 0 1-8.72 8.72h-84.8Z"/><path d="M3445.68 750.81h-5v-33.06H3278.2a8.73 8.73 0 0 1-8.72-8.72v-36.87h5V709a3.77 3.77 0 0 0 3.76 3.76h167.48Z"/><circle cx="3539.27" cy="560.64" r="8.59"/><path d="M3539.27 571.71a11.07 11.07 0 1 1 11.08-11.07 11.08 11.08 0 0 1-11.08 11.07Zm0-17.18a6.11 6.11 0 1 0 6.12 6.11 6.12 6.12 0 0 0-6.12-6.11Z"/><circle cx="3539.27" cy="525.1" r="6.65"/><path d="M3539.27 534.23a9.13 9.13 0 1 1 9.14-9.13 9.15 9.15 0 0 1-9.14 9.13Zm0-13.3a4.17 4.17 0 1 0 4.18 4.17 4.17 4.17 0 0 0-4.18-4.17Z"/><path d="M3541.75 560.64h-5v-38h112.55a3.76 3.76 0 0 0 3.76-3.76v-46.64h5v46.62a8.74 8.74 0 0 1-8.73 8.72h-107.58Z"/><path d="M3541.75 560.64h-5v-33.06h-117a8.73 8.73 0 0 1-8.72-8.72V482h5v36.87a3.77 3.77 0 0 0 3.76 3.76h121.92ZM3274.44 560.64h-5v-47a3.35 3.35 0 0 0-3.36-3.35h-46.48a8.33 8.33 0 0 1-8.31-8.33v-30.44h5v30.42a3.35 3.35 0 0 0 3.35 3.36h46.52a8.33 8.33 0 0 1 8.32 8.32Z"/><path fill="#4758af" d="M2792.21 2424.86H1563.6c-38.61 0-69.9-21.78-69.9-48.64V762.3c0-26.87 31.29-61 69.9-61h1204.54c38.6 0 69.9 34.11 69.9 61v1613.92c-.04 26.86-7.22 48.64-45.83 48.64Z"/><path fill="#abbcef" d="M2792.19 2398.54H1563.63a43.53 43.53 0 0 1-8.79-.89c-13.46-2.6-23.35-11.22-23.35-21.43V762.29c0-12.3 14.39-22.32 32.14-22.32h1204.5c13.41 0 24.94 5.75 29.72 13.9a16.36 16.36 0 0 1 2.37 8.42v1613.93c0 12.31 9.66 22.32-8.03 22.32Z"/><path fill="#ccd5f4" d="M2792.19 2398.54H1563.63a43.53 43.53 0 0 1-8.79-.89 15.88 15.88 0 0 1-2.42-8.42V775.29c0-12.3 14.39-22.31 32.14-22.31H2789a43.65 43.65 0 0 1 8.84.89 16.36 16.36 0 0 1 2.37 8.42v1613.93c.01 12.31 9.67 22.32-8.02 22.32Z"/><path fill="#e6edfc" d="M1531.49 1764.52 2694.62 739.97h-412.49l-750.64 428.26v596.29zM2800.22 875.98v98.6L1531.49 1981.81v-115.9l1268.73-989.93zM2800.22 1322.76v438.54l-619.29 637.24h-617.3c-17.75 0-32.14-10-32.14-22.32v-138.84ZM2792.19 2398.54h-516.12l524.15-370.77v348.45c0 12.31 9.66 22.32-8.03 22.32Z" opacity=".67"/><path fill="#6e84ce" d="M1559.41 736.4h128.1V982a77.24 77.24 0 0 1-77.24 77.24h-4.86a77.24 77.24 0 0 1-77.23-77.24V767.63a31.23 31.23 0 0 1 31.23-31.23Z"/><path fill="#3d4f9b" d="M1687.51 736.4h159.33V982a77.24 77.24 0 0 1-77.24 77.24h-4.86a77.24 77.24 0 0 1-77.23-77.24V736.4Z"/><path fill="#6e84ce" d="M1846.85 736.4h159.33V982a77.24 77.24 0 0 1-77.24 77.24h-4.86a77.24 77.24 0 0 1-77.23-77.24V736.4Z"/><path fill="#3d4f9b" d="M2006.18 736.4h159.33V982a77.24 77.24 0 0 1-77.24 77.24h-4.86a77.24 77.24 0 0 1-77.23-77.24V736.4Z"/><path fill="#6e84ce" d="M2165.52 736.4h159.33V982a77.24 77.24 0 0 1-77.24 77.24h-4.86a77.24 77.24 0 0 1-77.23-77.24V736.4Z"/><path fill="#3d4f9b" d="M2324.85 736.4h159.33V982a77.24 77.24 0 0 1-77.24 77.24h-4.86a77.24 77.24 0 0 1-77.23-77.24V736.4Z"/><path fill="#6e84ce" d="M2484.18 736.4h159.33V982a77.24 77.24 0 0 1-77.24 77.24h-4.86a77.24 77.24 0 0 1-77.23-77.24V736.4Z"/><path fill="#3d4f9b" d="M2643.52 736.4h128.1a31.23 31.23 0 0 1 31.23 31.23V982a77.24 77.24 0 0 1-77.24 77.24h-4.86a77.24 77.24 0 0 1-77.23-77.24V736.4Z"/><ellipse cx="2790.58" cy="2626.79" fill="#a5b3ef" rx="647.11" ry="111.53"/><path fill="#838fe5" d="M3026.4 2228.84h61v279.61h-61z"/><path fill="#7686d6" d="M3219.48 2629.42c0 7.51-49.12 13.86-116 15.81-13.56.4-27.85.6-42.64.6-87.62 0-158.68-7.38-158.68-16.41a3.08 3.08 0 0 1 1.62-2.35h-1.62l124.25-118.62h61l132.08 118.62h-1.62a3.16 3.16 0 0 1 1.61 2.35Z"/><path fill="#b2bbf7" d="M3334.81 2037.49h-298.94c-37.13 0-66.29-30.21-63.09-65.36l23.22-390.57c2.83-31.12 30.23-55 63.09-55h252.41c32.87 0 60.27 23.89 63.09 55l23.27 390.57c3.23 35.15-25.93 65.36-63.05 65.36Z"/><path fill="#551e1e" d="M3002.33 1249s4.85-19.47 18.15-36.3c11.79-14.92 30.1-23.22 49.12-23.22h1.45s17.68-32.77 62.29-28.87 99.22 25.75 118.73 103 89.72 30.43 103.77 119.38v10a64.36 64.36 0 0 0 14.56 41.11c12.36 14.91 26 39.84 12 67.48-22.63 44.47-362.93 24.19-362.93 24.19s-47.48-27.31-35-90.51 43.46-92.9 35-126.42-17.14-59.84-17.14-59.84Z"/><path fill="#838fe5" d="M3239.71 2020.92h110.06v134.43h-465.54l-5.53-30.49 8.65-52.43 352.36-51.51z"/><path fill="#959cf5" d="M3384.94 2117.49c-5.89 68.61-41.38 72.15-41.38 72.15 10.65-33.11 0-61.5 0-61.5l-12.4-118.09-4.14-39.2a9.68 9.68 0 0 1 2.55-7.94c11.31-12.3 55.37-6.15 55.37-6.15l.2 3.44c.33 5.66 1 17.93 1.55 34 1.1 33.15 1.79 82.41-1.75 123.29Z"/><path fill="#697bd6" d="M3219.48 2629.42c0 7.51-49.12 13.86-116 15.81 57.26-59.77-51.37-136.78-51.37-136.78l-15.71-279.61h51v279.61l132.08 118.62h-1.62a3.16 3.16 0 0 1 1.62 2.35Z"/><path fill="#a1aff7" d="M3349.78 2157.72v20.07a51.05 51.05 0 0 1-51 51.05h-409.69a51.13 51.13 0 0 1-51-51.05v-20.07a51 51 0 0 1 51-51h409.65a51 51 0 0 1 51.04 51Z"/><path fill="#8ea1ed" d="M3349.78 2157.72v10.18c-238.93 2.35-407.6 26.1-499.29 43.24a50.59 50.59 0 0 1-12.44-33.35v-20.07a51 51 0 0 1 51-51h409.65a51 51 0 0 1 51.08 51Z"/><path fill="#d93539" d="M3315.05 2105.65s-47.57 16.87-101.23 58.28c-52.42 40.46-172 35.53-213.35-31.78-1-1.63-2-3.31-2.91-5-32-60.17-76.81-145.12-128.22-181.31a120.49 120.49 0 0 0-10.85-6.85 87.56 87.56 0 0 0-20.41-8.33h332.81s10.32 6.09 24.28 21.83c11.14 12.57 24.64 31.33 37.08 58.09 31.92 68.67 75.12 76.68 82.8 95.07Z"/><path fill="#3a1313" d="M3165.83 1222.22s68.3 19.43 75.24 90.51 63.58 47.75 72.46 95.78-6.11 92.18-6.11 92.18l-278.52-23.32s-19.4-29.71 17.67-73 2.65-126.6 2.65-126.6Z"/><path fill="#fecbcb" d="M3052.08 1467.54s-44-10.83-68.37 25-38.58 132-42.64 151-12.86 46-12.86 46h76.49s46.7-188.83 47.38-222Z"/><path fill="#fd9a95" d="M3045.49 1482.27s-43.78 96.1-72.35 137.41-27.75 104.51-27.75 104.51l131.24 17Z"/><path fill="#d93539" d="m3291.1 1460.94-.53.33c-34.34 21.21-43.8 70.79-45.68 108.9-.93 19.28 1.88 38.7 9.26 56.53 8.53 20.71 5.46 55.84 5.46 55.84s-.47 1.45-1.33 4.27c-2.94 9.62-10.38 35.29-19.12 74.06-9.66 42.7-38.24 95.66-46.44 110.35-1.42 2.55-2.25 3.94-2.25 3.94H3062l-55.78-76.61-33.11-45.45s4.57-25.61 10-54.78c2.48-13.43 5.16-27.59 7.67-40.39 2-10.55 4-20.18 5.59-27.62 7.74-36 17.63-48.7 34.57-93.85 12.7-33.87 15.48-58.61 16.07-68.87a5.17 5.17 0 0 1 5.53-4.83l52.49 3.84 101.59-.69 83.49-7.78a1.52 1.52 0 0 1 .99 2.81Z"/><path fill="#bd2328" d="m3061.66 1702.91-78.49-4.59c2.48-13.43 5.16-27.59 7.67-40.39 8.37 7 24.64 14.75 55.74 14.75 57.26 0 15.08 30.23 15.08 30.23Z"/><path fill="#fd9a95" d="M3118.94 1410.42v56.15h-14.44s-1.07 52.41 26.74 59.36 66.84-40.74 70.59-60l-12.84-3.11-14.44-116.58-32.62 17.11Z"/><path fill="#fecbcb" d="M3188.35 1353.3c-8.13 89.38-66.85 97.92-100.22 86.67-13.5-4.56-24.88-17.79-34.17-34.1-7.84-13.73-14.2-29.68-19.16-44.43a418 418 0 0 1-13-48.76c-16.24-107 90.73-86.66 90.73-86.66s83.93 37.91 75.82 127.28Z"/><path fill="#551e1e" d="M3017.87 1343c-3.81 0-7.48-3.4-10.69-9.06-13-22.79-18.29-81.8 5.43-97.55 19.25-12.77 29.37-7.61 29.37-7.61s12.34 14.19 17.5 27.16a30.34 30.34 0 0 1 2.12 7.87c1.55 14.19-24.48 79.19-43.73 79.19Z"/><path fill="#3a1313" d="M3017.87 1343c-3.81 0-7.48-3.4-10.69-9.06 22.69-9.79 41.75-81.7 41.75-81.7l10.55 3.7a30.34 30.34 0 0 1 2.12 7.87c1.55 14.19-24.48 79.19-43.73 79.19Z"/><path fill="#551e1e" d="M3040.49 1235.05c4.59 17 27.19 73.6 123.44 65.85 0 0 1.52 27.33 19.74 14.42s9.86-48.58-8.36-79.71c-17.74-30.31-96-58.47-133-9.41a10.27 10.27 0 0 0-1.82 8.85Z"/><ellipse cx="3195.53" cy="1319.22" fill="#fecbcb" rx="33.49" ry="26.04" transform="rotate(-89.53 3195.634 1319.175)"/><path fill="#e27471" d="M3191.77 1340.86a2.47 2.47 0 0 1-2.13-1.21c-12.22-20.46.37-35.88.5-36a2.48 2.48 0 0 1 3.81 3.18c-.43.52-10.41 13 0 30.31a2.48 2.48 0 0 1-2.13 3.75ZM3092.16 1392.17c-6.47 2.34-10.62 2.52-13 .57-3-2.46-2.27-7.15-1.54-11.7.12-.72.23-1.44.33-2.14 1.06-7.54-1.34-24.84-1.36-25a1.59 1.59 0 0 1 1.37-1.82 1.62 1.62 0 0 1 1.83 1.37c.1.73 2.48 17.92 1.36 25.91-.1.72-.22 1.46-.34 2.2-.56 3.47-1.19 7.4.38 8.68.86.69 3.39 1.43 11-1.51a1.57 1.57 0 0 1 2.08.92 1.62 1.62 0 0 1-.92 2.09c-.41.15-.81.26-1.19.43Z"/><path d="M3062.9 1355.54c3.24-1.72 4-6.55 1.79-10.81s-6.68-6.29-10-4.59a5.74 5.74 0 0 0-2.77 3.79 5.61 5.61 0 0 1-4.16-1.69 12.23 12.23 0 0 0 3.91 4.42 10.1 10.1 0 0 0 1.33 4.34c2.22 4.21 6.66 6.26 9.9 4.54ZM3114.26 1341.78c-3.66.1-6.75-3.7-6.88-8.52s2.71-8.76 6.38-8.89a5.66 5.66 0 0 1 4.28 1.93 5.65 5.65 0 0 0 2.79-3.53 12.08 12.08 0 0 1-1.23 5.77 10.25 10.25 0 0 1 1.05 4.35c.13 4.82-2.72 8.79-6.39 8.89Z"/><path fill="#3a1313" d="M3095 1298.93s11.49-12 25.45-2.2.53 5.7-7.9 5.1-18.87 3.08-17.55-2.9ZM3057.14 1309.83s-12.82-4.91-19.38 6.57 1.72 4.26 7.65 1.13 14.87-3.83 11.73-7.7Z"/><path fill="#e27471" d="M3102.54 1412.22h-.69a2 2 0 0 1-1.9-2 2.13 2.13 0 0 1 2.05-1.91c.26 0 20.63.56 28.23-15a2 2 0 0 1 3.56 1.74c-8 16.3-27.28 17.17-31.25 17.17Z"/><ellipse cx="3153.16" cy="1356.15" fill="#fd9a95" rx="24.44" ry="26.96"/><path fill="#fd9a95" d="M3059.78 1388.4a28.58 28.58 0 0 1-5.82 17.47c-7.84-13.73-14.2-29.68-19.16-44.43h.56c13.5 0 24.42 12.08 24.42 26.96Z"/><path fill="#8390ed" d="m3386.69 1994.24-55.53 15.81-4.14-39.2a9.68 9.68 0 0 1 2.55-7.94l55.57-2.71c.33 5.66.99 17.93 1.55 34.04Z"/><path fill="#959cf5" d="M3394.57 1959.73c-8 17.91-64.65 18.47-64.65 18.47s-56.62-.56-64.65-18.47 0-41.34 0-41.34h129.3s8.03 23.47 0 41.34Z"/><path fill="#c2c7f8" d="M3303.93 1883h53.13a32.63 32.63 0 0 1 29.39 18.47l8.32 17.27a8.74 8.74 0 0 1-7.88 12.53H3273a8.74 8.74 0 0 1-7.68-12.93l10-18.34a32.61 32.61 0 0 1 28.61-17Z"/><path fill="#bd2328" d="m3062 1875.16-55.78-76.61 88.59-95.27s61.23-13.7 79.06-5.39c12.3 5.72 16.41 101.25 18.82 173.33-1.42 2.55-2.25 3.94-2.25 3.94ZM3195.14 1952.46c-5.89 34.7-66.13 49.55-123.39 21.4-61.1-30.06-199.43-28.08-202.41-28l14.12-15.18h287.43s10.29 6.04 24.25 21.78ZM3244.89 1570.17c-.93 19.28 1.88 38.7 9.26 56.53 8.53 20.71 5.46 55.84 5.46 55.84s-.47 1.45-1.33 4.27c-12.14-11.68-22.69-31.59-27.72-64.87-16.17-107 59.61-163.81 59.61-163.81l.4 3.14c-34.34 21.21-43.8 70.79-45.68 108.9Z"/><path fill="#fecbcb" d="M3361.39 1886.07a51.35 51.35 0 0 1-19.12 27.06 121.53 121.53 0 0 1-52.1 21.54c-42.37 6.68-115.94 0-115.94 0L3168 1871l-.43-4.34s35.66-10 60.2-20.07c17.47-7.15 30.5-11.45 36.55-13.37a5 5 0 0 0 3.58-5.09c-1.16-25.24-8.24-163.41-23.42-219 0 0-13.57-93.74 40.09-145.84 1.78-1.79 3.67-3.47 5.62-5.13 0 0 29 2.68 45.72 46.18s24.54 256.43 31.22 307.7a182.33 182.33 0 0 1-5.74 74.03Z"/><path fill="#fd9a95" d="M3326.92 1851.67c-1.06-.66-23.78-14.88-62.72-5L3168 1871l-.43-4.34s35.66-10 60.2-20.07c17.47-7.15 30.5-11.45 36.55-13.37a5 5 0 0 0 3.58-5.09c-1.16-25.24-8.24-163.41-23.42-219 0 0-13.57-93.74 40.09-145.84-7.61 14.42-33.21 68.51-25.11 127.52 9.49 69 31.13 234.83 31.13 234.83s24.46 10.05 36.33 26.03Z"/><path fill="#4258b7" d="M3173.9 1917.3h-360.3l-19.38-92.49-31-148h349a13.93 13.93 0 0 1 13.63 11.08l2.41 11.55 18.26 87.09 14 66.76Z"/><path fill="#08103d" d="M2813.43 1917.31H3183v16.44a10.18 10.18 0 0 1-10.18 10.18H2823a9.56 9.56 0 0 1-9.56-9.56v-17.06h-.01ZM2763.22 1676.79h349a13.93 13.93 0 0 1 13.63 11.07l48.06 229.45h9.09l-46.95-238a13.92 13.92 0 0 0-13.66-11.23h-348.9Z"/><path fill="#4966ce" d="m3128.25 1699.41-240 217.89h-74.65l-19.38-92.49 135.46-148h182.53a13.93 13.93 0 0 1 13.63 11.08ZM3160.47 1853.26l-85.97 64.04h-78.2l150.21-130.79 13.96 66.75z"/><ellipse cx="2960.7" cy="1797.05" fill="#68d" rx="13.6" ry="25.17" transform="rotate(-13.95 2960.574 1796.983)"/><path fill="#fecbcb" d="M3000.47 2132.15c-19.88-.83-39.2-5-57.36-11-62.42-20.44-111.08-61.36-120.67-55.27-9.83 6.25-15.52 50.61-25 90.73a307.85 307.85 0 0 1-9.56 33c-16.18 44.13-124.68 239.89-124.68 239.89s5.76 26.53 7 53.09-24.25 41.58-41.58 50.81-27.69 15-50.78 33.48-66.95 8-99.27 0-12.7-27.72 0-45 49.65-35.79 66.92-51.94 57.72-68.14 57.72-68.14 37.81-164 66.76-282.09c12.27-50.22 23-92.2 28.48-109.69.2-.63.39-1.26.59-1.82 17.3-53.1 38.08-76.18 71.55-83.1 17.3-3.57 38.9-.2 55.74 3.91a246.49 246.49 0 0 1 27.36 8.3l4.86 1.68.86.5c55.6 31.49 104.16 123.62 138.24 187.66.8 1.69 1.79 3.37 2.82 5Z"/><path fill="#371966" d="M2797.4 2156.62a307.85 307.85 0 0 1-9.56 33c-2.15 5.89-6 14.46-10.92 24.91-32.25 67.95-113.76 215-113.76 215s5.76 26.53 7 53.09-24.25 41.58-41.58 50.81-27.69 15-50.78 33.48-66.95 8-99.27 0c-12.77-3.21-17.43-8.21-17.6-14.16-.29-9.1 9.93-20.41 17.6-30.86 12.67-17.34 49.65-35.79 66.92-51.94s57.72-68.14 57.72-68.14 37.81-164 66.76-282.09c0 0 11.41 22 60.53 32.15 16.64 3.41 37.61 5.49 63.91 4.86.97-.04 2-.07 3.03-.11Z"/><path fill="#22114c" d="M2776.92 2214.51c-32.25 67.95-113.76 215-113.76 215s5.76 26.53 7 53.09-24.25 41.58-41.58 50.81-27.69 15-50.78 33.48-66.95 8-99.27 0c-12.77-3.21-17.43-8.21-17.6-14.16 26 20.77 96.33 15.25 116.47-9.46 21.67-26.5 60.54-53 58.75-93.65s-4.4-30 37-84.81c38.67-51.21 55.38-194.44 57.36-213 16.64 3.41 37.61 5.49 63.91 4.86Z"/><path fill="#fecbcb" d="M2887.34 2096.32s-.3 4.37-.83 11.78c-1.32 18.42-4.17 55.8-7.81 92.62-3.21 32.55-7.08 64.67-11.08 82.86-10.35 47-103.5 256.86-103.5 256.86s0 5.62 2.84 40.16-10.38 49.18-33.9 70.85-24.45 38.57-49.89 49.85-84.64 9.43-102.54 0 5.66-26.33 5.66-26.33 35.75-46.11 51.76-66.79 50.95-79 50.95-79 28.54-161.09 48-286c3.4-21.83 6.51-42.51 9.16-61.06 5.16-36.35 8.5-64.43 8.5-76.34 0-52.7 37.64-60.24 37.64-60.24 17.47-9.16 95.04 50.78 95.04 50.78Z"/><path fill="#fd9a95" d="M2887.34 2096.32s-.3 4.37-.83 11.78c-18.26-6.35-57.79-19.49-73.07-19.95-20.21-.66-39.76 30.17-50.22 61.63s-13.66 105.32-13.66 105.32l-12.56-11.91c3.4-21.83 6.51-42.51 9.16-61.06 5.16-36.35 8.5-64.43 8.5-76.34 0-52.7 37.64-60.24 37.64-60.24 17.47-9.17 95.04 50.77 95.04 50.77Z"/><path fill="#371966" d="M2867.62 2283.58c-10.35 47-103.5 256.86-103.5 256.86s0 5.62 2.84 40.16-10.38 49.18-33.9 70.85a137.28 137.28 0 0 0-17.7 20c-9.13 12.31-15.22 22.33-32.19 29.87-25.5 11.31-84.64 9.43-102.54 0s5.66-26.33 5.66-26.33 35.75-46.11 51.76-66.79 50.95-79 50.95-79 39.39-222.26 57.19-347.06c.07.49.83 5.29 8.7 10.32 12.9 8.2 44.79 17 123.81 8.27-3.21 32.54-7.08 64.66-11.08 82.85Z"/><path fill="#2c1459" d="M2715.36 2671.43c-9.13 12.31-15.22 22.33-32.19 29.87-25.5 11.31-84.64 9.43-102.54 0s5.66-26.33 5.66-26.33 35.75-46.11 51.76-66.79 50.95-79 50.95-79 39.39-222.26 57.19-347.06c.07.49.83 5.29 8.7 10.32 0 0-28.81 279-47.4 343.19s-105.16 124.71-49.32 136.78c20.11 4.38 39.99 2.82 57.19-.98Z"/><path fill="#fd9a95" d="M3000.47 2132.15c-19.88-.83-39.2-5-57.36-11a413.72 413.72 0 0 0-14.89-79.68c-19.81-69.4-62.38-98-68.9-102 55.6 31.49 104.16 123.62 138.24 187.66.89 1.71 1.88 3.39 2.91 5.02Z"/><rect width="879.65" height="826.16" x="1730.9" y="1185.09" fill="#eef7ff" opacity=".76" rx="89.34"/><g opacity=".7"><path fill="#959cf5" d="M2577.36 1272.16V1922a56.22 56.22 0 0 1-56.2 56.24h-699.11a56.25 56.25 0 0 1-56.24-56.24v-649.8a56.24 56.24 0 0 1 56.24-56.24h699.11a56.21 56.21 0 0 1 56.2 56.2Z"/><path fill="#7886ea" d="M2521.16 1979.85h-699.11a58 58 0 0 1-57.9-57.89v-649.8a58 58 0 0 1 57.9-57.9h699.11a58 58 0 0 1 57.86 57.9V1922a57.94 57.94 0 0 1-57.86 57.85Zm-699.11-762.28a54.65 54.65 0 0 0-54.59 54.59V1922a54.64 54.64 0 0 0 54.59 54.58h699.11a54.62 54.62 0 0 0 54.55-54.58v-649.8a54.63 54.63 0 0 0-54.55-54.59Z"/></g><path fill="#8491f4" d="M2577.36 1272.16v80.65h-811.55v-80.65a56.24 56.24 0 0 1 56.24-56.24h699.11a56.21 56.21 0 0 1 56.2 56.24Z"/><path fill="#cdcdfc" d="m2451.2 1813.94-408.96 83.6v-303.09l408.96-70.94v290.43z"/><path fill="#dedefc" d="m2042.24 1897.54-143.84-101.33v-303.06l143.84 101.34v303.05z"/><path fill="#eef" d="m1898.4 1493.15 143.84 101.34 408.96-70.98-172.52-90.62-380.28 60.26z"/><path fill="#dedefc" d="m2026.71 1472.82 153.69 97.69 143.29-24.87-158.14-94.82-138.84 22z"/><path fill="#b8b8f2" d="m2180.4 1570.51 143.29-24.87v156.94l-143.29 28.98v-161.05z"/><rect width="364.13" height="125.65" x="2295.69" y="1157.94" fill="#fff" rx="26.95"/><path fill="#2e45fa" d="M2409.71 1254.33a3.9 3.9 0 0 1 1.18 3q0 4.22-4.71 4.22h-32.78c-3.2 0-4.81-1.41-4.81-4.22a3.83 3.83 0 0 1 1.23-3 5.26 5.26 0 0 1 3.58-1.08h11.29v-49l-10.11 6.38a3.8 3.8 0 0 1-2 .59 3.67 3.67 0 0 1-2.9-1.47 5.06 5.06 0 0 1-1.22-3.34 4 4 0 0 1 2-3.53l15.11-9.62a8.39 8.39 0 0 1 4.32-1.37 4.8 4.8 0 0 1 3.53 1.37 5 5 0 0 1 1.37 3.73v56.23h11.39a5.06 5.06 0 0 1 3.53 1.11ZM2469 1193.58a4.24 4.24 0 0 1 1.13 3.05 7.79 7.79 0 0 1-1.08 3.73l-32.05 59.27a4.79 4.79 0 0 1-4.32 2.74 5 5 0 0 1-3.38-1.32 4.16 4.16 0 0 1-1.52-3.29 6.32 6.32 0 0 1 .78-2.74l29.54-54.27h-31.9a5.1 5.1 0 0 1-3.54-1.08 3.93 3.93 0 0 1-1.17-3c0-2.82 1.57-4.22 4.71-4.22h39.54a4.36 4.36 0 0 1 3.26 1.13ZM2519.27 1220.57a19.3 19.3 0 0 1 7.71 7.75 23.51 23.51 0 0 1 2.75 11.48 22.34 22.34 0 0 1-3.05 11.68 20.88 20.88 0 0 1-8.49 8 26.58 26.58 0 0 1-12.51 2.85 35.67 35.67 0 0 1-11.92-2.06 28.11 28.11 0 0 1-9.77-5.69 5.05 5.05 0 0 1-2-3.93 4.6 4.6 0 0 1 1-3 2.91 2.91 0 0 1 2.35-1.23 4.25 4.25 0 0 1 1.62.3 9 9 0 0 1 1.72 1 33.33 33.33 0 0 0 8.09 4.77 23.24 23.24 0 0 0 8.59 1.61q6.87 0 10.69-3.68t3.83-10.35q0-6.37-3.87-10.2t-10.36-3.83a19 19 0 0 0-7.55 1.42 19.39 19.39 0 0 0-6.28 4.46 5 5 0 0 1-3.54 1.38 4 4 0 0 1-2.79-1 3.47 3.47 0 0 1-1.13-2.7v-32.28a4.89 4.89 0 0 1 1.23-3.54 4.73 4.73 0 0 1 3.58-1.27H2523a5.31 5.31 0 0 1 3.54 1.08 3.65 3.65 0 0 1 1.27 2.94 3.76 3.76 0 0 1-1.27 3 5.31 5.31 0 0 1-3.54 1.08h-28.6v21.79a20.23 20.23 0 0 1 13.44-4.52 23.18 23.18 0 0 1 11.43 2.69ZM2583.35 1255.6q-5.55 5.31-14.67 6.48v7a4.32 4.32 0 0 1-1.13 3.14 4.41 4.41 0 0 1-6 0 4.36 4.36 0 0 1-1.13-3.14v-6.77a45.29 45.29 0 0 1-11.33-2.41 27.84 27.84 0 0 1-9.28-5.25 4.57 4.57 0 0 1-1.86-3.92 4.78 4.78 0 0 1 .93-3 2.8 2.8 0 0 1 2.3-1.23 6.49 6.49 0 0 1 3.34 1.27q9.42 6.39 19 6.38 7.26 0 11.24-2.94a9.79 9.79 0 0 0 4-8.34 6.91 6.91 0 0 0-2.11-5.25 15.12 15.12 0 0 0-5.3-3.19 84.93 84.93 0 0 0-8.78-2.56 95 95 0 0 1-12-3.72 19.91 19.91 0 0 1-7.9-5.79q-3.29-3.93-3.29-10.4a18.06 18.06 0 0 1 5.74-13.5q5.75-5.54 15.16-6.62V1185a4.35 4.35 0 0 1 1.13-3.14 4.39 4.39 0 0 1 6 0 4.34 4.34 0 0 1 1.12 3.14v6.87a33.14 33.14 0 0 1 9.57 2.4 28 28 0 0 1 8.1 5.15 4.84 4.84 0 0 1 2 3.93 4.71 4.71 0 0 1-1 2.94 2.91 2.91 0 0 1-2.35 1.28 6.52 6.52 0 0 1-3.34-1.28 36 36 0 0 0-8.05-4.81 23.83 23.83 0 0 0-9-1.57q-6.77 0-10.79 3.14a10.29 10.29 0 0 0-4 8.54 8 8 0 0 0 2.26 5.89 15.08 15.08 0 0 0 5.59 3.48 82.22 82.22 0 0 0 9.13 2.6 85 85 0 0 1 11.58 3.59 19.72 19.72 0 0 1 7.56 5.49q3.13 3.69 3.14 10a17.32 17.32 0 0 1-5.58 12.96Z"/><rect width="822.25" height="184.26" x="1760.04" y="2069.94" fill="#465bb7" rx="47.1"/><path fill="#fff" d="M1922.17 2175.1a23.32 23.32 0 0 1 4.42 14.44q0 11.74-8.64 18.6t-23.8 6.86h-34.55q-4.62 0-7.12-2.51c-1.68-1.67-2.51-4-2.51-7.12v-73.72c0-3.08.83-5.45 2.51-7.12s4-2.51 7.12-2.51h33.23q14.51 0 23 6.46t8.51 17.67a21.41 21.41 0 0 1-3.89 12.73 22.08 22.08 0 0 1-10.75 8 23.24 23.24 0 0 1 12.47 8.22Zm-52.17-15.23h19.38q7.92 0 11.67-2.7t3.76-8.24q0-5.8-3.76-8.51t-11.67-2.71H1870Zm33.63 36.66q3.69-2.76 3.69-9t-3.69-9.1q-3.69-2.91-11.87-2.91H1870v23.74h21.76q8.24.04 11.89-2.73ZM1950.53 2206.1q-10.23-10.09-10.22-29.48v-45.1a9.53 9.53 0 0 1 10.15-10.16 9.74 9.74 0 0 1 7.32 2.77 10.14 10.14 0 0 1 2.71 7.39v46q0 11.09 5.07 16.89t14.71 5.8q9.63 0 14.76-5.87t5.15-16.82v-46a10.14 10.14 0 0 1 2.7-7.39 9.74 9.74 0 0 1 7.32-2.77 9.53 9.53 0 0 1 10.16 10.16v45.1q0 19.26-10.29 29.41t-29.8 10.15q-19.53 0-29.74-10.08ZM2103.05 2121.23a9.42 9.42 0 0 1 6.66 2.84 8.77 8.77 0 0 1 3 6.52 9.34 9.34 0 0 1-2.51 6.2l-28.88 34.29v34.42c0 3.35-1 5.89-2.9 7.65a10.4 10.4 0 0 1-7.26 2.64 10.71 10.71 0 0 1-7.51-2.64c-1.94-1.76-2.9-4.3-2.9-7.65v-34.42l-28.62-34.29a8.69 8.69 0 0 1-2.51-6.2 9.72 9.72 0 0 1 9.36-9.36 8.75 8.75 0 0 1 6.87 3.43l25.18 30.73 25.19-30.73a8.72 8.72 0 0 1 6.83-3.43ZM2237 2124.2a10.18 10.18 0 0 1 2.7 7.32v74a10.35 10.35 0 0 1-2.7 7.45 9.33 9.33 0 0 1-7.06 2.84 9.52 9.52 0 0 1-7.65-3.43l-44.18-56.58v49.72a10.63 10.63 0 0 1-2.57 7.45 8.89 8.89 0 0 1-6.92 2.84 9.1 9.1 0 0 1-7-2.84 10.49 10.49 0 0 1-2.64-7.45v-74a10.18 10.18 0 0 1 2.7-7.32 9.32 9.32 0 0 1 7.06-2.84 9 9 0 0 1 7.52 3.43l44.18 56.18v-49.45a10.31 10.31 0 0 1 2.63-7.32 8.94 8.94 0 0 1 6.86-2.84 9.33 9.33 0 0 1 7.07 2.84ZM2276.8 2210.32a39.72 39.72 0 0 1-15.8-16.62q-5.54-10.75-5.53-25.26t5.53-25.25a39.26 39.26 0 0 1 15.77-16.55q10.22-5.8 24.06-5.81t24.07 5.81a39.24 39.24 0 0 1 15.76 16.55q5.54 10.74 5.54 25.25t-5.54 25.26a39.7 39.7 0 0 1-15.76 16.62q-10.21 5.86-24.07 5.86t-24.03-5.86Zm42.33-18.27q6.66-8.18 6.66-23.61t-6.59-23.54q-6.6-8.1-18.34-8.11t-18.26 8.11q-6.54 8.11-6.53 23.54t6.59 23.61q6.6 8.17 18.2 8.18t18.27-8.18ZM2478.17 2122.75a10.07 10.07 0 0 1 12 .72 8.18 8.18 0 0 1 2.7 6.46 13.81 13.81 0 0 1-.79 4.36l-27.43 75a9.5 9.5 0 0 1-4.15 4.95 12.45 12.45 0 0 1-6.54 1.78 12.1 12.1 0 0 1-6.46-1.78 9.63 9.63 0 0 1-4.09-4.95l-19.64-55.52-20.18 55.52a9.58 9.58 0 0 1-4.09 4.95 12.5 12.5 0 0 1-12.86 0 9.5 9.5 0 0 1-4.15-4.95l-27.43-75a12.66 12.66 0 0 1-.79-4.22 8.08 8.08 0 0 1 2.9-6.53 10.82 10.82 0 0 1 12.59-.79 9.47 9.47 0 0 1 3.76 4.81l20.31 58.42 21.1-58.16a9.78 9.78 0 0 1 3.76-4.87 9.65 9.65 0 0 1 5.48-1.72 9.55 9.55 0 0 1 5.53 1.72 10 10 0 0 1 3.7 5l20.17 59.08 21-59.48a9.73 9.73 0 0 1 3.6-4.8Z"/><ellipse cx="1117.68" cy="1078.54" fill="#f49000" rx="192.46" ry="198.5"/><path fill="#f9b132" d="M1326.21 1078.52a203.19 203.19 0 0 1-6.71 52.13 197.56 197.56 0 0 1-13.43 36.33c-24.45 50.61-69.2 88.91-123.32 103.53a183.77 183.77 0 0 1-30.86 5.63c-2.68.26-5.36.49-8.08.62-3.3.17-6.68.23-10 .23-2.61 0-5.19-.06-7.77-.16-4.83-.2-9.63-.56-14.39-1.16a188.47 188.47 0 0 1-100.3-44 197.15 197.15 0 0 1-34-37.51 202.85 202.85 0 0 1-36-115.61c0-6.35.3-12.57.86-18.75a200.62 200.62 0 0 1 7.84-40.36c19.48-64.64 70.19-115.11 133.93-132.68a179.26 179.26 0 0 1 21.17-4.53 188.79 188.79 0 0 1 20.45-2c2.74-.13 5.46-.19 8.2-.19a185.44 185.44 0 0 1 41.32 4.59 190.12 190.12 0 0 1 87.23 46.15A198.7 198.7 0 0 1 1302.5 983a201.91 201.91 0 0 1 23.68 94.31c.03.38.03.81.03 1.21Z"/><path fill="#ffb743" d="M987.7 1078.55a153.24 153.24 0 0 0 24.44 83.45l-34.81 32.16a200.67 200.67 0 0 1-33.33-82.51l44-43.29q-.3 5.06-.3 10.19ZM1262.29 930.8l-34.81 32.2a142.94 142.94 0 0 0-93.72-35.07h-2.74l44-43.26a189.69 189.69 0 0 1 87.27 46.13ZM1133.76 1229.19a142.23 142.23 0 0 0 32.57-3.76l-54.72 50.28a188.56 188.56 0 0 1-100.31-44l36.6-31.28a142.21 142.21 0 0 0 85.86 28.76ZM1326.21 1078.52l-16.63 15.28-38.08 35a154.46 154.46 0 0 0 8.34-50.25v-2.74a153.28 153.28 0 0 0-13.92-61.56l25.34-21.64 11.24-9.61a201.91 201.91 0 0 1 23.68 94.31c.03.38.03.81.03 1.21ZM1319.5 1130.68a197.56 197.56 0 0 1-13.43 36.33l-31.29 26.29-80 67.19-12 10a183.77 183.77 0 0 1-30.86 5.63c-2.68.26-5.36.49-8.08.62l2.25-1.88 4.5-3.71 147.2-122.39ZM1105.11 882.23l-162.94 177.56a202.38 202.38 0 0 1 7.82-40.34l134-132.68a179.72 179.72 0 0 1 21.12-4.54Z"/><path fill="#ffe98d" d="m1227.48 963-215.34 199a153.24 153.24 0 0 1-24.44-83.45q0-5.13.33-10.19l143-140.45h2.74a142.94 142.94 0 0 1 93.71 35.09Z"/><path fill="#ffed9f" d="m1131 927.91-143 140.45c5-77.54 66.93-139.02 143-140.45Z"/><path fill="#ffe98d" d="M1279.84 1078.55a154.7 154.7 0 0 1-8.33 50.26l-105.18 96.62a142.51 142.51 0 0 1-118.41-25l218-186.15a153.69 153.69 0 0 1 13.92 64.27Z"/><path fill="#ffed9f" d="m1265.89 1014.25-218 186.15a148.75 148.75 0 0 1-35.76-38.4l215.34-199a150.43 150.43 0 0 1 38.42 51.25Z"/><path fill="#ffd180" d="M1271.51 1128.81c-16.53 48.19-56.16 85.11-105.18 96.62Z"/><path fill="#f49000" d="M1114.84 1132v11.28l11.28-9.62 1.88-1.66Zm11.28-65.82h-11.28v21.9h11.28Zm-19.38 0v8.43l8.1-7.51v-.92Zm76.34 18.82c-5.59-3.94-12.87-6.65-21.86-8.2q29.27-6.26 29.27-33.61 0-19.7-17.7-29.64a28.77 28.77 0 0 0-2.58-1.39 63.79 63.79 0 0 0-20.14-5.69c-2.58-.33-5.29-.6-8.1-.73-2.19-.1-4.4-.16-6.75-.16h-36.56a27.91 27.91 0 0 0-7.77 1c-8.27 2.32-12.4 8.86-12.4 19.71v108c0 10.85 4.13 17.47 12.4 19.78a27.91 27.91 0 0 0 7.77 1h43.31c2.81 0 5.49-.2 8.1-.46a75 75 0 0 0 17.4-3.58 55.77 55.77 0 0 0 8.2-3.53c13.76-7.38 20.81-18.33 21.11-33v-1.06c.03-12.63-4.54-22.15-13.7-28.44Zm-73.63-57.92h25.6a56 56 0 0 1 6.92.4 33.33 33.33 0 0 1 10.51 2.81 13.89 13.89 0 0 1 1.39.72c5.86 3.21 8.8 8.24 8.8 15 0 7.14-3.5 12.57-10.55 16.3a32.82 32.82 0 0 1-10.15 3.31 42.25 42.25 0 0 1-7.51.6h-29.21v-35a3.82 3.82 0 0 1 1.49-3.44 5 5 0 0 1 2.71-.73Zm1 104.92a5.36 5.36 0 0 1-3.67-1.12 4.86 4.86 0 0 1-1.49-4v-38.83h29.6a70.21 70.21 0 0 1 7.12.36 40.42 40.42 0 0 1 13.16 3.44 21.29 21.29 0 0 1 9.82 8.6 20.64 20.64 0 0 1 2.49 10.32c0 8.27-3.18 14.06-9.43 17.4-4 2-9.33 3.28-16 3.67-1.63.07-3.31.13-5.1.13Z"/><path fill="#f49000" d="M1098.59 986.7h.44a7.7 7.7 0 0 1 7.7 7.7v177a7.22 7.22 0 0 1-7.22 7.22h-1.4a7.22 7.22 0 0 1-7.22-7.22v-177a7.7 7.7 0 0 1 7.7-7.7ZM1142 994.52v32.91a59.78 59.78 0 0 0-6.92-.38h-8.91v-32.53a7.7 7.7 0 0 1 7.58-7.81h.67a7.7 7.7 0 0 1 7.58 7.81ZM1142 1065.56v22.85a69.61 69.61 0 0 0-7.12-.36h-8.71v-21.89h8.32a44 44 0 0 0 7.51-.6ZM1136.87 1132c1.78 0 3.48 0 5.09-.13v39.43a7.23 7.23 0 0 1-7.11 7.33h-1.61a7.23 7.23 0 0 1-7.11-7.33V1132Z"/><path fill="#f9ac30" d="M1118.51 1132a5.36 5.36 0 0 1-3.67-1.12 4.9 4.9 0 0 1-1.49-4v-38.83h-6.61v42.8a5.36 5.36 0 0 0 3.67 1.12h4.43v11.28l11.28-9.62 1.88-1.63Zm7.61-65.82h-11.28v21.9h11.28Zm78.46 41.64q-2.13-17.61-18.16-25.67a60 60 0 0 0-17.1-5.35q29.28-6.26 29.28-33.61 0-21.09-20.28-31c-.86-.43-1.79-.86-2.71-1.22q-10.42-4.42-25.54-5.2c-2.15-.1-4.4-.16-6.75-.16h-36.58a27.84 27.84 0 0 0-7.74 1 15.44 15.44 0 0 0-8.11 5.06c-2.88 3.44-4.3 8.3-4.3 14.65v108c0 6.35 1.42 11.25 4.3 14.69a15.24 15.24 0 0 0 8.11 5.09 13.94 13.94 0 0 0 2.51.56 28.61 28.61 0 0 0 5.23.43h43.38a95.25 95.25 0 0 0 16-1.56 60.88 60.88 0 0 0 17.73-6q21.13-11.32 21.13-34a45.21 45.21 0 0 0-.4-5.74Zm-61.42-80.74a55.78 55.78 0 0 1 6.91.4 34.56 34.56 0 0 1 6.28 1.25 22.82 22.82 0 0 1 4.24 1.56c6.78 3.17 10.19 8.43 10.19 15.68s-3.51 12.57-10.56 16.3a32.73 32.73 0 0 1-10.15 3.31 42.09 42.09 0 0 1-7.51.6h-29.21v-35a3.8 3.8 0 0 1 1.49-3.41 4.73 4.73 0 0 1 2.71-.69ZM1118.51 1132a5.36 5.36 0 0 1-3.67-1.12 4.9 4.9 0 0 1-1.49-4v-38.83H1143a70 70 0 0 1 7.11.36 40.42 40.42 0 0 1 13.16 3.44 24.07 24.07 0 0 1 6.59 4.43c3.8 3.71 5.72 8.5 5.72 14.49q0 12.4-9.43 17.4c-4 2-9.33 3.28-16 3.67-1.62.07-3.31.13-5.09.13Z"/><path fill="#f9ac30" d="M1106.7 986.7h.44a7.7 7.7 0 0 1 7.7 7.7v177a7.22 7.22 0 0 1-7.22 7.22h-1.4a7.22 7.22 0 0 1-7.22-7.22v-177a7.7 7.7 0 0 1 7.7-7.7ZM1150.06 994.52v32.91a59.61 59.61 0 0 0-6.91-.38h-8.92v-32.53a7.7 7.7 0 0 1 7.58-7.81h.68a7.7 7.7 0 0 1 7.57 7.81ZM1150.06 1065.56v22.85a69.61 69.61 0 0 0-7.12-.36h-8.71v-21.89h8.32a43.79 43.79 0 0 0 7.51-.6ZM1145 1132c1.77 0 3.48 0 5.08-.13v39.43a7.22 7.22 0 0 1-7.1 7.33h-1.62a7.23 7.23 0 0 1-7.11-7.33V1132Z"/><rect width="294.37" height="274.51" x="1167.37" y="1897.54" fill="#8491f4" opacity=".86" rx="24.73"/><path fill="#f49000" d="M1326.21 1078.52a203.19 203.19 0 0 1-6.71 52.13 197.56 197.56 0 0 1-13.43 36.33c-24.45 50.61-69.2 88.91-123.32 103.53a183.77 183.77 0 0 1-30.86 5.63c-.2-.7-.4-1.43-.57-2.12-.26-.93-.53-1.89-.76-2.85a163.18 163.18 0 0 1-4.36-27.22c-.3-4-.43-8-.43-12 0-1.05 0-2.15.06-3.2a159.65 159.65 0 0 1 20.25-75.23c.46-.82.92-1.65 1.42-2.48a156.71 156.71 0 0 1 29.31-36.48c2.51-2.32 5.12-4.57 7.8-6.72a149 149 0 0 1 75.22-32 147.32 147.32 0 0 1 18.43-1.16c4 0 7.94.16 11.87.46a142.29 142.29 0 0 1 16.08 2.19v1.19Z" opacity=".53"/><ellipse cx="1310.11" cy="1238.87" fill="#f49000" rx="145.74" ry="150.31"/><path fill="#f9b132" d="M1468 1238.86a154.77 154.77 0 0 1-5.09 39.47 149.55 149.55 0 0 1-10.17 27.51c-18.51 38.32-52.42 67.33-93.38 78.39a141.49 141.49 0 0 1-29.49 4.73c-2.51.12-5.05.19-7.59.19a136.57 136.57 0 0 1-16.77-1 142.82 142.82 0 0 1-76-33.34 148.91 148.91 0 0 1-25.72-28.41 151.75 151.75 0 0 1-25.25-62.48 154.37 154.37 0 0 1-2-25.06q0-7.2.65-14.21a153.79 153.79 0 0 1 5.93-30.55c14.77-48.94 53.16-87.17 101.43-100.46a137 137 0 0 1 16-3.44 142.44 142.44 0 0 1 21.69-1.66 140.84 140.84 0 0 1 31.27 3.49 143.63 143.63 0 0 1 66 35 149.48 149.48 0 0 1 30.44 39.53 153.25 153.25 0 0 1 18.05 72.3Z"/><path fill="#ffb743" d="M1211.69 1238.88a116 116 0 0 0 18.51 63.18l-26.36 24.36a151.75 151.75 0 0 1-25.25-62.48l33.35-32.78q-.25 3.84-.25 7.72ZM1419.61 1127l-26.35 24.35a108.3 108.3 0 0 0-71-26.56h-2.08l33.35-32.76a143.63 143.63 0 0 1 66.08 34.97ZM1322.29 1353a107.85 107.85 0 0 0 24.66-2.85l-41.43 38.07a142.82 142.82 0 0 1-76-33.34l27.71-23.68a107.68 107.68 0 0 0 65.06 21.8ZM1426.59 1276.93a117.68 117.68 0 0 0-4.25-86.74l27.71-23.66a153.25 153.25 0 0 1 18 72.33ZM1462.94 1278.35a149.55 149.55 0 0 1-10.17 27.51l-93.38 78.39a141.49 141.49 0 0 1-29.49 4.73ZM1300.6 1090.22l-123.39 134.45a153.79 153.79 0 0 1 5.93-30.55l101.43-100.46a137 137 0 0 1 16.03-3.44Z"/><path fill="#ffe98d" d="m1393.26 1151.35-163.06 150.71a116 116 0 0 1-18.51-63.18q0-3.89.25-7.72l108.27-106.35h2.08a108.3 108.3 0 0 1 70.97 26.54Z"/><path fill="#ffed9f" d="m1320.21 1124.81-108.27 106.35c3.8-58.71 50.65-105.26 108.27-106.35Z"/><path fill="#ffe98d" d="M1432.9 1238.88a116.85 116.85 0 0 1-6.31 38L1347 1350.1a107.88 107.88 0 0 1-89.66-18.95l165-141a116.43 116.43 0 0 1 10.56 48.73Z"/><path fill="#ffed9f" d="m1422.34 1190.19-165 141a112.39 112.39 0 0 1-27.07-29.09l163.06-150.71a114 114 0 0 1 29.01 38.8ZM1426.59 1276.93c-12.52 36.49-42.52 64.45-79.64 73.17Z"/><path fill="#f49000" d="M1343.07 1237.52q22.2-4.71 22.19-25.45 0-16-15.36-23.48-8.45-4.18-21.4-4.87c-1.64-.08-3.34-.13-5.1-.13h-27.69q-15.27 0-15.27 15.68v81.8q0 15.75 15.27 15.74h32.79q15.38-.3 25.52-5.74 16-8.57 16-25.74-.02-23.18-26.95-27.81ZM1300.7 1203q0-3.11 3.17-3.1h19.39a45.09 45.09 0 0 1 5.24.29 25.61 25.61 0 0 1 8 2.14q7.72 3.62 7.72 11.88 0 8.1-8 12.35a25.12 25.12 0 0 1-7.68 2.5 33.39 33.39 0 0 1-5.69.45h-22.15Zm40 73.46q-4.52 2.34-12.16 2.78c-1.22.07-2.51.1-3.85.1h-20.09c-2.59 0-3.9-1.29-3.9-3.86v-29.39h22.4a54 54 0 0 1 5.4.27 30.37 30.37 0 0 1 10 2.61c6.2 2.93 9.32 7.7 9.32 14.32q-.04 9.37-7.16 13.15Z"/><path fill="#f49000" d="M1295.66 1169.33h.33a5.83 5.83 0 0 1 5.83 5.83v134a5.47 5.47 0 0 1-5.47 5.47h-1.06a5.47 5.47 0 0 1-5.47-5.47v-134a5.83 5.83 0 0 1 5.84-5.83ZM1328.5 1175.25v24.92a45.09 45.09 0 0 0-5.24-.29h-6.75v-24.63a5.83 5.83 0 0 1 5.74-5.92h.51a5.83 5.83 0 0 1 5.74 5.92ZM1328.5 1229v17.3a54 54 0 0 0-5.4-.27h-6.59v-16.58h6.3a33.39 33.39 0 0 0 5.69-.45ZM1324.65 1279.32c1.34 0 2.63 0 3.85-.1v29.85a5.48 5.48 0 0 1-5.39 5.56h-1.22a5.47 5.47 0 0 1-5.38-5.56v-29.75Z"/><path fill="#f9ac30" d="M1349.21 1237.52q22.18-4.71 22.18-25.45 0-16-15.35-23.48-8.44-4.18-21.41-4.87c-1.63-.08-3.33-.13-5.09-.13h-27.69q-15.27 0-15.28 15.68v81.8q0 15.75 15.28 15.74h32.78q15.39-.3 25.52-5.74 16-8.57 16-25.74.01-23.18-26.94-27.81Zm-42.37-34.52c0-2.07 1.06-3.1 3.16-3.1h19.4a44.92 44.92 0 0 1 5.23.29 25.6 25.6 0 0 1 8 2.14q7.71 3.62 7.72 11.88 0 8.1-8 12.35a25.09 25.09 0 0 1-7.69 2.5 33.23 33.23 0 0 1-5.69.45h-22.1Zm40 73.46q-4.5 2.34-12.16 2.78c-1.21.07-2.51.1-3.85.1h-20c-2.59 0-3.9-1.29-3.9-3.86v-29.39h22.4a53.84 53.84 0 0 1 5.39.27 30.43 30.43 0 0 1 10 2.61c6.2 2.93 9.32 7.7 9.32 14.32-.12 6.24-2.51 10.63-7.25 13.15Z"/><path fill="#f9ac30" d="M1301.8 1169.33h.33a5.83 5.83 0 0 1 5.83 5.83v134a5.47 5.47 0 0 1-5.47 5.47h-1.06a5.47 5.47 0 0 1-5.47-5.47v-134a5.83 5.83 0 0 1 5.84-5.83ZM1334.63 1175.25v24.92a44.92 44.92 0 0 0-5.23-.29h-6.75v-24.63a5.83 5.83 0 0 1 5.74-5.92h.51a5.83 5.83 0 0 1 5.73 5.92ZM1334.63 1229v17.3a53.84 53.84 0 0 0-5.39-.27h-6.59v-16.58h6.29a33.23 33.23 0 0 0 5.69-.45ZM1330.78 1279.32c1.34 0 2.64 0 3.85-.1v29.85a5.47 5.47 0 0 1-5.38 5.56H1328a5.47 5.47 0 0 1-5.38-5.56v-29.75Z"/><circle cx="1320.35" cy="1386.8" r="18.66" fill="#14245b"/><path fill="#232c56" d="M1320.35 1407.12a20.32 20.32 0 1 1 20.31-20.32 20.35 20.35 0 0 1-20.31 20.32Zm0-37.32a17 17 0 1 0 17 17 17 17 0 0 0-17-17Z"/><circle cx="1386.85" cy="1898.42" r="18.66" fill="#14245b"/><path fill="#232c56" d="M1386.85 1918.74a20.32 20.32 0 1 1 20.31-20.32 20.35 20.35 0 0 1-20.31 20.32Zm0-37.32a17 17 0 1 0 17 17 17 17 0 0 0-17-17Z"/><circle cx="1499.8" cy="1600.49" r="18.66" fill="#14245b"/><path fill="#232c56" d="M1499.8 1620.8a20.31 20.31 0 1 1 20.31-20.31 20.34 20.34 0 0 1-20.31 20.31Zm0-37.32a17 17 0 1 0 17 17 17 17 0 0 0-17-17Z"/><circle cx="1499.8" cy="1789.88" r="18.66" fill="#14245b"/><path fill="#232c56" d="M1499.8 1810.19a20.31 20.31 0 1 1 20.31-20.31 20.34 20.34 0 0 1-20.31 20.31Zm0-37.32a17 17 0 1 0 17 17 17 17 0 0 0-17-17Z"/><path fill="#14245b" d="M1499.8 1603h-140.86a42.55 42.55 0 0 1-42.5-42.5v-173.7h5v173.67a37.58 37.58 0 0 0 37.54 37.54h140.82Z"/><path fill="#232c56" d="M1501.45 1604.63h-142.51a44.21 44.21 0 0 1-44.15-44.16v-175.32h8.27v175.32a35.92 35.92 0 0 0 35.88 35.89h142.51Zm-183.36-216.17v172a40.9 40.9 0 0 0 40.85 40.85h139.2v-1.66h-139.2a39.23 39.23 0 0 1-39.19-39.19v-172Z"/><path fill="#14245b" d="M1389.33 1907.59h-5v-84.3a35.93 35.93 0 0 1 35.89-35.89h79.54v5h-79.54a31 31 0 0 0-30.93 30.93Z"/><path fill="#232c56" d="M1391 1909.25h-8.27v-86a37.59 37.59 0 0 1 37.55-37.54h81.19v8.29h-81.19a29.32 29.32 0 0 0-29.28 29.28Zm-5-3.31h1.66v-82.65a32.61 32.61 0 0 1 32.58-32.58h77.88v-1.66h-77.88a34.28 34.28 0 0 0-34.24 34.24Z"/><path fill="#e1e7ff" d="M1241.87 1982.89h165.85l-21.21 95.94h-137.89l-6.75-95.94z"/><path fill="#5050d3" d="M1386.51 2080.91h-137.89a2.07 2.07 0 0 1-2.07-1.93l-6.75-95.98a2.07 2.07 0 0 1 2.07-2.23h165.85a2.08 2.08 0 0 1 1.62.78 2 2 0 0 1 .41 1.75l-21.21 95.94a2.09 2.09 0 0 1-2.03 1.67Zm-136-4.16h134.28l20.29-91.78h-161Z"/><path fill="#5050d3" d="M1381.08 2116.43H1259a10.81 10.81 0 0 1-10.75-10l-10.93-159.15a4.27 4.27 0 0 0-4.25-4H1206a2.08 2.08 0 1 1 0-4.16h27.11a8.44 8.44 0 0 1 8.4 7.84l10.93 159.15a6.63 6.63 0 0 0 6.6 6.16h122.08a2.09 2.09 0 0 1 0 4.17Z"/><circle cx="1205.96" cy="1941.19" r="11.33" fill="#4242b7"/><circle cx="1283.61" cy="2135.82" r="11.33" fill="#4242b7"/><circle cx="1358.62" cy="2135.82" r="11.33" fill="#4242b7"/><path fill="#5050d3" d="M1288.76 2080.91a2.07 2.07 0 0 1-2.07-1.92l-7.18-95.94a2.08 2.08 0 1 1 4.15-.31l7.18 95.94a2.09 2.09 0 0 1-1.92 2.23ZM1327.1 2080.91a2.08 2.08 0 0 1-2.08-2.08v-95.94a2.08 2.08 0 1 1 4.16 0v95.94a2.08 2.08 0 0 1-2.08 2.08ZM1365 2080.91h-.17a2.09 2.09 0 0 1-1.91-2.24l7.58-95.94a2 2 0 0 1 2.24-1.91 2.07 2.07 0 0 1 1.91 2.23l-7.58 96a2.08 2.08 0 0 1-2.07 1.86Z"/><circle cx="2908.09" cy="742.73" r="223.6" fill="#f49000"/><path fill="#f9b132" d="M3150.37 742.71a223.59 223.59 0 0 1-7.8 58.71 218.33 218.33 0 0 1-15.57 40.96A223.84 223.84 0 0 1 2983.69 959a224.76 224.76 0 0 1-45.24 7c-3.86.18-7.76.29-11.66.29a218.81 218.81 0 0 1-25.73-1.49 223.43 223.43 0 0 1-197.85-222.09q0-10.71 1-21.13a221.09 221.09 0 0 1 9.09-45.45 224 224 0 0 1 155.6-149.43 219.16 219.16 0 0 1 24.59-5.11 226.91 226.91 0 0 1 33.28-2.46 223.51 223.51 0 0 1 223.6 223.58Z"/><path fill="#ffb743" d="M2757.08 742.74a168.77 168.77 0 0 0 28.4 94L2745 873a222.18 222.18 0 0 1-38.7-93l51.17-48.76c-.26 3.82-.39 7.64-.39 11.5ZM3076.1 576.31l-40.44 36.23A169.15 169.15 0 0 0 2926.77 573h-3.18l51.17-48.73a222.63 222.63 0 0 1 101.34 52.04ZM2926.77 912.42a170.24 170.24 0 0 0 37.84-4.23L2901 964.83a222.52 222.52 0 0 1-116.54-49.61L2827 880a168.59 168.59 0 0 0 99.77 32.42ZM3086.8 799.35a170.17 170.17 0 0 0-6.52-129l42.52-35.21a222.63 222.63 0 0 1 27.57 107.61ZM3142.57 801.45a218.33 218.33 0 0 1-15.57 40.93L2983.69 959a224.76 224.76 0 0 1-45.24 7ZM2893.49 521.59l-189.3 200a221.09 221.09 0 0 1 9.09-45.45L2868.9 526.7a219.16 219.16 0 0 1 24.59-5.11Z"/><path fill="#ffed9f" d="m3035.66 612.54-250.18 224.19a168.77 168.77 0 0 1-28.4-94c0-3.86.13-7.68.39-11.48l166.12-158.21h3.18a169.15 169.15 0 0 1 108.89 39.5Z"/><path fill="#ffe98d" d="m2923.59 573.05-166.12 158.21a169.69 169.69 0 0 1 166.12-158.21Z"/><path fill="#ffed9f" d="M3096.48 742.74a169.24 169.24 0 0 1-9.68 56.61l-122.19 108.84A170 170 0 0 1 2827.05 880l253.23-209.69a168.81 168.81 0 0 1 16.2 72.43Z"/><path fill="#ffe98d" d="M3080.28 670.31 2827.05 880a169.75 169.75 0 0 1-41.54-43.27l250.18-224.19a169.91 169.91 0 0 1 44.59 57.77ZM3086.8 799.35a170 170 0 0 1-122.19 108.84Z"/><path fill="#f49000" d="M2976.05 819.74q-14.15 14-38.08 17.57v16a13.23 13.23 0 0 1-3.56 9.56 13.88 13.88 0 0 1-18.85 0 13.19 13.19 0 0 1-3.56-9.56v-15.49a115 115 0 0 1-28.27-6.11A80.84 80.84 0 0 1 2860 819a12.89 12.89 0 0 1-4.58-5.1 16.53 16.53 0 0 1-1.27-6.87 14.84 14.84 0 0 1 3.18-9.43q3.18-4.07 7.26-4.07a12.38 12.38 0 0 1 4.71.89 54.5 54.5 0 0 1 5.73 2.93 93.94 93.94 0 0 0 23 11.2 78.74 78.74 0 0 0 23.81 3.57q17.06 0 26.36-6.62t9.29-19.1a15.36 15.36 0 0 0-5.09-12 37 37 0 0 0-12.73-7.26q-7.65-2.67-21.39-6.24a231.09 231.09 0 0 1-31.08-9.8 53.75 53.75 0 0 1-20.53-15.1q-8.67-10.19-8.66-27.5a47.46 47.46 0 0 1 14.77-35.15q14.76-14.5 38.71-18.08v-16a13.16 13.16 0 0 1 3.56-9.55 13.88 13.88 0 0 1 18.85 0 13.21 13.21 0 0 1 3.56 9.55V655q25.73 3.31 44.32 18.59a14.29 14.29 0 0 1 6.11 12 14.83 14.83 0 0 1-3.19 9.42q-3.18 4.08-7.51 4.08a13.27 13.27 0 0 1-4.45-.77 30.32 30.32 0 0 1-5.74-3 96 96 0 0 0-19.73-11.08q-9.3-3.69-22-3.7-15.79 0-25.21 7t-9.43 19.23q0 8.4 5.35 13.62a35.48 35.48 0 0 0 13.5 8q8.15 2.81 22.16 6.37a219.86 219.86 0 0 1 30.3 9.42 51.57 51.57 0 0 1 20 14.65q8.28 9.79 8.28 26.61-.04 20.29-14.17 34.3Z"/><path fill="#f49000" d="M2911.49 655.22h26.49v190.81h-26.49z"/><path fill="#f9ac30" d="M2987.5 819.74q-14.13 14-38.07 17.57v16a13.2 13.2 0 0 1-3.57 9.56 13.87 13.87 0 0 1-18.84 0 13.2 13.2 0 0 1-3.57-9.56v-15.49a115.12 115.12 0 0 1-28.27-6.11A80.79 80.79 0 0 1 2871.5 819a12.74 12.74 0 0 1-4.58-5.1 16.36 16.36 0 0 1-1.28-6.87 14.9 14.9 0 0 1 3.18-9.43q3.19-4.07 7.26-4.07a12.39 12.39 0 0 1 4.72.89 54.53 54.53 0 0 1 5.72 2.93 94.12 94.12 0 0 0 23.05 11.2 78.74 78.74 0 0 0 23.81 3.57q17.07 0 26.36-6.62t9.3-19.1a15.36 15.36 0 0 0-5.09-12 37.08 37.08 0 0 0-12.74-7.26q-7.64-2.67-21.39-6.24a231.36 231.36 0 0 1-31.07-9.8 53.78 53.78 0 0 1-20.63-15.1q-8.65-10.19-8.66-27.5a47.46 47.46 0 0 1 14.77-35.15q14.78-14.5 38.71-18.08v-16a13.17 13.17 0 0 1 3.57-9.55 13.87 13.87 0 0 1 18.84 0 13.17 13.17 0 0 1 3.57 9.55V655q25.71 3.31 44.31 18.59a14.27 14.27 0 0 1 6.11 12 14.87 14.87 0 0 1-3.18 9.42c-2.12 2.72-4.63 4.08-7.51 4.08a13.28 13.28 0 0 1-4.46-.77 30.6 30.6 0 0 1-5.73-3 95.83 95.83 0 0 0-19.74-11.08q-9.3-3.69-22-3.7-15.78 0-25.21 7t-9.42 19.23q0 8.4 5.35 13.62a35.36 35.36 0 0 0 13.49 8q8.16 2.81 22.16 6.37a220.5 220.5 0 0 1 30.31 9.42 51.71 51.71 0 0 1 20 14.65q8.26 9.79 8.27 26.61-.04 20.29-14.17 34.3Z"/><path fill="#f9ac30" d="M2922.94 655.22h26.49v190.81h-26.49z"/><path fill="#3a1313" d="M3047.81 1222.22s81.93-30.26 128 53.86c.01 0-57.5-71.91-128-53.86Z"/></g></svg>