<svg xmlns="http://www.w3.org/2000/svg" enable-background="new 0 0 2000 2000" viewBox="0 0 2000 2000"><path fill="#e7f1fb" fill-rule="evenodd" d="M1128.51,442.46c230.66,0,233.73,206.72,400.21,300.56c220.42,124.19,299.24,164.44,276.09,376.89
	c-19.18,176.1-197.74,509.7-733.64,509.7c-535.92,0-993.2-207.51-833.62-580.66C397.1,675.8,592.58,442.46,1128.51,442.46
	L1128.51,442.46z M1128.51,442.46" clip-rule="evenodd"/><path fill="#c7dcf5" fill-rule="evenodd" d="M822.13,1248.69v48.53h33.85v-48.53H822.13z M1767.52,1252.39c-5.97,13.47-12.69,27.1-20.2,40.81h-16.58v28.3
	c-7.21,11.54-14.98,23.09-23.39,34.55h-29.18v36.69c-5.61,6.54-11.46,12.99-17.49,19.41v-190.23L1767.52,1252.39z M1641.61,1431.48
	c-7.36,7.11-15.01,14.14-22.93,21.04v-22.04h-32.86v36.15h16.06c-11.51,9.31-23.57,18.41-36.21,27.22v-2.02h-33.61v23.94
	c-6.54,4.01-13.3,7.89-20.13,11.75v-35.69h-33.58V1528h32.73c-16.79,9.38-34.39,18.33-52.9,26.68v-1.47h-31.02v14.65
	c-7.29,2.89-14.71,5.7-22.25,8.41v-430.03h37.38v-13.54c0-7.02,5.34-12.75,11.85-12.75h144.99c6.54,0,11.85,5.73,11.85,12.75v13.54
	h30.62V1431.48z M1389.34,1581.71c-5.06,1.71-10.19,3.4-15.37,5.03v-38.46H1349v42.86h10.5c-31.39,9.26-64.72,17.04-100.17,23.15
	v-279.42l66.71-45.58l63.3,45.58V1581.71z M1215.95,1620.78c-38.52,4.92-79.34,7.87-122.57,8.63v-303.37h122.57V1620.78z
	 M1074.91,1629.58c-1.27,0-2.48,0.03-3.74,0.03c-44.64,0-88.68-1.45-131.9-4.31V996.32l135.64-109.02V1629.58z M920.75,1624
	c-56.25-4.24-110.93-10.94-163.41-19.99v-381.04h163.41V1624z M741.01,1601.1c-9.25-1.69-18.44-3.44-27.55-5.31h13.84v-27.31h-35.48
	v22.76c-4.19-0.9-8.32-1.87-12.51-2.83v-19.92h-35.45v11.34c-4.19-1.09-8.38-2.18-12.51-3.29v-8.05h-28.6
	c-6.93-2.05-13.78-4.13-20.59-6.27v-248.14l158.86,65.62V1601.1z M561.26,1555.4c-25.16-8.5-49.34-17.66-72.41-27.52h10.37v-44.49
	h-29.27v36.11c-4.3-1.96-8.59-3.91-12.78-5.93v-30.17h-29.3v15.37c-6.78-3.62-13.44-7.29-19.96-11.03v-355h19.96v-21.13h51.63v-81.2
	h9.98v81.2h51.7v21.13h20.07V1555.4z M387.03,1475.09c-6.23-3.91-12.33-7.86-18.3-11.93v-25.39h-31.47v2.32
	c-9.77-7.75-18.99-15.73-27.76-23.96h11.07v-36.45H289.1v16.1c-11.27-12.11-21.49-24.72-30.63-37.74h13.93v-36.44h-31.47v8.44
	c-5.37-9.65-10.16-19.51-14.35-29.57l160.45-74.76V1475.09z M1714.8,1332.66v-39.46h-36.62v39.46H1714.8z M1338.12,1358.44v42.87
	h-24.96v-42.87H1338.12z M1302.29,1358.44v42.87h-24.96v-42.87H1302.29z M1338.12,1421.74v42.84h-24.96v-42.84H1338.12z
	 M1302.29,1421.74v42.84h-24.96v-42.84H1302.29z M1373.97,1421.74v42.84H1349v-42.84H1373.97z M1338.12,1485.01v42.83h-24.96v-42.83
	H1338.12z M1302.29,1485.01v42.83h-24.96v-42.83H1302.29z M1373.97,1485.01v42.83H1349v-42.83H1373.97z M1338.12,1548.29v42.86
	h-24.96v-42.86H1338.12z M1302.29,1548.29v42.86h-24.96v-42.86H1302.29z M1373.97,1358.44v42.87H1349v-42.87H1373.97z
	 M1458.19,1221.16h-31.02v-36.14h31.02V1221.16z M1458.19,1282.53h-31.02v-36.17h31.02V1282.53z M1458.19,1343.88h-31.02v-36.15
	h31.02V1343.88z M1458.19,1405.25h-31.02v-36.15h31.02V1405.25z M1458.19,1466.63h-31.02v-36.15h31.02V1466.63z M1458.19,1528
	h-31.02v-36.18h31.02V1528z M1478.35,1430.48h33.58v36.15h-33.58V1430.48z M1478.35,1369.11h33.58v36.15h-33.58V1369.11z
	 M1478.35,1307.74h33.58v36.15h-33.58V1307.74z M1478.35,1246.37h33.58v36.17h-33.58V1246.37z M1478.35,1185.02h33.58v36.14h-33.58
	V1185.02z M1565.67,1221.16h-33.61v-36.14h33.61V1221.16z M1565.67,1282.53h-33.61v-36.17h33.61V1282.53z M1565.67,1343.88h-33.61
	v-36.15h33.61V1343.88z M1565.67,1405.25h-33.61v-36.15h33.61V1405.25z M1565.67,1466.63h-33.61v-36.15h33.61V1466.63z
	 M1585.82,1369.11h32.86v36.15h-32.86V1369.11z M1585.82,1307.74h32.86v36.15h-32.86V1307.74z M1585.82,1246.37h32.86v36.17h-32.86
	V1246.37z M1585.82,1185.02h32.86v36.14h-32.86V1185.02z M289.1,1321.6v36.44h31.47v-36.44H289.1z M337.26,1321.6v36.44h31.47
	v-36.44H337.26z M337.26,1379.69v36.45h31.47v-36.45H337.26z M643.85,1394.16v27.34h35.45v-27.34H643.85z M691.81,1394.16v27.34
	h35.48v-27.34H691.81z M595.87,1394.16v27.34h35.47v-27.34H595.87z M643.85,1437.75v27.34h35.45v-27.34H643.85z M691.81,1437.75
	v27.34h35.48v-27.34H691.81z M595.87,1437.75v27.34h35.47v-27.34H595.87z M643.85,1481.3v27.34h35.45v-27.34H643.85z M691.81,1481.3
	v27.34h35.48v-27.34H691.81z M595.87,1481.3v27.34h35.47v-27.34H595.87z M643.85,1524.9v27.34h35.45v-27.34H643.85z M691.81,1524.9
	v27.34h35.48v-27.34H691.81z M595.87,1524.9v27.34h35.47v-27.34H595.87z M469.95,1149.69h29.27v44.49h-29.27V1149.69z M512,1149.69
	h29.3v44.49H512V1149.69z M469.95,1216.43h29.27v44.49h-29.27V1216.43z M512,1216.43h29.3v44.49H512V1216.43z M427.88,1216.43h29.3
	v44.49h-29.3V1216.43z M469.95,1283.17h29.27v44.49h-29.27V1283.17z M512,1283.17h29.3v44.49H512V1283.17z M427.88,1283.17h29.3
	v44.49h-29.3V1283.17z M469.95,1349.91h29.27v44.49h-29.27V1349.91z M512,1349.91h29.3v44.49H512V1349.91z M427.88,1349.91h29.3
	v44.49h-29.3V1349.91z M469.95,1416.64h29.27v44.49h-29.27V1416.64z M512,1416.64h29.3v44.49H512V1416.64z M427.88,1416.64h29.3
	v44.49h-29.3V1416.64z M512,1483.39h29.3v44.49H512V1483.39z M427.88,1149.69h29.3v44.49h-29.3V1149.69z M870.75,1248.69v48.53
	h33.85v-48.53H870.75z M773.53,1248.69v48.53h33.86v-48.53H773.53z M822.13,1326.03v48.56h33.85v-48.56H822.13z M870.75,1326.03
	v48.56h33.85v-48.56H870.75z M773.53,1326.03v48.56h33.86v-48.56H773.53z M822.13,1403.41v48.53h33.85v-48.53H822.13z
	 M870.75,1403.41v48.53h33.85v-48.53H870.75z M773.53,1403.41v48.53h33.86v-48.53H773.53z M822.13,1480.76v48.56h33.85v-48.56
	H822.13z M870.75,1480.76v48.56h33.85v-48.56H870.75z M773.53,1480.76v48.56h33.86v-48.56H773.53z M822.13,1558.14v48.53h33.85
	v-48.53H822.13z M870.75,1558.14v48.53h33.85v-48.53H870.75z M773.53,1558.14v48.53h33.86v-48.53H773.53z M1141.98,1345.29v36.42
	h25.38v-36.42H1141.98z M1178.46,1345.29v36.42h25.38v-36.42H1178.46z M1105.54,1345.29v36.42h25.38v-36.42H1105.54z
	 M1141.98,1403.36v36.38h25.38v-36.38H1141.98z M1178.46,1403.36v36.38h25.38v-36.38H1178.46z M1105.54,1403.36v36.38h25.38v-36.38
	H1105.54z M1141.98,1461.38v36.42h25.38v-36.42H1141.98z M1178.46,1461.38v36.42h25.38v-36.42H1178.46z M1105.54,1461.38v36.42
	h25.38v-36.42H1105.54z M1141.98,1519.41v36.38h25.38v-36.38H1141.98z M1178.46,1519.41v36.38h25.38v-36.38H1178.46z
	 M1105.54,1519.41v36.38h25.38v-36.38H1105.54z M1141.98,1577.43v36.38h25.38v-36.38H1141.98z M1178.46,1577.43v36.38h25.38v-36.38
	H1178.46z M1105.54,1577.43v36.38h25.38v-36.38H1105.54z M994.13,1019.78h25.92V1079h-25.92V1019.78z M1031.35,1019.78h25.9V1079
	h-25.9V1019.78z M994.13,1108.64h25.92v59.23h-25.92V1108.64z M1031.35,1108.64h25.9v59.23h-25.9V1108.64z M956.9,1108.64h25.92
	v59.23H956.9V1108.64z M994.13,1197.5h25.92v59.23h-25.92V1197.5z M1031.35,1197.5h25.9v59.23h-25.9V1197.5z M956.9,1197.5h25.92
	v59.23H956.9V1197.5z M994.13,1286.36h25.92v59.26h-25.92V1286.36z M1031.35,1286.36h25.9v59.26h-25.9V1286.36z M956.9,1286.36
	h25.92v59.26H956.9V1286.36z M994.13,1375.23h25.92v59.26h-25.92V1375.23z M1031.35,1375.23h25.9v59.26h-25.9V1375.23z
	 M956.9,1375.23h25.92v59.26H956.9V1375.23z M994.13,1464.13h25.92v59.23h-25.92V1464.13z M1031.35,1464.13h25.9v59.23h-25.9
	V1464.13z M956.9,1464.13h25.92v59.23H956.9V1464.13z M994.13,1552.98h25.92v59.23h-25.92V1552.98z M1031.35,1552.98h25.9v59.23
	h-25.9V1552.98z M956.9,1552.98h25.92v59.23H956.9V1552.98z M956.9,1019.78h25.92V1079H956.9V1019.78z M956.9,1019.78" clip-rule="evenodd"/><path fill="#aec8e6" fill-rule="evenodd" d="M1229.97,391.18c11.31-7.26,23.63-12.26,36.35-15.04v-16.67c0-5.33,4.38-9.68,9.68-9.68h27.79
	c5.3,0,9.68,4.34,9.68,9.68v16.67c12.72,2.78,25.05,7.78,36.35,15.04l11.78-11.78c3.74-3.77,9.92-3.73,13.66,0l19.65,19.65
	c3.77,3.77,3.77,9.92,0,13.68l-11.79,11.79c7.29,11.27,12.3,23.63,15.04,36.35h16.7c5.31,0,9.65,4.34,9.65,9.68v27.76
	c0,5.34-4.34,9.68-9.65,9.68h-16.7c-2.74,12.73-7.77,25.05-15.04,36.35l11.79,11.78c3.77,3.77,3.77,9.92,0,13.69l-14.8,14.8
	l-4.86,4.82c-3.74,3.76-9.92,3.76-13.66,0l-11.78-11.76c-11.31,7.27-23.64,12.27-36.35,15.05v16.67c0,5.3-4.38,9.68-9.68,9.68H1276
	c-5.3,0-9.68-4.38-9.68-9.68v-16.67c-12.72-2.78-25.05-7.78-36.35-15.05l-11.79,11.76c-3.73,3.76-9.91,3.76-13.65,0l-4.85-4.82
	l-14.8-14.8c-3.78-3.77-3.78-9.92,0-13.69l11.78-11.78c-7.29-11.3-12.3-23.63-15.04-36.35h-16.7c-5.31,0-9.64-4.34-9.64-9.68v-27.76
	c0-5.34,4.34-9.68,9.64-9.68h16.7c2.74-12.72,7.75-25.05,15.04-36.35l-11.78-11.79c-3.78-3.77-3.78-9.92,0-13.68l19.65-19.65
	c3.74-3.73,9.89-3.73,13.65,0L1229.97,391.18z M1465.31,341.72l14.58,1.48c5.25,0.54,9.11,5.27,8.57,10.55l-0.94,9.25
	c5.93,2.78,11.25,6.66,15.67,11.33l8.49-3.83c4.82-2.17,10.56,0,12.69,4.82l6.03,13.38c2.14,4.82,0,10.52-4.82,12.69l-8.53,3.83
	c0.27,3.16,0.27,6.42-0.06,9.71c-0.33,3.28-0.96,6.47-1.9,9.52l7.56,5.46c4.29,3.1,5.28,9.14,2.17,13.41l-8.59,11.88
	c-3.07,4.28-9.1,5.28-13.38,2.18l-7.57-5.46c-5.27,3.7-11.25,6.42-17.67,7.93l-0.93,9.28c-0.54,5.25-5.27,9.11-10.51,8.56
	l-14.6-1.47c-5.24-0.54-9.1-5.28-8.59-10.52l0.96-9.28c-5.96-2.78-11.27-6.64-15.7-11.3l-8.5,3.8c-4.82,2.17-10.52,0-12.68-4.82
	l-6-13.38c-2.17-4.8,0-10.52,4.82-12.69l8.5-3.8c-0.27-3.19-0.27-6.42,0.09-9.74c0.33-3.29,0.96-6.45,1.87-9.52l-7.57-5.46
	c-4.27-3.08-5.24-9.11-2.17-13.42l8.59-11.88c3.11-4.28,9.14-5.24,13.42-2.17l7.56,5.46c5.28-3.67,11.24-6.39,17.63-7.92l0.93-9.25
	C1455.29,345.04,1460.03,341.18,1465.31,341.72L1465.31,341.72z M1465.72,386.06c13.06,0,23.66,10.61,23.66,23.67
	c0,13.05-10.61,23.63-23.66,23.63c-13.05,0-23.63-10.58-23.63-23.63C1442.09,396.67,1452.67,386.06,1465.72,386.06L1465.72,386.06z
	 M1449.38,491.18l14.56-1.96c5.21-0.69,10.07,3.01,10.79,8.26l1.23,9.22c6.45,1.33,12.51,3.83,17.88,7.35l7.38-5.7
	c4.19-3.23,10.25-2.44,13.47,1.75l8.95,11.61c3.23,4.16,2.47,10.22-1.72,13.47l-7.38,5.66c1,3.05,1.75,6.21,2.21,9.47
	c0.42,3.28,0.54,6.54,0.38,9.73l8.63,3.52c4.88,2.02,7.23,7.66,5.21,12.54l-5.57,13.57c-1.99,4.89-7.63,7.24-12.51,5.22l-8.66-3.53
	c-4.24,4.82-9.43,8.86-15.28,11.81l1.23,9.22c0.7,5.25-3.01,10.1-8.23,10.83l-14.56,1.93c-5.21,0.73-10.07-2.99-10.79-8.23
	l-1.25-9.22c-6.44-1.33-12.51-3.86-17.87-7.35l-7.39,5.7c-4.19,3.23-10.25,2.45-13.47-1.74l-8.95-11.61
	c-3.23-4.19-2.48-10.25,1.71-13.47l7.39-5.7c-0.99-3.01-1.74-6.17-2.2-9.46c-0.42-3.26-0.54-6.51-0.38-9.71l-8.63-3.53
	c-4.88-2.02-7.23-7.65-5.21-12.54l5.57-13.57c1.99-4.89,7.62-7.23,12.51-5.22l8.65,3.53c4.25-4.82,9.44-8.86,15.29-11.82l-1.24-9.25
	C1440.46,496.75,1444.17,491.9,1449.38,491.18L1449.38,491.18z M1465.66,533.56c13.09,0,23.67,10.58,23.67,23.63
	c0,13.09-10.58,23.67-23.67,23.67c-13.05,0-23.63-10.58-23.63-23.67C1442.03,544.14,1452.61,533.56,1465.66,533.56L1465.66,533.56z
	 M1289.89,404.33c22.13,0,42.14,8.95,56.64,23.45c14.5,14.5,23.45,34.54,23.45,56.64c0,22.12-8.95,42.16-23.45,56.66
	c-14.5,14.47-34.52,23.45-56.64,23.45c-22.12,0-42.14-8.98-56.64-23.45c-14.5-14.5-23.48-34.54-23.48-56.66
	c0-22.1,8.98-42.14,23.48-56.64C1247.75,413.29,1267.77,404.33,1289.89,404.33L1289.89,404.33z M1331.07,443.27
	c-10.55-10.55-25.11-17.05-41.18-17.05c-16.06,0-30.63,6.51-41.18,17.05c-10.52,10.53-17.03,25.08-17.03,41.15
	c0,16.09,6.51,30.65,17.03,41.17c10.55,10.56,25.11,17.06,41.18,17.06c16.07,0,30.63-6.51,41.18-17.06
	c10.52-10.52,17.03-25.08,17.03-41.17C1348.1,468.35,1341.59,453.8,1331.07,443.27L1331.07,443.27z M1331.07,443.27" clip-rule="evenodd"/><path fill="#c7dcf5" fill-rule="evenodd" d="M450.22,1594.19c120.51,0,218.2,17.87,218.2,39.88c0,22.03-97.69,39.88-218.2,39.88
	c-120.52,0-218.22-17.85-218.22-39.88C232,1612.06,329.69,1594.19,450.22,1594.19L450.22,1594.19z M450.22,1594.19" clip-rule="evenodd"/><path fill="#ffb27d" fill-rule="evenodd" d="M416.03,765.06c5.7,0.39,11.21-6.39,12.78-8.41c6.09-7.69,9.95-16.73,11.51-21.82
	c-1.17-3.38-2.41-7.63-3.7-12.79c-22.01-14.92-25.02-25.98-9.01-33.12c3.2,1.81,7.21,7.35,11.97,16.67
	c3.83-0.16,6.72-2.11,8.68-5.85c-4.55-15.73-7.51-28.49-8.87-38.31c10.83-16.1,36.18-18.39,69.72-14.05
	c1.57,8.92,2.84,18.39,3.84,28.36c5.93,5.46,5.18,25.74-0.31,49.08c2.75,13.3-5.46,20.53-24.59,21.76c-0.18,3.2,0.12,6.88,0.18,9.14
	c0.03,2.01,0.13,5.99,2.23,6.63l3.56,0.87C493.65,810.7,469.36,819.83,416.03,765.06L416.03,765.06z M416.03,765.06" clip-rule="evenodd"/><path fill="#b5453c" fill-rule="evenodd" d="M509.11,647.38c-33.54-4.34-58.89-2.05-69.72,14.05c1.36,9.82,4.32,22.58,8.87,38.31
	c-1.96,3.74-4.85,5.7-8.68,5.85c-4.76-9.31-8.77-14.89-11.97-16.67c-16,7.14-12.99,18.2,9.01,33.12c1.27,5.15,2.53,9.41,3.7,12.79
	c-19.77-4.43-36.32-22.12-38.67-29.79c-23.07-45.48,2.65-64.68,16.43-71.68c6.09-45.07,70.96,0.18,103.72-21.52
	C534.85,629.83,519.28,646.96,509.11,647.38L509.11,647.38z M509.11,647.38" clip-rule="evenodd"/><path fill="#f08261" fill-rule="evenodd" d="M466.01,741.94c5.37,2.65,12.72,4.19,22.04,4.64c-0.18,3.16-0.03,6.78,0.16,9.04
	C478.82,753.82,471.4,749.27,466.01,741.94L466.01,741.94z M466.01,741.94" clip-rule="evenodd"/><path fill="#2b478b" fill-rule="evenodd" d="M376.03,1654.24c-20.86-7.32-22.52-18.06-33.76-23.3c-11.31-5.31-12.59-14.72-1.54-24.93
	c8.17,6.54,18.3,14.56,23.67,10.31c3.58-2.83,15.73-2.65,18.14,1.48c10.58,24.63,25.32,16.82,28.21,28.03
	C411.08,1660.72,385.59,1657.62,376.03,1654.24L376.03,1654.24z M376.03,1654.24" clip-rule="evenodd"/><path fill="#2b478b" fill-rule="evenodd" d="M556.59,1629.76c-36.68-0.57-64.12-1.02-76.8-5.03c-13.66-4.31-10.86-12.66-2.99-25.98
	c34.6,15.91,25.38-3.29,41.57-0.85c11.36,9.17,28.18,15.29,50.49,18.42C578.29,1623.25,574.46,1629.46,556.59,1629.76
	L556.59,1629.76z M556.59,1629.76" clip-rule="evenodd"/><path fill="#f99746" fill-rule="evenodd" d="M538.27,770.43c-18.3-5.3-34.76-8.53-49.35-9.68c-2.62,40.24-23.63,39.97-63-0.84
	c-37.89,3.2-45.3,3.67-66.34,10.49c-45.49,43.47-49.68,93.63-73.46,150.96c26.31,1.17,38.13,4.34,56.04,10.73
	c3.86-13.74,7.08-24.78,9.64-33.16c-0.72,75.57-0.99,127.39-0.82,155.39c105.41,13.36,168.14,11.94,188.12-4.22
	c0.43-67.19,0.97-120.36,1.69-159.57c10.4,12.29,20.07,21.79,28.97,28.58c21.33-24.51,35.8-34.36,47.93-48.78
	C590.89,826.28,552.5,785.35,538.27,770.43L538.27,770.43z M538.27,770.43" clip-rule="evenodd"/><path fill="#ffb27d" fill-rule="evenodd" d="M713.79,844.07c-45.76,18.99-77.77,34.69-96.1,47.11l-8.14-12.05c-7.56,7.59-16.22,15.01-26.74,25.84
	c9.74,10.19,20.2,18.57,32.38,25.65c31.8-3.41,66.91-27.46,105.41-72.23c11.96-2.38,20.8-6.72,26.43-13.02
	c0.31-5.76-2.58-11.54-8.7-17.33c15.94-10.4,22.3-17.85,19.05-22.34C732.39,821.16,717.86,833.93,713.79,844.07L713.79,844.07z
	 M713.79,844.07" clip-rule="evenodd"/><path fill="#1c468a" fill-rule="evenodd" d="M540.16,930.7c-0.49,41.02-0.85,80.84-1.06,119.39c5.73,4.52,13.39,42.74,6.61,64.96
	c11.58,71.47,1.65,164.5-4.59,284.13c-11.15,42.17-27.64,98.33-26.56,177.43c-19.44,5.93-26.46,6.54-44.01,2.08
	c-12.27-82.53-3.89-148.61,7.18-179.11c-7.08-47.17-17.66-99.99-33.1-176.16c-17.36,83.02-40.61,144.6-50.67,184.78
	c-1.99,44.83-11.07,105.3-15.8,181.44c-14.41,4.34-23.4,5.61-38.37,3.77c-19.42-69.99-16.16-146.13-7.93-228.46
	c8.77-98.96-5.67-210.71,8.77-249.44c4.62-25.74,1.75-49.92,10.34-61.22c18.24,4.25,34.94,0.63,50.04-10.82
	c1.38-97.58,4.76-162.24,10.06-194.04c5.4-45.88-8.35-73.28-41.23-82.14c6.75-6.91,15.34-8.47,25.74-4.68
	c25.53,16.79,37.67,46.63,36.5,89.56c43.53,6.12,72.77,4.16,87.75-5.88c1.63-40.55-6.42-68.82-24.18-84.88
	c6.69-4.79,15.37-3.26,25.98,4.64c13.6,18.68,19.57,47.68,17.94,86.96C543.02,867.22,543.2,893.11,540.16,930.7L540.16,930.7z
	 M540.16,930.7" clip-rule="evenodd"/><path fill="#ed7d2b" fill-rule="evenodd" d="M364.37,977.51c-4.68,0.7-9.08,1.3-13.23,1.87c-0.22,33.34-0.27,58.33-0.15,74.91
	c4.67,0.6,9.25,1.18,13.77,1.72C364.4,1028.13,364.27,1001.96,364.37,977.51L364.37,977.51z M577.33,910.72
	c-12.84-10.67-25.05-28.03-36.62-52.03c1.29,8.35,1.81,19.56,1.54,33.55c9.89,11.46,19.05,20.41,27.53,26.86
	C572.39,916.08,574.89,913.31,577.33,910.72L577.33,910.72z M368.01,845.69c-5.67,18.17-11.06,35.93-16.21,53.23
	c-0.12,14.59-0.25,28.3-0.36,41.15c3.73-0.33,8.11-0.57,13.3-0.72C365.27,903.87,366.35,872.64,368.01,845.69L368.01,845.69z
	 M368.01,845.69" clip-rule="evenodd"/><path fill="#aec8e6" fill-rule="evenodd" d="M482.95,871.83h95.89c4.4,0,7.42,3.61,6.72,8.02l-21.52,135.82c-0.69,4.41-4.85,7.99-9.26,7.99H458.9
	c-4.38,0-7.42-3.58-6.72-7.99l21.52-135.82C474.38,875.44,478.55,871.83,482.95,871.83L482.95,871.83z M482.95,871.83" clip-rule="evenodd"/><path fill="#ffb27d" fill-rule="evenodd" d="M294.95,921.87c-4.17,16.82-5.88,32.19-2.51,52.6c10.37,15.02,52.12,6.64,159.64-11.33
	c3.86,3.5,11.85,7.02,23.93,5.46c11.25-2.81,11.79-5.76,24.42-17.63c3.05-9.26,2.42-16.35-1.9-21.22
	c-14.19,8.35-21.67,12.81-37.67,13.32c4.25-10.94,4.91-18.03,1.93-21.19c-5.46,4.37-9.01,10.94-10.67,19.72
	c-84.77-3.68-107.1-3.2-118.41,2.74c1.23-5.33,2.32-10.01,3.26-14.05C323.76,925.79,313.03,923.16,294.95,921.87L294.95,921.87z
	 M294.95,921.87" clip-rule="evenodd"/><path fill="#ffb27d" fill-rule="evenodd" d="M479.24,1580.63c0.88,7.21,0.99,13.66,0.36,19.39c28.97,12.57,24.03-1.96,35.61-2.32
	c-2.9-5.09-4.8-11.64-5.64-19.59C496.93,1581.71,489.76,1582.52,479.24,1580.63L479.24,1580.63z M344.38,1593.89
	c0,5.25-0.52,9.82-1.54,13.81c7.74,6.12,16.64,12.51,21.55,8.62c2.34-1.87,8.4-2.41,12.95-1.41c-1.87-6.33-3.34-14.23-4.43-23.76
	C362.77,1593.89,354.96,1594.79,344.38,1593.89L344.38,1593.89z M344.38,1593.89" clip-rule="evenodd"/><path fill="#f19c16" fill-rule="evenodd" d="M412.71,587.09c38.44-25.17,73.77-15.31,92.52,19.14l0.57,1.05c20.01-8.68,36.65-11.51,41.32-8.29
	l-82.02,44.56l-80,43.55l-6.48-11.91C362.55,645.72,380.37,608.31,412.71,587.09L412.71,587.09z M412.71,587.09" clip-rule="evenodd"/><path fill="#f19c16" fill-rule="evenodd" d="M505.23,606.24c-18.75-34.46-54.08-44.32-92.52-19.14c-32.34,21.22-50.16,58.63-34.09,88.11l2.81,5.12
	l124.37-73.04L505.23,606.24z M505.23,606.24" clip-rule="evenodd"/><path fill="#de7b2a" fill-rule="evenodd" d="M403.79,605.48c34.99-22.94,67.46-16.79,87.14,10.55l14.86-8.74l-0.57-1.05
	c-18.75-34.46-54.08-44.32-92.52-19.14c-17.93,11.79-31.41,28.52-37.1,46.12C382.57,622.63,392.25,613.02,403.79,605.48
	L403.79,605.48z M403.79,605.48" clip-rule="evenodd"/><path fill="#347e8f" fill-rule="evenodd" d="M1618.43,894.77h-23.75v7l5.55,13.17v24.05h5.09c5.61,1.05,11.34,3.83,12.3,10.04
	c0.54,3.34-0.49,6.87-2.26,9.7c-1.83,2.96-4.73,5.55-8.14,6.45c-14.47,3.19-14.95-10.82-21.67-12.81
	c-4.52-1.33-11.27,1.36-12.54,5.28c5.09-1.48,7.56,1.96,11.72,8.02c4.07,6.75,9.55,13.38,20.83,13.38c6.94,0,13.54-2.71,18.45-7.62
	c4.89-4.92,7.62-11.51,7.62-18.45c0-6.93-2.74-13.54-7.62-18.44c-3.13-3.14-6.99-5.4-11.21-6.64v-12.96l5.63-13.17V894.77z
	 M1618.43,894.77" clip-rule="evenodd"/><path fill="#347e8f" fill-rule="evenodd" d="M1585.51,889.88h45.72l22.85-83.83l-22.85-58.57h-45.72l-22.85,58.57L1585.51,889.88z M1619.19,864.86
	c0,5.97-4.85,10.83-10.79,10.83c-5.97,0-10.83-4.85-10.83-10.83c0-5.93,4.85-10.79,10.83-10.79
	C1614.33,854.08,1619.19,858.93,1619.19,864.86L1619.19,864.86z M1622.65,843.28h-7.83l-10.16-37.23h7.84L1622.65,843.28z
	 M1608.4,795.23c-7.17,0-12.96-5.82-12.96-12.96c0-7.18,5.79-12.96,12.96-12.96c7.14,0,12.93,5.79,12.93,12.96
	C1621.32,789.42,1615.53,795.23,1608.4,795.23L1608.4,795.23z M1602.82,843.28h-7.84l-10.15-37.23h7.83L1602.82,843.28z
	 M1640.53,843.28h-5.85l-10.16-37.23h7.84l9.17,33.61L1640.53,843.28z M1647.52,817.63l-3.17-11.58h6.2l0.06,0.19L1647.52,817.63z
	 M1572.82,806.05l10.13,37.23h-6.72l-10.1-37.04l0.09-0.19H1572.82z M1572.82,806.05" clip-rule="evenodd"/><path fill="#347e8f" fill-rule="evenodd" d="M1000.01,327.74l66.4,66.4c2.29,2.29,2.29,6,0,8.26l-66.43,66.46c-2.29,2.26-5.97,2.26-8.26,0
	c-1.15-1.15-1.72-2.65-1.72-4.13V331.83c0-3.23,2.62-5.85,5.85-5.85C997.47,325.99,998.95,326.65,1000.01,327.74L1000.01,327.74z
	 M1054.02,398.27l-52.34-52.33v104.69L1054.02,398.27z M1054.02,398.27" clip-rule="evenodd"/><path fill="#347e8f" fill-rule="evenodd" d="M1056.46,412.38l-52.36,52.36l52.36,52.33V412.38z M991.72,460.61l66.4-66.41c1.06-1.09,2.53-1.78,4.16-1.78
	c3.23,0,5.85,2.62,5.85,5.84v132.91c0,1.51-0.57,2.99-1.72,4.13c-2.26,2.29-5.96,2.29-8.25,0l-66.43-66.43
	C989.43,466.58,989.43,462.87,991.72,460.61L991.72,460.61z M991.72,460.61" clip-rule="evenodd"/><path fill="#347e8f" fill-rule="evenodd" d="M1000.01,460.64l66.4,66.41c2.29,2.29,2.29,6,0,8.26l-66.43,66.47c-2.29,2.26-5.97,2.26-8.26,0
	c-1.15-1.15-1.72-2.65-1.72-4.14v-132.9c0-3.23,2.62-5.85,5.85-5.85C997.47,458.89,998.95,459.55,1000.01,460.64L1000.01,460.64z
	 M1054.02,531.17l-52.34-52.33v104.69L1054.02,531.17z M1054.02,531.17" clip-rule="evenodd"/><path fill="#347e8f" fill-rule="evenodd" d="M1056.46,545.28l-52.36,52.36l52.36,52.34V545.28z M991.72,593.51l66.4-66.4c1.06-1.09,2.53-1.78,4.16-1.78
	c3.23,0,5.85,2.62,5.85,5.85v132.91c0,1.5-0.57,2.98-1.72,4.13c-2.26,2.29-5.96,2.29-8.25,0l-66.43-66.43
	C989.43,599.48,989.43,595.77,991.72,593.51L991.72,593.51z M991.72,593.51" clip-rule="evenodd"/><path fill="#347e8f" fill-rule="evenodd" d="M1000.01,593.54l66.4,66.41c2.29,2.29,2.29,6,0,8.26l-66.43,66.46c-2.29,2.26-5.97,2.26-8.26,0
	c-1.15-1.14-1.72-2.65-1.72-4.13V597.64c0-3.23,2.62-5.84,5.85-5.84C997.47,591.8,998.95,592.46,1000.01,593.54L1000.01,593.54z
	 M1054.02,664.08l-52.34-52.33v104.69L1054.02,664.08z M1054.02,664.08" clip-rule="evenodd"/><path fill="#1b1918" fill-rule="evenodd" d="M1056.46,678.19l-52.36,52.36l52.36,52.33V678.19z M991.72,726.42l66.4-66.41c1.06-1.08,2.53-1.78,4.16-1.78
	c3.23,0,5.85,2.62,5.85,5.85v132.9c0,1.51-0.57,2.99-1.72,4.14c-2.26,2.29-5.96,2.29-8.25,0l-66.43-66.44
	C989.43,732.38,989.43,728.68,991.72,726.42L991.72,726.42z M991.72,726.42" clip-rule="evenodd"/><path fill="#347e8f" fill-rule="evenodd" d="M1000.01,726.45l66.4,66.4c2.29,2.29,2.29,6,0,8.26l-66.43,66.47c-2.29,2.26-5.97,2.26-8.26,0
	c-1.15-1.15-1.72-2.65-1.72-4.13V730.55c0-3.23,2.62-5.85,5.85-5.85C997.47,724.7,998.95,725.36,1000.01,726.45L1000.01,726.45z
	 M1054.02,796.98l-52.34-52.33v104.69L1054.02,796.98z M1054.02,796.98" clip-rule="evenodd"/><path fill="#347e8f" fill-rule="evenodd" d="M1056.46,811.09l-52.36,52.36l52.36,52.33V811.09z M991.72,859.32l66.4-66.44c1.06-1.06,2.53-1.74,4.16-1.74
	c3.23,0,5.85,2.62,5.85,5.84v132.91c0,1.51-0.57,2.99-1.72,4.13c-2.26,2.29-5.96,2.29-8.25,0l-66.43-66.43
	C989.43,865.29,989.43,861.58,991.72,859.32L991.72,859.32z M991.72,859.32" clip-rule="evenodd"/><path fill="#347e8f" fill-rule="evenodd" d="M1000.01,859.35l66.4,66.41c2.29,2.29,2.29,6,0,8.26l-66.43,66.47c-2.29,2.25-5.97,2.25-8.26,0
	c-1.15-1.15-1.72-2.65-1.72-4.14v-132.9c0-3.23,2.62-5.85,5.85-5.85C997.47,857.6,998.95,858.26,1000.01,859.35L1000.01,859.35z
	 M1054.02,929.88l-52.34-52.33v104.69L1054.02,929.88z M1054.02,929.88" clip-rule="evenodd"/><path fill="#347e8f" fill-rule="evenodd" d="M1056.46,943.99l-52.36,52.36l52.36,52.34V943.99z M991.72,992.22l66.4-66.43c1.06-1.06,2.53-1.75,4.16-1.75
	c3.23,0,5.85,2.62,5.85,5.85v132.91c0,1.51-0.57,2.98-1.72,4.13c-2.26,2.29-5.96,2.29-8.25,0l-66.43-66.43
	C989.43,998.19,989.43,994.48,991.72,992.22L991.72,992.22z M991.72,992.22" clip-rule="evenodd"/><path fill="#347e8f" fill-rule="evenodd" d="M1000.01,992.25l66.4,66.41c2.29,2.29,2.29,5.97,0,8.26l-66.43,66.46c-2.29,2.26-5.97,2.26-8.26,0
	c-1.15-1.14-1.72-2.65-1.72-4.13V996.35c0-3.23,2.62-5.84,5.85-5.84C997.47,990.51,998.95,991.16,1000.01,992.25L1000.01,992.25z
	 M1054.02,1062.79l-52.34-52.36v104.72L1054.02,1062.79z M1054.02,1062.79" clip-rule="evenodd"/><path fill="#347e8f" fill-rule="evenodd" d="M1056.46,1076.9l-52.36,52.36l52.36,52.33V1076.9z M991.72,1125.13l66.4-66.44c1.06-1.05,2.53-1.74,4.16-1.74
	c3.23,0,5.85,2.62,5.85,5.85v132.9c0,1.51-0.57,2.99-1.72,4.14c-2.26,2.28-5.96,2.28-8.25,0l-66.43-66.44
	C989.43,1131.09,989.43,1127.39,991.72,1125.13L991.72,1125.13z M991.72,1125.13" clip-rule="evenodd"/><path fill="#347e8f" fill-rule="evenodd" d="M1000.01,1125.16l66.4,66.4c2.29,2.29,2.29,5.97,0,8.27l-66.43,66.46c-2.29,2.26-5.97,2.26-8.26,0
	c-1.15-1.15-1.72-2.65-1.72-4.13v-132.91c0-3.23,2.62-5.85,5.85-5.85C997.47,1123.41,998.95,1124.07,1000.01,1125.16
	L1000.01,1125.16z M1054.02,1195.69l-52.34-52.36v104.72L1054.02,1195.69z M1054.02,1195.69" clip-rule="evenodd"/><path fill="#362d7b" fill-rule="evenodd" d="M1056.46,1209.8l-52.36,52.36l52.36,52.33V1209.8z M991.72,1258.03l66.4-66.44c1.06-1.06,2.53-1.74,4.16-1.74
	c3.23,0,5.85,2.62,5.85,5.84v132.91c0,1.5-0.57,2.99-1.72,4.13c-2.26,2.29-5.96,2.29-8.25,0l-66.43-66.43
	C989.43,1264,989.43,1260.29,991.72,1258.03L991.72,1258.03z M991.72,1258.03" clip-rule="evenodd"/><path fill="#362d7b" fill-rule="evenodd" d="M1000.01,1258.06l66.4,66.41c2.29,2.29,2.29,5.96,0,8.26l-66.43,66.46c-2.29,2.26-5.97,2.26-8.26,0
	c-1.15-1.14-1.72-2.65-1.72-4.13v-132.9c0-3.23,2.62-5.85,5.85-5.85C997.47,1256.31,998.95,1256.98,1000.01,1258.06L1000.01,1258.06
	z M1054.02,1328.6l-52.34-52.36v104.72L1054.02,1328.6z M1054.02,1328.6" clip-rule="evenodd"/><path fill="#362d7b" fill-rule="evenodd" d="M1056.46,1342.7l-52.36,52.36l52.36,52.34V1342.7z M991.72,1390.93l66.4-66.43c1.06-1.06,2.53-1.75,4.16-1.75
	c3.23,0,5.85,2.62,5.85,5.85v132.91c0,1.51-0.57,2.98-1.72,4.13c-2.26,2.29-5.96,2.29-8.25,0l-66.43-66.44
	C989.43,1396.9,989.43,1393.19,991.72,1390.93L991.72,1390.93z M991.72,1390.93" clip-rule="evenodd"/><path fill="#347e8f" fill-rule="evenodd" d="M666.1,723.04l66.41-66.4c2.29-2.26,5.97-2.26,8.26,0l66.46,66.46c2.26,2.26,2.26,5.97,0,8.27
	c-1.14,1.14-2.65,1.71-4.13,1.71H670.2c-3.23,0-5.84-2.62-5.84-5.85C664.36,725.6,665.02,724.13,666.1,723.04L666.1,723.04z
	 M736.64,669.02l-52.36,52.37H789L736.64,669.02z M736.64,669.02" clip-rule="evenodd"/><path fill="#347e8f" fill-rule="evenodd" d="M750.74,666.61l52.36,52.36l52.33-52.36H750.74z M798.98,731.36l-66.43-66.41c-1.06-1.09-1.75-2.53-1.75-4.19
	c0-3.23,2.62-5.82,5.85-5.82h132.9c1.51,0,2.99,0.54,4.14,1.69c2.29,2.29,2.29,5.99,0,8.26l-66.44,66.47
	C804.94,733.62,801.24,733.62,798.98,731.36L798.98,731.36z M798.98,731.36" clip-rule="evenodd"/><path fill="#347e8f" fill-rule="evenodd" d="M799.01,723.04l66.4-66.4c2.29-2.26,5.97-2.26,8.27,0l66.46,66.46c2.26,2.26,2.26,5.97,0,8.27
	c-1.15,1.14-2.66,1.71-4.13,1.71H803.1c-3.23,0-5.85-2.62-5.85-5.85C797.26,725.6,797.92,724.13,799.01,723.04L799.01,723.04z
	 M869.54,669.02l-52.36,52.37h104.73L869.54,669.02z M869.54,669.02" clip-rule="evenodd"/><path fill="#347e8f" fill-rule="evenodd" d="M883.65,666.61l52.36,52.36l52.33-52.36H883.65z M931.88,731.36l-66.44-66.41c-1.05-1.09-1.75-2.53-1.75-4.19
	c0-3.23,2.62-5.82,5.84-5.82h132.91c1.5,0,2.99,0.54,4.13,1.69c2.29,2.29,2.29,5.99,0,8.26l-66.43,66.47
	C937.85,733.62,934.14,733.62,931.88,731.36L931.88,731.36z M931.88,731.36" clip-rule="evenodd"/><path fill="#347e8f" fill-rule="evenodd" d="M931.91,723.04l66.4-66.4c2.29-2.26,5.96-2.26,8.26,0l66.47,66.46c2.26,2.26,2.26,5.97,0,8.27
	c-1.15,1.14-2.65,1.71-4.14,1.71h-132.9c-3.23,0-5.85-2.62-5.85-5.85C930.16,725.6,930.83,724.13,931.91,723.04L931.91,723.04z
	 M1002.44,669.02l-52.36,52.37h104.72L1002.44,669.02z M1002.44,669.02" clip-rule="evenodd"/><path fill="#347e8f" fill-rule="evenodd" d="M1016.55,666.61l52.36,52.36l52.33-52.36H1016.55z M1064.78,731.36l-66.43-66.41
	c-1.06-1.09-1.75-2.53-1.75-4.19c0-3.23,2.62-5.82,5.85-5.82h132.91c1.51,0,2.99,0.54,4.13,1.69c2.29,2.29,2.29,5.99,0,8.26
	l-66.43,66.47C1070.75,733.62,1067.04,733.62,1064.78,731.36L1064.78,731.36z M1064.78,731.36" clip-rule="evenodd"/><path fill="#347e8f" fill-rule="evenodd" d="M1064.81,723.04l66.41-66.4c2.28-2.26,5.97-2.26,8.26,0l66.46,66.46c2.26,2.26,2.26,5.97,0,8.27
	c-1.14,1.14-2.65,1.71-4.13,1.71h-132.91c-3.23,0-5.84-2.62-5.84-5.85C1063.07,725.6,1063.73,724.13,1064.81,723.04L1064.81,723.04z
	 M1135.35,669.02l-52.36,52.37h104.72L1135.35,669.02z M1135.35,669.02" clip-rule="evenodd"/><path fill="#347e8f" fill-rule="evenodd" d="M1149.45,666.61l52.36,52.36l52.33-52.36H1149.45z M1197.69,731.36l-66.43-66.41
	c-1.06-1.09-1.75-2.53-1.75-4.19c0-3.23,2.62-5.82,5.85-5.82h132.9c1.51,0,2.99,0.54,4.14,1.69c2.28,2.29,2.28,5.99,0,8.26
	l-66.44,66.47C1203.65,733.62,1199.95,733.62,1197.69,731.36L1197.69,731.36z M1197.69,731.36" clip-rule="evenodd"/><path fill="#347e8f" fill-rule="evenodd" d="M1197.72,723.04l66.4-66.4c2.29-2.26,5.97-2.26,8.27,0l66.47,66.46c2.26,2.26,2.26,5.97,0,8.27
	c-1.15,1.14-2.66,1.71-4.13,1.71h-132.91c-3.22,0-5.85-2.62-5.85-5.85C1195.97,725.6,1196.63,724.13,1197.72,723.04L1197.72,723.04z
	 M1268.25,669.02l-52.36,52.37h104.73L1268.25,669.02z M1268.25,669.02" clip-rule="evenodd"/><path fill="#347e8f" fill-rule="evenodd" d="M1282.36,666.61l52.36,52.36l52.33-52.36H1282.36z M1330.59,731.36l-66.44-66.41
	c-1.08-1.09-1.74-2.53-1.74-4.19c0-3.23,2.61-5.82,5.84-5.82h132.91c1.5,0,2.99,0.54,4.13,1.69c2.29,2.29,2.29,5.99,0,8.26
	l-66.43,66.47C1336.56,733.62,1332.85,733.62,1330.59,731.36L1330.59,731.36z M1330.59,731.36" clip-rule="evenodd"/><path fill="#347e8f" fill-rule="evenodd" d="M1330.62,723.04l66.41-66.4c2.29-2.26,5.96-2.26,8.26,0l66.47,66.46c2.26,2.26,2.26,5.97,0,8.27
	c-1.15,1.14-2.65,1.71-4.14,1.71h-132.9c-3.23,0-5.85-2.62-5.85-5.85C1328.87,725.6,1329.54,724.13,1330.62,723.04L1330.62,723.04z
	 M1401.16,669.02l-52.36,52.37h104.72L1401.16,669.02z M1401.16,669.02" clip-rule="evenodd"/><path fill="#347e8f" fill-rule="evenodd" d="M1415.26,666.61l52.36,52.36l52.33-52.36H1415.26z M1463.46,731.36l-66.4-66.41
	c-1.09-1.09-1.75-2.53-1.75-4.19c0-3.23,2.62-5.82,5.85-5.82h132.9c1.51,0,2.98,0.54,4.13,1.69c2.29,2.29,2.29,5.99,0,8.26
	l-66.43,66.47C1469.46,733.62,1465.75,733.62,1463.46,731.36L1463.46,731.36z M1463.46,731.36" clip-rule="evenodd"/><path fill="#347e8f" fill-rule="evenodd" d="M1463.52,723.04l66.41-66.4c2.28-2.26,5.97-2.26,8.26,0l66.44,66.46c2.29,2.26,2.29,5.97,0,8.27
	c-1.11,1.14-2.62,1.71-4.13,1.71h-132.87c-3.25,0-5.84-2.62-5.84-5.85C1461.78,725.6,1462.44,724.13,1463.52,723.04L1463.52,723.04z
	 M1534.06,669.02l-52.36,52.37h104.72L1534.06,669.02z M1534.06,669.02" clip-rule="evenodd"/><path fill="#347e8f" fill-rule="evenodd" d="M1548.17,666.61l52.33,52.36l52.36-52.36H1548.17z M1596.36,731.36l-66.4-66.41
	c-1.09-1.09-1.75-2.53-1.75-4.19c0-3.23,2.62-5.82,5.85-5.82h132.9c1.51,0,2.99,0.54,4.14,1.69c2.28,2.29,2.28,5.99,0,8.26
	l-66.47,66.47C1602.36,733.62,1598.66,733.62,1596.36,731.36L1596.36,731.36z M1596.36,731.36" clip-rule="evenodd"/><path fill="#347e8f" fill-rule="evenodd" d="M1596.43,723.04l66.4-66.4c2.29-2.26,5.97-2.26,8.27,0l66.43,66.46c2.29,2.26,2.29,5.97,0,8.27
	c-1.12,1.14-2.62,1.71-4.13,1.71h-132.91c-3.23,0-5.82-2.62-5.82-5.85C1594.68,725.6,1595.34,724.13,1596.43,723.04L1596.43,723.04z
	 M1666.96,669.02l-52.36,52.37h104.73L1666.96,669.02z M1666.96,669.02" clip-rule="evenodd"/><path fill="#347e8f" fill-rule="evenodd" d="M1681.07,666.61l52.33,52.36l52.36-52.36H1681.07z M1729.27,731.36l-66.41-66.41
	c-1.08-1.09-1.74-2.53-1.74-4.19c0-3.23,2.61-5.82,5.84-5.82h132.91c1.5,0,2.99,0.54,4.13,1.69c2.29,2.29,2.29,5.99,0,8.26
	l-66.46,66.47C1735.27,733.62,1731.56,733.62,1729.27,731.36L1729.27,731.36z M1729.27,731.36" clip-rule="evenodd"/><path fill="#aec8e6" fill-rule="evenodd" d="M982.91,615.46h91.64c4.43,0,8.05,3.62,8.05,8.02v169.41c0,4.43-3.62,8.05-8.05,8.05h-91.64
	c-4.4,0-8.02-3.62-8.02-8.05V623.48C974.9,619.08,978.52,615.46,982.91,615.46L982.91,615.46z M982.91,615.46" clip-rule="evenodd"/><rect width="56.04" height="42.9" x="1011.73" y="637.1" fill="#599dad" fill-rule="evenodd" clip-rule="evenodd"/><rect width="76.69" height="21.01" x="992.32" y="734.16" fill="#599dad" fill-rule="evenodd" clip-rule="evenodd"/><path fill="#599dad" fill-rule="evenodd" d="M606.18,633h105.5c6.64,0,12.06,5.43,12.06,12.06v98.29c0,6.64-5.42,12.06-12.06,12.06h-17.38v36.17H637.7
	v-36.17h-31.52c-6.64,0-12.06-5.42-12.06-12.06v-98.29C594.12,638.43,599.54,633,606.18,633L606.18,633z M606.18,633" clip-rule="evenodd"/><rect width="12.9" height="86.84" x="723.74" y="650.94" fill="#aec8e6" fill-rule="evenodd" clip-rule="evenodd"/><path fill="#fff" fill-rule="evenodd" d="M1346.54,541.09c14.5-14.5,23.48-34.54,23.48-56.66c0-22.1-8.98-42.14-23.48-56.64
	c-14.5-14.5-34.52-23.45-56.64-23.45c-22.12,0-42.14,8.95-56.64,23.45c-14.5,14.5-23.48,34.54-23.48,56.64
	c0,22.12,8.98,42.16,23.48,56.66c14.5,14.47,34.52,23.45,56.64,23.45C1312.02,564.54,1332.03,555.56,1346.54,541.09L1346.54,541.09z
	 M1348.1,484.43c0,16.09-6.51,30.65-17.03,41.17c-10.55,10.56-25.11,17.06-41.18,17.06c-16.06,0-30.63-6.51-41.18-17.06
	c-10.52-10.52-17.03-25.08-17.03-41.17c0-16.07,6.51-30.63,17.03-41.15c10.55-10.55,25.11-17.05,41.18-17.05
	c16.07,0,30.63,6.51,41.18,17.05C1341.59,453.8,1348.1,468.35,1348.1,484.43L1348.1,484.43z M1348.1,484.43" clip-rule="evenodd"/><path fill="#fff" fill-rule="evenodd" d="M1465.66,533.56c-13.05,0-23.63,10.58-23.63,23.63c0,13.09,10.58,23.67,23.63,23.67
	c13.09,0,23.67-10.58,23.67-23.67C1489.33,544.14,1478.75,533.56,1465.66,533.56L1465.66,533.56z M1465.66,533.56" clip-rule="evenodd"/><path fill="#fff" fill-rule="evenodd" d="M1465.72,433.36c13.06,0,23.66-10.58,23.66-23.63c0-13.08-10.61-23.67-23.66-23.67
	c-13.05,0-23.63,10.59-23.63,23.67C1442.09,422.78,1452.67,433.36,1465.72,433.36L1465.72,433.36z M1465.72,433.36" clip-rule="evenodd"/><path fill="#eee5f4" fill-rule="evenodd" d="M1130.34,1356.06h31.65c3.26,0,5.91,2.65,5.91,5.9s-2.65,5.91-5.91,5.91h-31.65c-3.23,0-5.9-2.65-5.9-5.91
	S1127.11,1356.06,1130.34,1356.06L1130.34,1356.06z M1130.34,1356.06" clip-rule="evenodd"/><path fill="#b5453c" fill-rule="evenodd" d="M999.7,1131.22h272.2c19.66,0,40.39,20.74,40.39,40.36v463.58c0,19.62-16.12,38.86-35.74,38.86H996.62
	c-19.65,0-35.75-16.1-35.75-35.78v-471.26C960.87,1147.28,980.05,1131.22,999.7,1131.22L999.7,1131.22z M999.7,1131.22" clip-rule="evenodd"/><path fill="#f99746" fill-rule="evenodd" d="M996.62,1148.55h269.09c15.22,0,27.64,12.45,27.64,27.67v462.04c0,15.19-12.42,27.64-27.64,27.64H996.62
	c-15.22,0-27.67-12.45-27.67-27.64v-462.04C968.95,1161,981.41,1148.55,996.62,1148.55L996.62,1148.55z M996.62,1148.55" clip-rule="evenodd"/><path fill="#fff" fill-rule="evenodd" d="M1007.39,1312.68h52.84c3.71,0,6.75,3.04,6.75,6.75v14.74c0,3.7-3.04,6.75-6.75,6.75h-52.84
	c-3.74,0-6.78-3.05-6.78-6.75v-14.74C1000.61,1315.72,1003.65,1312.68,1007.39,1312.68L1007.39,1312.68z M1202.12,1312.68h52.85
	c3.7,0,6.75,3.04,6.75,6.75v14.74c0,3.7-3.05,6.75-6.75,6.75h-52.85c-3.7,0-6.75-3.05-6.75-6.75v-14.74
	C1195.36,1315.72,1198.41,1312.68,1202.12,1312.68L1202.12,1312.68z M1104.75,1312.68h52.85c3.7,0,6.75,3.04,6.75,6.75v14.74
	c0,3.7-3.05,6.75-6.75,6.75h-52.85c-3.71,0-6.75-3.05-6.75-6.75v-14.74C1098,1315.72,1101.04,1312.68,1104.75,1312.68
	L1104.75,1312.68z M1104.75,1312.68" clip-rule="evenodd"/><path fill="#fff" fill-rule="evenodd" d="M1203.84,1373.14h49.4c4.68,0,8.48,3.83,8.48,8.47v31.44c0,4.68-3.8,8.5-8.48,8.5h-49.4
	c-4.68,0-8.48-3.83-8.48-8.5v-31.44C1195.36,1376.98,1199.16,1373.14,1203.84,1373.14L1203.84,1373.14z M1009.08,1373.14h49.43
	c4.64,0,8.46,3.83,8.46,8.47v31.44c0,4.68-3.83,8.5-8.46,8.5h-49.43c-4.65,0-8.47-3.83-8.47-8.5v-31.44
	C1000.61,1376.98,1004.44,1373.14,1009.08,1373.14L1009.08,1373.14z M1106.48,1373.14h49.4c4.67,0,8.48,3.83,8.48,8.47v31.44
	c0,4.68-3.81,8.5-8.48,8.5h-49.4c-4.68,0-8.48-3.83-8.48-8.5v-31.44C1098,1376.98,1101.8,1373.14,1106.48,1373.14L1106.48,1373.14z
	 M1106.48,1373.14" clip-rule="evenodd"/><path fill="#fff" fill-rule="evenodd" d="M1203.84,1445.28h49.4c4.68,0,8.48,3.83,8.48,8.47v31.47c0,4.64-3.8,8.47-8.48,8.47h-49.4
	c-4.68,0-8.48-3.83-8.48-8.47v-31.47C1195.36,1449.11,1199.16,1445.28,1203.84,1445.28L1203.84,1445.28z M1009.08,1445.28h49.43
	c4.64,0,8.46,3.83,8.46,8.47v31.47c0,4.64-3.83,8.47-8.46,8.47h-49.43c-4.65,0-8.47-3.83-8.47-8.47v-31.47
	C1000.61,1449.11,1004.44,1445.28,1009.08,1445.28L1009.08,1445.28z M1106.48,1445.28h49.4c4.67,0,8.48,3.83,8.48,8.47v31.47
	c0,4.64-3.81,8.47-8.48,8.47h-49.4c-4.68,0-8.48-3.83-8.48-8.47v-31.47C1098,1449.11,1101.8,1445.28,1106.48,1445.28
	L1106.48,1445.28z M1106.48,1445.28" clip-rule="evenodd"/><path fill="#fff" fill-rule="evenodd" d="M1009.08,1517.45h49.43c4.64,0,8.46,3.8,8.46,8.47v31.45c0,4.64-3.83,8.47-8.46,8.47h-49.43
	c-4.65,0-8.47-3.83-8.47-8.47v-31.45C1000.61,1521.25,1004.44,1517.45,1009.08,1517.45L1009.08,1517.45z M1106.48,1517.45h49.4
	c4.67,0,8.48,3.8,8.48,8.47v31.45c0,4.64-3.81,8.47-8.48,8.47h-49.4c-4.68,0-8.48-3.83-8.48-8.47v-31.45
	C1098,1521.25,1101.8,1517.45,1106.48,1517.45L1106.48,1517.45z M1106.48,1517.45" clip-rule="evenodd"/><path fill="#fff" fill-rule="evenodd" d="M1203.84,1517.45h49.4c4.68,0,8.48,3.8,8.48,8.47v103.57c0,4.65-3.8,8.47-8.48,8.47h-49.4
	c-4.68,0-8.48-3.83-8.48-8.47v-103.57C1195.36,1521.25,1199.16,1517.45,1203.84,1517.45L1203.84,1517.45z M1009.08,1589.58h49.43
	c4.64,0,8.46,3.8,8.46,8.47v31.44c0,4.65-3.83,8.47-8.46,8.47h-49.43c-4.65,0-8.47-3.83-8.47-8.47v-31.44
	C1000.61,1593.38,1004.44,1589.58,1009.08,1589.58L1009.08,1589.58z M1106.48,1589.58h49.4c4.67,0,8.48,3.8,8.48,8.47v31.44
	c0,4.65-3.81,8.47-8.48,8.47h-49.4c-4.68,0-8.48-3.83-8.48-8.47v-31.44C1098,1593.38,1101.8,1589.58,1106.48,1589.58
	L1106.48,1589.58z M1106.48,1589.58" clip-rule="evenodd"/><path fill="#b5453c" fill-rule="evenodd" d="M983.12,1289.83h296.07v-113.61c0-7.42-6.06-13.47-13.47-13.47H996.59c-7.39,0-13.47,6.06-13.47,13.47V1289.83z
	 M983.12,1289.83" clip-rule="evenodd"/><path fill="#fff" fill-rule="evenodd" d="M1005.43,1202.63h251.16c2.56,0,4.67,2.11,4.67,4.7v35.48c0,2.56-2.11,4.67-4.67,4.67h-251.16
	c-2.56,0-4.68-2.11-4.68-4.67v-35.48C1000.75,1204.73,1002.87,1202.63,1005.43,1202.63L1005.43,1202.63z M1005.43,1202.63" clip-rule="evenodd"/><path fill="#f99746" fill-rule="evenodd" d="M1169.62,1211.64h76.11c1.09,0,1.99,0.9,1.99,2.02v22.82c0,1.11-0.9,2.01-1.99,2.01h-76.11
	c-1.11,0-2.02-0.9-2.02-2.01v-22.82C1167.6,1212.54,1168.51,1211.64,1169.62,1211.64L1169.62,1211.64z M1128.36,1211.64h21.7
	c1.06,0,1.9,0.84,1.9,1.9v23.03c0,1.06-0.84,1.93-1.9,1.93h-21.7c-1.06,0-1.91-0.87-1.91-1.93v-23.03
	C1126.45,1212.48,1127.3,1211.64,1128.36,1211.64L1128.36,1211.64z M1128.36,1211.64" clip-rule="evenodd"/><path fill="#347e8f" fill-rule="evenodd" d="M1563.36,1089.38l43.85-124.19l46.82,133.38l-93.85-0.24L1563.36,1089.38z M1607.18,985.86l-35.63,100.95
	l71.14,0.18L1607.18,985.86z M1607.18,985.86" clip-rule="evenodd"/><path fill="#ed852d" fill-rule="evenodd" d="M1607.13,1056.22c49.22,0,89.13,39.94,89.13,89.17c0,49.26-39.91,89.17-89.13,89.17
	c-49.25,0-89.17-39.91-89.17-89.17C1517.96,1096.16,1557.88,1056.22,1607.13,1056.22L1607.13,1056.22z M1607.13,1056.22" clip-rule="evenodd"/><path fill="#fff" fill-rule="evenodd" d="M1607.13,1069.36c41.99,0,76.02,34.03,76.02,76.03c0,41.99-34.03,76.02-76.02,76.02
	c-41.99,0-76.06-34.03-76.06-76.02C1531.07,1103.39,1565.14,1069.36,1607.13,1069.36L1607.13,1069.36z M1607.13,1069.36" clip-rule="evenodd"/><path fill="#f19c16" fill-rule="evenodd" d="M1607.13,1074.61c39.09,0,70.77,31.68,70.77,70.78c0,39.09-31.68,70.78-70.77,70.78
	c-39.1,0-70.81-31.68-70.81-70.78C1536.32,1106.28,1568.03,1074.61,1607.13,1074.61L1607.13,1074.61z M1607.13,1074.61" clip-rule="evenodd"/><path fill="#fff" fill-rule="evenodd" d="M1628.65,1108.88c-3.65-1.87-8.81-3.73-15.83-3.94v-11.64h-10.77v12.51c-11.64,2.62-18.57,10.97-18.57,21.73
	c0,11.1,7.59,16.79,18.24,21.85c10.1,4.41,13.72,8.02,13.72,13.63c0,5.49-3.83,9.77-11.73,9.77c-6.93,0-13.41-2.42-17.7-4.95
	l-3.28,12.3c4.16,2.41,11.3,4.61,18.33,4.82v12.54h10.77v-13.42c12.42-2.41,19.66-11.42,19.66-22.6c0-11.43-5.91-17.58-18.88-23.39
	c-8.68-4.28-13.41-7.36-13.41-12.42c0-4.28,3.74-8.77,11.09-8.77c6.39,0,11.75,2.29,15.04,3.95L1628.65,1108.88z M1628.65,1108.88" clip-rule="evenodd"/><path fill="#fff" fill-rule="evenodd" d="M691.7,988.22c2.92,0,5.73,0.48,8.29,1.35c-0.27-1.35-0.43-2.74-0.43-4.16c0-12.15,10.58-22,23.61-22
	c2.32,0,4.55,0.3,6.66,0.87c3.29-15.56,17.7-27.28,34.93-27.28c19.72,0,35.69,15.26,35.69,34.09c0,3.23-0.48,6.36-1.35,9.34
	c12.87,0.84,23.03,9.92,23.03,21.58c0,11.69-11.18,20.97-18.06,22.9c-1.02,0.31-2.44,0.28-4.1,0H691.7
	c-12.18,0-22.04-8.2-22.04-18.35C669.66,996.44,679.51,988.22,691.7,988.22L691.7,988.22z M691.7,988.22" clip-rule="evenodd"/><path fill="#fff" fill-rule="evenodd" d="M1164.68,873c2.92,0,5.73,0.45,8.29,1.33c-0.27-1.33-0.42-2.72-0.42-4.13c0-12.18,10.55-22.04,23.6-22.04
	c2.29,0,4.52,0.3,6.63,0.9c3.32-15.58,17.7-27.31,34.97-27.31c19.72,0,35.66,15.29,35.66,34.09c0,3.26-0.44,6.37-1.35,9.35
	c12.9,0.88,23.03,9.92,23.03,21.61c0,11.67-11.15,20.98-18.03,22.91c-1.03,0.27-2.44,0.27-4.1,0h-108.28
	c-12.19,0-22.04-8.23-22.04-18.36C1142.64,881.2,1152.5,873,1164.68,873L1164.68,873z M1164.68,873" clip-rule="evenodd"/><path fill="#fff" fill-rule="evenodd" d="M1398.89,993.97c2.92,0,5.73,0.48,8.29,1.36c-0.27-1.36-0.42-2.75-0.42-4.17c0-12.15,10.58-22.03,23.6-22.03
	c2.32,0,4.55,0.33,6.67,0.9c3.28-15.58,17.7-27.28,34.97-27.28c19.68,0,35.66,15.25,35.66,34.09c0,3.23-0.49,6.36-1.36,9.31
	c12.87,0.87,23.03,9.92,23.03,21.61c0,11.69-11.18,20.98-18.05,22.91c-1.02,0.27-2.45,0.27-4.08,0h-108.3
	c-12.15,0-22.03-8.23-22.03-18.36C1376.86,1002.2,1386.75,993.97,1398.89,993.97L1398.89,993.97z M1398.89,993.97" clip-rule="evenodd"/></svg>