<svg xmlns="http://www.w3.org/2000/svg" data-name="Layer 1" viewBox="0 0 1159 771"><defs><clipPath id="a"><path fill="#2847e0" d="M608.8,149.05c-117.17,67.61-202.49,49-312.12,47.54-94.24-1.27-166.15,72.64-184,135C60.38,514.78,240.54,658.52,474.93,679.75,833,712.19,1177.81,490.73,1013,214.67,933.74,81.81,792.45,43.07,608.8,149.05Z"/></clipPath><clipPath id="b"><path fill="none" d="M343.84,439H650c4.41,0,8-4,8-8.88V263.07c0-4.9-3.58-8.88-8-8.88H343.84c-4.4,0-8,4-8,8.88V430.15C335.86,435.05,339.44,439,343.84,439Z"/></clipPath><clipPath id="c"><path fill="none" d="M719.87,644.86S746.74,428.5,783,397.59s188.14-40.31,216.36,16.13S938.91,576.33,951,644.86s25.53,176-102.13,180.08S658.7,816.36,650,771.18C635.2,694.58,663.43,661,719.87,644.86Z"/></clipPath><clipPath id="d"><path fill="none" d="M764.61,377.24c10.18-3.54,15.7-5.15,24.69-6.37,15.74-14.25,6.77-38.32,8.78-39.45,10.65-6,45.21-25.59,45.21-25.59s-5,50.3,5.09,69.73c23.68,8.45,36.34,22.15,36.34,22.15-25.83-7.1-122.25,24.43-123.39,26.55S764.61,377.24,764.61,377.24Z"/></clipPath><clipPath id="e"><path fill="none" d="M762.34,386c-5.52-4.12-14.27-4-19.74-.17-6.85,4.77-12.61,14.77-17.37,24.94-13.62,29.08-52.85,133.72-52.85,133.72s23.48,9.29,29,40.65c0,0,46.75-49,62.73-122.65C773.18,420.52,775.49,395.84,762.34,386Z"/></clipPath><clipPath id="f"><path fill="none" d="M750.31,673.16s-1.89,13.46,4.72,17.68,52.07,6.38,73.6,4.34S888,682.43,888,682.43l-7.87-22.19S808.86,687.23,750.31,673.16Z"/></clipPath><clipPath id="g"><path fill="none" d="M887.08,391.11a104.28,104.28,0,0,0-35.19-17.84c-3.56,7.1-13.81,14.28-28.29,17.59-18.82,4.3-35.7.63-37.72-8.18-1-4.32,1.69-7.85,7-12.08-15.75,2-17.17,1-37.3,7-6,1.79-12.67,5.66-15.14,11.41-2.75,6.38-7.81,23.95-11.38,36.8a99,99,0,0,1-10,23.56c-7.85,13.44-18.5,40,.77,64.21,6.37,8,12.72,48.78,10.41,71.34-2.75,26.94-15.06,65-15.06,65,39.4,63.79,166.53,14.63,166.53,14.63s-12.37-36.21-13.58-73.6c-.5-15.46,13.38-75.05,13.37-75.06,10.71-34.77,11.72-90.08,14.21-105.78C896.89,402.63,893.06,395.8,887.08,391.11Z"/></clipPath><clipPath id="h"><path fill="none" d="M682,586.41s-20.63-2.43-62.64,16.41a32.51,32.51,0,0,0-6.77,4.06c-2.8,2.18-7,5.07-6.93,5.21-1.84,2.39.44,4.63,3,5.64a168,168,0,0,0-17.62,11c-2.4,1.79-5.68,7.13-2.16,7.88,2.63.56,7.81-2,11.53-4.14a51.33,51.33,0,0,1,10.84-4.62l2.86-.85a8.38,8.38,0,0,0,1.25.25c-3.95,3.34-16.88,14.56-16.27,17.88,1.34,7.45,21-7.67,28.94-11.4l.69-.08c-4,2.37-18.62,11.55-14.82,14.28,3.15,2.26,22.81-7.29,33.58-12.82,24.43-12.25,36.26-24.8,38.46-27.85C694.4,595.6,690.06,587.88,682,586.41Z"/></clipPath><clipPath id="i"><path fill="none" d="M673.63,587.23c23.45-9.77,49.6-18.89,76.47-38.25,37.28-26.86,75.66-44.7,79-13.05,4.86,46.39-64.1,50.81-142.43,75.17-8.67,2.69-24.8,6.76-29.9-.78C653.79,605.94,667.69,591,673.63,587.23Z"/></clipPath><clipPath id="j"><path fill="none" d="M883.55,389.91a12.36,12.36,0,0,1,7.91,6.28c4,7.85,8.08,26.83-8.64,66.16-14,33-26.62,55.59-38.31,73.32-8.91,13.54-31.36,19.93-40.44,6.52-9.43-13.92,6.39-62.18,34.25-115.78C850,403.88,864.35,384.9,883.55,389.91Z"/></clipPath><clipPath id="l"><path fill="none" d="M421.15,602.89H637.3a5,5,0,0,0,4.88-6.46L604,469a5.08,5.08,0,0,0-4.88-3.6H383a5,5,0,0,0-4.87,6.46l38.2,127.39A5.07,5.07,0,0,0,421.15,602.89Z"/></clipPath><clipPath id="m"><path fill="none" d="M339.37,642.28c29,0,52.5-27.81,52.5-62.11h-105C286.87,614.47,310.37,642.28,339.37,642.28Z" clip-rule="evenodd"/></clipPath><clipPath id="n"><polygon fill="none" points="342.04 224.53 320.07 209.81 342.1 240.51 364.51 209.74 342.04 224.53"/></clipPath><clipPath id="o"><polygon fill="none" points="342.17 166.57 319.99 202.34 342.04 218.98 364.58 202.27 342.17 166.57"/></clipPath><clipPath id="p"><path fill="none" d="M541.4,287.39H823.14a7.54,7.54,0,0,0,7.34-7.73V134.36a7.54,7.54,0,0,0-7.34-7.72H541.4a7.54,7.54,0,0,0-7.35,7.72v145.3A7.55,7.55,0,0,0,541.4,287.39Z"/></clipPath><linearGradient id="k" x1="1056.34" x2="1121.55" y1="818.69" y2="713.21" gradientTransform="matrix(-.89 -.64 -.78 .77 2429.86 542.03)" gradientUnits="userSpaceOnUse"><stop offset="0" stop-color="#fff" stop-opacity="0"/><stop offset="1" stop-color="#fff"/></linearGradient></defs><path fill="#2847e0" d="M608.8,149.05c-117.17,67.61-202.49,49-312.12,47.54-94.24-1.27-166.15,72.64-184,135C60.38,514.78,240.54,658.52,474.93,679.75,833,712.19,1177.81,490.73,1013,214.67,933.74,81.81,792.45,43.07,608.8,149.05Z"/><g clip-path="url(#a)"><path fill="#fefefb" d="M648.75,527.66l-4.5-2a15.72,15.72,0,0,0-1.12-5.29c-.17-.42-.37-.82-.57-1.21l3.21-3.81a.81.81,0,0,0,0-1l-2-2.58a.77.77,0,0,0-1-.21L638.26,514a15.18,15.18,0,0,0-5.85-2.77l-.93-5a.79.79,0,0,0-.78-.66h-3.23a.8.8,0,0,0-.78.66l-.93,5a14.65,14.65,0,0,0-2.49.79,14.81,14.81,0,0,0-3.58,2.15l-4.12-2.21a.79.79,0,0,0-1,.21l-2,2.58a.81.81,0,0,0,0,1l3,3.53a15.86,15.86,0,0,0-1.66,7.16L610,528.15a.83.83,0,0,0-.46.92l.72,3.22a.8.8,0,0,0,.8.63l4.2-.16a15.3,15.3,0,0,0,4.76,6l-1,4a.8.8,0,0,0,.42.93l2.92,1.44a.8.8,0,0,0,1-.25l2.45-3.39a14.68,14.68,0,0,0,7.52-.23l2.47,3.4a.78.78,0,0,0,1,.25l2.92-1.43a.83.83,0,0,0,.42-.94L639,538.1a15.44,15.44,0,0,0,4.16-5.84l4.58.17a.8.8,0,0,0,.8-.63l.72-3.22A.82.82,0,0,0,648.75,527.66Zm-27.87,2.12a9.16,9.16,0,0,1,4.81-11.85,8.83,8.83,0,0,1,11.6,4.91,9.14,9.14,0,0,1-4.81,11.84A8.83,8.83,0,0,1,620.88,529.78Z"/><path fill="#fefefb" d="M1064.21,328.76l-5.33-2.38a18.74,18.74,0,0,0-1.34-6.26c-.2-.5-.43-1-.67-1.44l3.81-4.52a1,1,0,0,0,0-1.22l-2.39-3.05a.92.92,0,0,0-1.17-.25l-5.37,2.88a18,18,0,0,0-6.92-3.28l-1.1-5.89a1,1,0,0,0-.93-.78H1039a.94.94,0,0,0-.92.78l-1.1,5.88a18,18,0,0,0-3,.94,17.8,17.8,0,0,0-4.25,2.56l-4.87-2.62a.94.94,0,0,0-1.18.24l-2.39,3.06a1,1,0,0,0,0,1.22l3.52,4.19a18.69,18.69,0,0,0-2,8.47l-4.58,2a.94.94,0,0,0-.54,1.09l.85,3.81a.93.93,0,0,0,1,.74l5-.18a18.14,18.14,0,0,0,5.64,7.1l-1.22,4.67a1,1,0,0,0,.5,1.11l3.45,1.7a1,1,0,0,0,1.17-.3l2.9-4a17.57,17.57,0,0,0,8.92-.27l2.92,4a.92.92,0,0,0,1.16.3l3.45-1.7a1,1,0,0,0,.5-1.11l-1.36-5.19a18.43,18.43,0,0,0,4.94-6.92l5.41.2a.94.94,0,0,0,1-.74l.86-3.81A1,1,0,0,0,1064.21,328.76Zm-33,2.5a10.83,10.83,0,0,1,5.69-14,10.47,10.47,0,0,1,13.75,5.81,10.84,10.84,0,0,1-5.7,14A10.45,10.45,0,0,1,1031.19,331.26Z"/><path fill="#fefefb" d="M480.43,597.31l-5.33-2.38a18.55,18.55,0,0,0-1.34-6.26c-.2-.49-.43-1-.66-1.43l3.8-4.52a1,1,0,0,0,0-1.22l-2.39-3.06a.93.93,0,0,0-1.17-.25L468,581.08a17.91,17.91,0,0,0-6.92-3.29l-1.1-5.88a.93.93,0,0,0-.92-.78h-3.84a.93.93,0,0,0-.92.78l-1.1,5.88a17,17,0,0,0-7.19,3.49l-4.88-2.62a.93.93,0,0,0-1.17.25L437.56,582a1,1,0,0,0,0,1.22l3.53,4.18a18.73,18.73,0,0,0-2,8.48l-4.59,2A1,1,0,0,0,434,599l.85,3.81a1,1,0,0,0,.95.75l5-.19a18.23,18.23,0,0,0,5.64,7.1l-1.22,4.67a1,1,0,0,0,.5,1.11l3.46,1.7a.92.92,0,0,0,1.16-.29l2.91-4a17.53,17.53,0,0,0,8.91-.28l2.92,4a.92.92,0,0,0,1.16.29l3.46-1.7a1,1,0,0,0,.49-1.11l-1.35-5.18a18.55,18.55,0,0,0,4.93-6.93l5.42.2a.93.93,0,0,0,.95-.74l.85-3.81A1,1,0,0,0,480.43,597.31Zm-33,2.5a10.82,10.82,0,0,1,5.69-14,10.46,10.46,0,0,1,13.75,5.81,10.82,10.82,0,0,1-5.69,14A10.46,10.46,0,0,1,447.41,599.81Z"/><path fill="#fefefb" d="M335.54,282.4l-4.47-2a15.72,15.72,0,0,0-1.11-5.24c-.17-.42-.36-.81-.56-1.2l3.18-3.79a.8.8,0,0,0,0-1l-2-2.56a.77.77,0,0,0-1-.21l-4.5,2.42a15.09,15.09,0,0,0-5.8-2.76l-.92-4.93a.79.79,0,0,0-.77-.65h-3.21a.8.8,0,0,0-.78.65l-.92,4.93a14.17,14.17,0,0,0-2.47.79,14.84,14.84,0,0,0-3.56,2.14l-4.08-2.2a.77.77,0,0,0-1,.21l-2,2.56a.83.83,0,0,0,0,1l3,3.51a15.63,15.63,0,0,0-1.65,7.1l-3.85,1.71a.83.83,0,0,0-.45.92l.72,3.19a.77.77,0,0,0,.79.62l4.17-.15a15,15,0,0,0,4.72,5.94l-1,3.92a.81.81,0,0,0,.42.93l2.89,1.42a.77.77,0,0,0,1-.25l2.44-3.35a14.82,14.82,0,0,0,7.47-.23l2.44,3.37a.78.78,0,0,0,1,.24l2.89-1.42a.81.81,0,0,0,.42-.93l-1.14-4.34a15.41,15.41,0,0,0,4.13-5.8l4.54.16a.78.78,0,0,0,.8-.62l.71-3.19A.79.79,0,0,0,335.54,282.4Zm-27.66,2.09a9.07,9.07,0,0,1,4.77-11.75,8.76,8.76,0,0,1,11.51,4.87,9.07,9.07,0,0,1-4.77,11.75A8.75,8.75,0,0,1,307.88,284.49Z"/><path fill="#feb532" d="M678,615s-2.9-9.56-5-12c-1.81-2.07-7.78-5.59-7.78-5.59s6.11-2.88,7.94-4.85c2.4-2.6,5.37-13.1,5.37-13.1s2.75,10.74,5.07,13.5c1.76,2.1,7.38,5.59,7.38,5.59s-5.67,2.91-7.55,4.85C681.16,605.69,678,615,678,615Z"/><path fill="#fefefb" d="M194.91,461.4l-4.16-2.11a15,15,0,0,0-.82-5c-.14-.41-.31-.79-.48-1.17l3.21-3.46a.77.77,0,0,0,.07-1l-1.79-2.53a.75.75,0,0,0-.93-.25L185.62,448a14.47,14.47,0,0,0-5.39-2.89l-.65-4.74a.75.75,0,0,0-.71-.65l-3.05-.15a.75.75,0,0,0-.77.58l-1.11,4.65a13.82,13.82,0,0,0-2.39.63,14.22,14.22,0,0,0-3.48,1.88L164.28,445a.75.75,0,0,0-.95.16l-2,2.34a.78.78,0,0,0,0,1l2.65,3.47a15.09,15.09,0,0,0-1.91,6.69l-3.74,1.45a.78.78,0,0,0-.47.85l.53,3.07a.76.76,0,0,0,.73.63l4,.05a14.48,14.48,0,0,0,4.23,5.88l-1.16,3.68a.78.78,0,0,0,.35.91l2.69,1.48a.73.73,0,0,0,.94-.19l2.48-3.08a14,14,0,0,0,7.12.13l2.17,3.32a.73.73,0,0,0,.92.28l2.82-1.21A.77.77,0,0,0,186,475l-.88-4.19a14.71,14.71,0,0,0,4.2-5.33l4.32.37a.74.74,0,0,0,.78-.55l.83-3A.76.76,0,0,0,194.91,461.4Zm-26.44.7a8.64,8.64,0,0,1,5.09-11,8.35,8.35,0,0,1,10.74,5.17,8.66,8.66,0,0,1-5.09,11A8.36,8.36,0,0,1,168.47,462.1Z"/><rect width="2.72" height="17.33" x="260.69" y="473.4" fill="#feb532" rx="1.2"/><rect width="2.72" height="17.33" x="260.69" y="499.61" fill="#feb532" rx="1.2"/><path fill="#feb532" d="M264.88,492.28h0a1.09,1.09,0,0,1,.24-1.66l13.61-9.2a1.51,1.51,0,0,1,1.91.2h0a1.08,1.08,0,0,1-.24,1.65l-13.61,9.21A1.51,1.51,0,0,1,264.88,492.28Z"/><path fill="#feb532" d="M258.59,492.28h0a1.08,1.08,0,0,0-.23-1.66l-13.61-9.2a1.51,1.51,0,0,0-1.91.2h0a1.08,1.08,0,0,0,.24,1.65l13.61,9.21A1.5,1.5,0,0,0,258.59,492.28Z"/><path fill="#feb532" d="M281.41,507.71h0a1.09,1.09,0,0,0-.24-1.66l-13.61-9.2a1.51,1.51,0,0,0-1.91.2h0a1.08,1.08,0,0,0,.24,1.65l13.61,9.21A1.51,1.51,0,0,0,281.41,507.71Z"/><path fill="#feb532" d="M243.39,506.81h0a1.08,1.08,0,0,1,.23-1.65L257.24,496a1.5,1.5,0,0,1,1.9.21h0a1.07,1.07,0,0,1-.23,1.65L245.3,507A1.51,1.51,0,0,1,243.39,506.81Z"/><rect width="2.34" height="14.93" x="1028.03" y="412.28" fill="#feb532" rx="1.02"/><rect width="2.34" height="14.93" x="1028.03" y="434.87" fill="#feb532" rx="1.02"/><path fill="#feb532" d="M1031.65,428.54h0a.93.93,0,0,1,.2-1.42l11.73-7.93a1.3,1.3,0,0,1,1.65.17h0a.94.94,0,0,1-.21,1.43l-11.73,7.93A1.3,1.3,0,0,1,1031.65,428.54Z"/><path fill="#feb532" d="M1026.23,428.54h0a.92.92,0,0,0-.2-1.42l-11.73-7.93a1.3,1.3,0,0,0-1.65.17h0a.94.94,0,0,0,.21,1.43l11.73,7.93A1.3,1.3,0,0,0,1026.23,428.54Z"/><path fill="#feb532" d="M1045.89,441.84h0a.92.92,0,0,0-.2-1.42L1034,432.48a1.31,1.31,0,0,0-1.65.18h0a.93.93,0,0,0,.21,1.42l11.73,7.94A1.3,1.3,0,0,0,1045.89,441.84Z"/><path fill="#feb532" d="M1013.13,441.07h0a.92.92,0,0,1,.2-1.42l11.73-7.94a1.3,1.3,0,0,1,1.64.18h0a.92.92,0,0,1-.2,1.42l-11.73,7.94A1.3,1.3,0,0,1,1013.13,441.07Z"/><path fill="#feb532" d="M920.49,164.7h0a1,1,0,0,1-1-1v-11a1,1,0,0,1,1-1h0a1,1,0,0,1,1,1v11A1,1,0,0,1,920.49,164.7Z"/><path fill="#feb532" d="M920.49,184.45h0a1,1,0,0,1-1-1v-11a1,1,0,0,1,1-1h0a1,1,0,0,1,1,1v11A1,1,0,0,1,920.49,184.45Z"/><path fill="#feb532" d="M922.63,165.87h0a.81.81,0,0,1,.18-1.25l10.25-6.94a1.13,1.13,0,0,1,1.44.16h0a.8.8,0,0,1-.18,1.24L924.06,166A1.13,1.13,0,0,1,922.63,165.87Z"/><path fill="#feb532" d="M917.89,165.87h0a.81.81,0,0,0-.18-1.25l-10.26-6.94a1.12,1.12,0,0,0-1.43.16h0a.8.8,0,0,0,.18,1.24L916.45,166A1.15,1.15,0,0,0,917.89,165.87Z"/><path fill="#feb532" d="M935.08,177.49h0a.8.8,0,0,0-.18-1.24l-10.25-6.94a1.14,1.14,0,0,0-1.44.15h0a.81.81,0,0,0,.18,1.25l10.25,6.94A1.13,1.13,0,0,0,935.08,177.49Z"/><path fill="#feb532" d="M906.43,176.82h0a.83.83,0,0,1,.18-1.25l10.26-6.93a1.13,1.13,0,0,1,1.43.15h0a.82.82,0,0,1-.17,1.25L907.87,177A1.13,1.13,0,0,1,906.43,176.82Z"/><path fill="#feb532" d="M185.57,284.72h0a1,1,0,0,1-1-1v-11a1,1,0,0,1,1-1h0a1,1,0,0,1,1,1v11A1,1,0,0,1,185.57,284.72Z"/><path fill="#feb532" d="M185.57,304.47h0a1,1,0,0,1-1-1v-11a1,1,0,0,1,1-1h0a1,1,0,0,1,1,1v11A1,1,0,0,1,185.57,304.47Z"/><path fill="#feb532" d="M187.71,285.89h0a.81.81,0,0,1,.18-1.25l10.26-6.94a1.12,1.12,0,0,1,1.43.16h0a.8.8,0,0,1-.18,1.24L189.15,286A1.15,1.15,0,0,1,187.71,285.89Z"/><path fill="#feb532" d="M183,285.89h0a.81.81,0,0,0-.18-1.25l-10.25-6.94a1.13,1.13,0,0,0-1.44.16h0a.8.8,0,0,0,.18,1.24L181.54,286A1.13,1.13,0,0,0,183,285.89Z"/><path fill="#feb532" d="M200.16,297.51h0a.81.81,0,0,0-.17-1.24l-10.26-6.94a1.15,1.15,0,0,0-1.44.15h0a.82.82,0,0,0,.18,1.25l10.26,6.94A1.12,1.12,0,0,0,200.16,297.51Z"/><path fill="#feb532" d="M171.51,296.84h0a.82.82,0,0,1,.18-1.25L182,288.66a1.15,1.15,0,0,1,1.44.15h0a.82.82,0,0,1-.18,1.25L173,297A1.15,1.15,0,0,1,171.51,296.84Z"/><path fill="#feb532" d="M729,344.62h0a1,1,0,0,1-1-1v-11a1,1,0,0,1,1-1h0a1,1,0,0,1,1,1v11A1,1,0,0,1,729,344.62Z"/><path fill="#feb532" d="M729,364.37h0a1,1,0,0,1-1-1v-11a1,1,0,0,1,1-1h0a1,1,0,0,1,1,1v11A1,1,0,0,1,729,364.37Z"/><path fill="#feb532" d="M731.09,345.79h0a.82.82,0,0,1,.18-1.25l10.26-6.94a1.12,1.12,0,0,1,1.43.16h0a.81.81,0,0,1-.17,1.24l-10.26,6.94A1.15,1.15,0,0,1,731.09,345.79Z"/><path fill="#feb532" d="M726.35,345.79h0a.82.82,0,0,0-.17-1.25l-10.26-6.94a1.14,1.14,0,0,0-1.44.16h0a.81.81,0,0,0,.18,1.24l10.26,6.94A1.13,1.13,0,0,0,726.35,345.79Z"/><path fill="#feb532" d="M743.55,357.41h0a.81.81,0,0,0-.18-1.24l-10.26-6.94a1.14,1.14,0,0,0-1.44.16h0a.81.81,0,0,0,.18,1.24l10.26,6.94A1.14,1.14,0,0,0,743.55,357.41Z"/><path fill="#feb532" d="M714.9,356.74h0a.81.81,0,0,1,.17-1.24l10.26-6.94a1.15,1.15,0,0,1,1.44.15h0a.82.82,0,0,1-.18,1.25l-10.26,6.94A1.12,1.12,0,0,1,714.9,356.74Z"/><rect width="2.52" height="16.1" x="746.87" y="125.41" fill="#feb532" rx="1.2"/><rect width="2.52" height="16.1" x="746.87" y="149.76" fill="#feb532" rx="1.2"/><path fill="#feb532" d="M750.77,143h0a1,1,0,0,1,.22-1.54l12.64-8.55a1.4,1.4,0,0,1,1.77.19h0a1,1,0,0,1-.22,1.54l-12.64,8.55A1.4,1.4,0,0,1,750.77,143Z"/><path fill="#feb532" d="M744.93,143h0a1,1,0,0,0-.22-1.54l-12.65-8.55a1.41,1.41,0,0,0-1.77.19h0a1,1,0,0,0,.22,1.54l12.65,8.55A1.41,1.41,0,0,0,744.93,143Z"/><path fill="#feb532" d="M766.12,157.28h0a1,1,0,0,0-.22-1.53l-12.64-8.56a1.42,1.42,0,0,0-1.78.19h0a1,1,0,0,0,.22,1.54l12.65,8.55A1.39,1.39,0,0,0,766.12,157.28Z"/><path fill="#feb532" d="M730.8,156.45h0a1,1,0,0,1,.22-1.53l12.65-8.56a1.41,1.41,0,0,1,1.77.19h0a1,1,0,0,1-.22,1.54l-12.65,8.55A1.39,1.39,0,0,1,730.8,156.45Z"/><path fill="#feb532" d="M957,306.56s-2.9-9.57-5-12c-1.8-2.07-7.78-5.58-7.78-5.58s6.12-2.88,7.95-4.86c2.4-2.6,5.37-13.1,5.37-13.1s2.75,10.74,5.07,13.5c1.76,2.1,7.38,5.59,7.38,5.59s-5.67,2.92-7.55,4.85C960.19,297.24,957,306.56,957,306.56Z"/><path fill="#feb532" d="M953.58,561.21s-2.9-9.56-5.05-12c-1.8-2.07-7.78-5.59-7.78-5.59s6.12-2.88,8-4.85c2.4-2.6,5.37-13.1,5.37-13.1s2.75,10.73,5.07,13.5c1.76,2.1,7.38,5.58,7.38,5.58s-5.67,2.92-7.55,4.86C956.74,551.89,953.58,561.21,953.58,561.21Z"/><path fill="#feb532" d="M222,227.76s-2.9-9.56-5.05-12c-1.8-2.07-7.78-5.59-7.78-5.59s6.12-2.87,8-4.85c2.4-2.6,5.37-13.1,5.37-13.1s2.75,10.74,5.07,13.5c1.76,2.1,7.38,5.59,7.38,5.59s-5.67,2.91-7.55,4.85C225.15,218.44,222,227.76,222,227.76Z"/><path fill="#feb532" d="M720.91,444.12s-2.9-9.56-5-12c-1.81-2.07-7.78-5.59-7.78-5.59s6.11-2.87,7.94-4.85c2.4-2.6,5.37-13.1,5.37-13.1s2.75,10.74,5.07,13.5c1.76,2.1,7.38,5.59,7.38,5.59s-5.67,2.92-7.55,4.85C724.08,434.8,720.91,444.12,720.91,444.12Z"/><path fill="#feb532" d="M128.59,403.28s-2.9-9.56-5-12c-1.81-2.07-7.78-5.59-7.78-5.59s6.11-2.88,7.94-4.85c2.4-2.6,5.37-13.1,5.37-13.1s2.75,10.74,5.07,13.5c1.76,2.1,7.38,5.58,7.38,5.58s-5.67,2.92-7.55,4.86C131.76,394,128.59,403.28,128.59,403.28Z"/><path fill="#feb532" d="M503.66,245.72s-2.91-9.56-5.05-12c-1.8-2.07-7.78-5.59-7.78-5.59s6.12-2.88,7.95-4.86c2.4-2.59,5.37-13.09,5.37-13.09s2.75,10.73,5.07,13.5c1.76,2.1,7.38,5.58,7.38,5.58s-5.68,2.92-7.55,4.86C506.82,236.4,503.66,245.72,503.66,245.72Z"/><path fill="#fff" d="M349.41,528.58v-6.77a1.51,1.51,0,0,0-1-1.41,9.42,9.42,0,0,1-4.35-2.84,7.94,7.94,0,0,1-1.71-5.15,7.29,7.29,0,0,1,1.93-5.16,7.89,7.89,0,0,1,5.16-2.41V503h2.72v1.85a8.08,8.08,0,0,1,4.73,2,7.39,7.39,0,0,1,1.78,2.73,1.5,1.5,0,0,1-1.22,2l-1.82.24a1.46,1.46,0,0,1-1.53-.85,3.55,3.55,0,0,0-1.94-2v6.21a1.5,1.5,0,0,0,1.07,1.42,10.77,10.77,0,0,1,5.05,2.84,7.49,7.49,0,0,1,1.62,5,8.3,8.3,0,0,1-2.05,5.71,8.51,8.51,0,0,1-4.52,2.62,1.48,1.48,0,0,0-1.17,1.42v2.31h-2.72v-2.17a1.52,1.52,0,0,0-1.22-1.46,8.2,8.2,0,0,1-4-2.2,9,9,0,0,1-2.22-4,1.51,1.51,0,0,1,1.28-1.89l2-.22a1.44,1.44,0,0,1,1.52.89,5.33,5.33,0,0,0,.84,1.56A5.17,5.17,0,0,0,349.41,528.58Zm0-19.66a3.56,3.56,0,0,0-1.76,1.28,3.33,3.33,0,0,0-.65,2,3.11,3.11,0,0,0,.6,1.84,4.14,4.14,0,0,0,1.81,1.38Zm2.72,19.92a3.87,3.87,0,0,0,2.28-1.3,3.64,3.64,0,0,0,.88-2.44,3.36,3.36,0,0,0-.74-2.17,4.72,4.72,0,0,0-2.42-1.39Z"/><path fill="#fff" d="M489.28,439.88v-6.76a1.49,1.49,0,0,0-1-1.41,9.61,9.61,0,0,1-4.35-2.84,8,8,0,0,1-1.71-5.16,7.28,7.28,0,0,1,1.94-5.16,7.79,7.79,0,0,1,5.15-2.4v-1.86H492v1.86a8,8,0,0,1,4.73,2,7.23,7.23,0,0,1,1.78,2.73,1.49,1.49,0,0,1-1.22,2l-1.82.24a1.46,1.46,0,0,1-1.53-.84,3.56,3.56,0,0,0-1.94-2v6.22a1.51,1.51,0,0,0,1.07,1.42,10.77,10.77,0,0,1,5.05,2.84,7.47,7.47,0,0,1,1.63,5,8.33,8.33,0,0,1-2.05,5.7,8.51,8.51,0,0,1-4.53,2.62,1.49,1.49,0,0,0-1.17,1.42v2.31h-2.72v-2.16a1.51,1.51,0,0,0-1.22-1.46,8.41,8.41,0,0,1-4-2.2,9,9,0,0,1-2.21-4,1.5,1.5,0,0,1,1.27-1.89l2-.21a1.44,1.44,0,0,1,1.52.89,5.59,5.59,0,0,0,.84,1.56A5.13,5.13,0,0,0,489.28,439.88Zm0-19.65a3.55,3.55,0,0,0-1.76,1.27,3.33,3.33,0,0,0-.65,2,3.14,3.14,0,0,0,.6,1.85,4.05,4.05,0,0,0,1.81,1.37ZM492,440.14a3.77,3.77,0,0,0,2.28-1.3,3.62,3.62,0,0,0,.88-2.44,3.31,3.31,0,0,0-.74-2.16,4.72,4.72,0,0,0-2.42-1.4Z"/><path fill="#fff" d="M702.58,303.16V296.4a1.51,1.51,0,0,0-1-1.41,9.53,9.53,0,0,1-4.35-2.84,8,8,0,0,1-1.71-5.16,7.3,7.3,0,0,1,1.94-5.15,7.8,7.8,0,0,1,5.15-2.41v-1.85h2.72v1.85a8.08,8.08,0,0,1,4.73,2,7.12,7.12,0,0,1,1.78,2.73,1.5,1.5,0,0,1-1.22,2l-1.82.23a1.42,1.42,0,0,1-1.52-.84,3.59,3.59,0,0,0-2-2v6.21a1.51,1.51,0,0,0,1.07,1.42,10.71,10.71,0,0,1,5,2.84,7.49,7.49,0,0,1,1.63,5,8.35,8.35,0,0,1-2,5.71,8.58,8.58,0,0,1-4.53,2.62,1.47,1.47,0,0,0-1.17,1.42v2.3h-2.72V308.9a1.52,1.52,0,0,0-1.22-1.46,8.33,8.33,0,0,1-4-2.2,9,9,0,0,1-2.21-4,1.49,1.49,0,0,1,1.28-1.89l2-.22a1.44,1.44,0,0,1,1.52.89,5.84,5.84,0,0,0,.84,1.56A5,5,0,0,0,702.58,303.16Zm0-19.65a3.61,3.61,0,0,0-1.76,1.27,3.36,3.36,0,0,0-.65,2,3.13,3.13,0,0,0,.6,1.84,4.14,4.14,0,0,0,1.81,1.38Zm2.72,19.92a3.87,3.87,0,0,0,2.28-1.3,3.67,3.67,0,0,0,.88-2.45,3.35,3.35,0,0,0-.74-2.16,4.72,4.72,0,0,0-2.42-1.39Z"/><path fill="#fff" d="M849,143.88v-6.76a1.51,1.51,0,0,0-1-1.41,9.5,9.5,0,0,1-4.35-2.84,7.93,7.93,0,0,1-1.72-5.16,7.32,7.32,0,0,1,1.94-5.16,7.79,7.79,0,0,1,5.16-2.4v-1.86h2.71v1.86a8,8,0,0,1,4.74,2,7.1,7.1,0,0,1,1.77,2.73,1.48,1.48,0,0,1-1.21,2l-1.83.24a1.44,1.44,0,0,1-1.52-.84,3.61,3.61,0,0,0-2-2v6.22a1.52,1.52,0,0,0,1.07,1.42,10.71,10.71,0,0,1,5,2.84,7.42,7.42,0,0,1,1.63,5,8.28,8.28,0,0,1-2,5.7,8.51,8.51,0,0,1-4.53,2.62,1.49,1.49,0,0,0-1.17,1.42v2.31H849v-2.17a1.52,1.52,0,0,0-1.23-1.45,8.38,8.38,0,0,1-4-2.2,8.9,8.9,0,0,1-2.22-4,1.5,1.5,0,0,1,1.28-1.89l2-.21a1.43,1.43,0,0,1,1.51.89,6.16,6.16,0,0,0,.84,1.56A5.08,5.08,0,0,0,849,143.88Zm0-19.65a3.46,3.46,0,0,0-1.76,1.27,3.27,3.27,0,0,0-.66,2,3.14,3.14,0,0,0,.6,1.85A4.09,4.09,0,0,0,849,130.7Zm2.71,19.91a3.71,3.71,0,0,0,2.28-1.3,3.62,3.62,0,0,0,.88-2.44,3.3,3.3,0,0,0-.73-2.16,4.8,4.8,0,0,0-2.43-1.4Z"/><path fill="#fff" d="M991.09,232.48v-6.77a1.5,1.5,0,0,0-1-1.4,9.51,9.51,0,0,1-4.35-2.85,7.94,7.94,0,0,1-1.71-5.15,7.29,7.29,0,0,1,1.93-5.16,7.79,7.79,0,0,1,5.16-2.4v-1.86h2.71v1.86a8,8,0,0,1,4.74,2,7.23,7.23,0,0,1,1.78,2.73,1.49,1.49,0,0,1-1.22,2l-1.83.24a1.44,1.44,0,0,1-1.52-.85,3.62,3.62,0,0,0-2-2v6.22a1.49,1.49,0,0,0,1.08,1.41,10.81,10.81,0,0,1,5,2.84,7.44,7.44,0,0,1,1.63,5,8.29,8.29,0,0,1-2,5.71,8.59,8.59,0,0,1-4.52,2.62,1.49,1.49,0,0,0-1.18,1.42v2.31h-2.71v-2.17a1.53,1.53,0,0,0-1.22-1.46,8.27,8.27,0,0,1-4-2.19,8.9,8.9,0,0,1-2.22-4,1.5,1.5,0,0,1,1.28-1.89l2-.21a1.42,1.42,0,0,1,1.51.88,6.06,6.06,0,0,0,.84,1.57A5.26,5.26,0,0,0,991.09,232.48Zm0-19.65a3.5,3.5,0,0,0-1.76,1.27,3.27,3.27,0,0,0-.66,2,3.16,3.16,0,0,0,.6,1.85,4.23,4.23,0,0,0,1.82,1.37Zm2.71,19.91a3.81,3.81,0,0,0,2.29-1.3A3.69,3.69,0,0,0,997,229a3.31,3.31,0,0,0-.74-2.16,4.76,4.76,0,0,0-2.43-1.4Z"/><path fill="#fff" d="M939.66,384.91v-6.77a1.51,1.51,0,0,0-1-1.41,9.53,9.53,0,0,1-4.35-2.84,7.94,7.94,0,0,1-1.71-5.15,7.3,7.3,0,0,1,1.94-5.16,7.85,7.85,0,0,1,5.15-2.41v-1.85h2.72v1.85a8.08,8.08,0,0,1,4.73,2,7.39,7.39,0,0,1,1.78,2.73,1.49,1.49,0,0,1-1.22,2l-1.82.24a1.44,1.44,0,0,1-1.52-.85,3.62,3.62,0,0,0-2-2v6.22a1.5,1.5,0,0,0,1.07,1.41,10.77,10.77,0,0,1,5,2.84,7.49,7.49,0,0,1,1.63,5,8.35,8.35,0,0,1-2,5.71,8.58,8.58,0,0,1-4.53,2.62,1.48,1.48,0,0,0-1.17,1.42v2.31h-2.72v-2.17a1.52,1.52,0,0,0-1.22-1.46,8.25,8.25,0,0,1-4-2.2,8.89,8.89,0,0,1-2.21-4,1.5,1.5,0,0,1,1.28-1.89l2-.22a1.45,1.45,0,0,1,1.52.89,5.84,5.84,0,0,0,.84,1.56A5.17,5.17,0,0,0,939.66,384.91Zm0-19.66a3.56,3.56,0,0,0-1.76,1.28,3.33,3.33,0,0,0-.65,2,3.16,3.16,0,0,0,.6,1.85,4.2,4.2,0,0,0,1.81,1.37Zm2.72,19.92a3.87,3.87,0,0,0,2.28-1.3,3.64,3.64,0,0,0,.88-2.44,3.36,3.36,0,0,0-.74-2.17,4.72,4.72,0,0,0-2.42-1.39Z"/><path fill="#fff" d="M239.63,361.15v-6.77a1.53,1.53,0,0,0-1-1.41,9.42,9.42,0,0,1-4.35-2.84,7.92,7.92,0,0,1-1.72-5.16,7.3,7.3,0,0,1,1.94-5.15,7.8,7.8,0,0,1,5.16-2.41v-1.85h2.71v1.85a8.11,8.11,0,0,1,4.74,2,7.25,7.25,0,0,1,1.77,2.73,1.49,1.49,0,0,1-1.21,2l-1.83.23a1.43,1.43,0,0,1-1.52-.84,3.59,3.59,0,0,0-1.95-2v6.21a1.51,1.51,0,0,0,1.07,1.42,10.71,10.71,0,0,1,5.05,2.84,7.44,7.44,0,0,1,1.63,5A8.3,8.3,0,0,1,248,362.7a8.58,8.58,0,0,1-4.53,2.62,1.47,1.47,0,0,0-1.17,1.42V369h-2.71v-2.16a1.53,1.53,0,0,0-1.23-1.46,8.22,8.22,0,0,1-4-2.2,8.81,8.81,0,0,1-2.22-4,1.5,1.5,0,0,1,1.28-1.89l2-.22A1.43,1.43,0,0,1,237,358a5.84,5.84,0,0,0,.84,1.56A5.11,5.11,0,0,0,239.63,361.15Zm0-19.66a3.48,3.48,0,0,0-1.76,1.28,3.25,3.25,0,0,0-.66,2,3.11,3.11,0,0,0,.6,1.84,4.17,4.17,0,0,0,1.82,1.38Zm2.71,19.92a3.87,3.87,0,0,0,2.29-1.3,3.71,3.71,0,0,0,.87-2.45,3.34,3.34,0,0,0-.73-2.16,4.79,4.79,0,0,0-2.43-1.39Z"/><path fill="#fff" d="M206.7,587.28v-6.77a1.53,1.53,0,0,0-1-1.41,9.42,9.42,0,0,1-4.35-2.84,7.94,7.94,0,0,1-1.71-5.16,7.29,7.29,0,0,1,1.93-5.15,7.83,7.83,0,0,1,5.16-2.41v-1.85h2.71v1.85a8.08,8.08,0,0,1,4.74,2,7.39,7.39,0,0,1,1.78,2.73,1.5,1.5,0,0,1-1.22,2l-1.83.23a1.44,1.44,0,0,1-1.52-.84,3.56,3.56,0,0,0-2-2v6.21a1.51,1.51,0,0,0,1.08,1.42,10.72,10.72,0,0,1,5,2.84,7.44,7.44,0,0,1,1.63,5,8.3,8.3,0,0,1-2,5.71,8.55,8.55,0,0,1-4.52,2.62,1.48,1.48,0,0,0-1.18,1.42v2.3H206.7V593a1.52,1.52,0,0,0-1.22-1.46,8.2,8.2,0,0,1-4-2.2,9,9,0,0,1-2.22-4,1.5,1.5,0,0,1,1.28-1.89l2-.22a1.43,1.43,0,0,1,1.51.89,5.6,5.6,0,0,0,.85,1.56A5.17,5.17,0,0,0,206.7,587.28Zm0-19.66a3.52,3.52,0,0,0-1.76,1.28,3.24,3.24,0,0,0-.65,2,3.17,3.17,0,0,0,.59,1.84,4.17,4.17,0,0,0,1.82,1.38Zm2.71,19.92a3.87,3.87,0,0,0,2.29-1.3,3.72,3.72,0,0,0,.88-2.45,3.35,3.35,0,0,0-.74-2.16,4.71,4.71,0,0,0-2.43-1.39Z"/><path fill="#14296c" d="M659.92,262.1H353.72c-4.41,0-8,4-8,8.88V438.06c0,4.9,3.58,8.88,8,8.88H609.94L629,477l3.27-30.06h27.69c4.41,0,8-4,8-8.88V271C667.9,266.08,664.33,262.1,659.92,262.1Z"/><path fill="#fff" d="M650,254.19H343.84c-4.4,0-8,4-8,8.88V430.15c0,4.9,3.58,8.88,8,8.88H600.07l19,30.06L622.36,439H650c4.41,0,8-4,8-8.88V263.07C658,258.17,654.45,254.19,650,254.19Z"/><g clip-path="url(#b)"><rect width="364.46" height="79.26" x="312.42" y="203.57" fill="#ac7adb"/><path fill="#fdfdfd" d="M358,269.21a4.93,4.93,0,1,1-4.93-4.82A4.88,4.88,0,0,1,358,269.21Z"/><path fill="#fdfdfd" d="M373.76,269.21a4.92,4.92,0,1,1-4.92-4.82A4.87,4.87,0,0,1,373.76,269.21Z"/><path fill="#fdfdfd" d="M389.49,269.21a4.92,4.92,0,1,1-4.92-4.82A4.87,4.87,0,0,1,389.49,269.21Z"/><path fill="#fdfefd" d="M639.91,275.71a.44.44,0,0,1-.3-.14l-9.75-10.85a.53.53,0,0,1,0-.67.4.4,0,0,1,.6,0l9.75,10.85a.5.5,0,0,1,0,.67A.41.41,0,0,1,639.91,275.71Z"/><path fill="#fdfefd" d="M630.16,275.71a.42.42,0,0,1-.3-.14.53.53,0,0,1,0-.67l9.75-10.85a.4.4,0,0,1,.6,0,.5.5,0,0,1,0,.67l-9.75,10.85A.41.41,0,0,1,630.16,275.71Z"/></g><path fill="#72b8f7" d="M497.9,349.06c-50.63,34.28-34,67.26-54.76,58.09s-29.57-70.3-20.27-91.3,33.63-30.59,54.35-21.42S516.85,336.24,497.9,349.06Z"/><path fill="#ac7adb" d="M542.77,373.93c7.53,18.8,3.07,38.44-10,43.87S484.13,426,476.6,407.19s15.89-52,28.92-57.47S535.23,355.13,542.77,373.93Z"/><path fill="#feb532" d="M554.09,320.6c4.42,10.64,4.61,24.1-2.12,27.32-1.85.88-5.41.3-14.57-1.49-17.83-3.48-20.12-5.73-21.86-7.58-6-6.35-6.31-18-1.09-26.2.88-1.39,8-8.92,17.39-9.58C543,302.28,551.07,313.33,554.09,320.6Z"/><path fill="#14296c" d="M675.72,433.2H597.5A22.4,22.4,0,0,1,574.92,411h0a22.4,22.4,0,0,1,22.58-22.21h78.22A22.4,22.4,0,0,1,698.3,411h0A22.4,22.4,0,0,1,675.72,433.2Z"/><path fill="#feb532" d="M672.08,428.62H593.86a22.4,22.4,0,0,1-22.58-22.21h0a22.39,22.39,0,0,1,22.58-22.2h78.22a22.39,22.39,0,0,1,22.58,22.2h0A22.4,22.4,0,0,1,672.08,428.62Z"/><path fill="#fff" d="M601.57,394.66h7c3.25,0,5.59.46,7,1.39a4.85,4.85,0,0,1,2.17,4.41,5.27,5.27,0,0,1-1.06,3.38,4.79,4.79,0,0,1-3.07,1.7v.16a6.09,6.09,0,0,1,3.65,1.82,5.41,5.41,0,0,1,1.17,3.67,5.9,5.9,0,0,1-2.21,4.89,9.67,9.67,0,0,1-6.18,1.77h-8.52Zm3.86,9.58h3.71a6.49,6.49,0,0,0,3.54-.75,2.89,2.89,0,0,0,1.11-2.57,2.55,2.55,0,0,0-1.2-2.36,7.6,7.6,0,0,0-3.82-.73h-3.34Zm0,3.08v7.34h4.1a6.08,6.08,0,0,0,3.65-.91,3.33,3.33,0,0,0,1.24-2.88,3,3,0,0,0-1.26-2.68,6.76,6.76,0,0,0-3.82-.87Z"/><path fill="#fff" d="M641.88,394.66v15a8.73,8.73,0,0,1-1.12,4.49,7.41,7.41,0,0,1-3.24,3,11.51,11.51,0,0,1-5.08,1,9.59,9.59,0,0,1-6.82-2.28,8.2,8.2,0,0,1-2.44-6.29V394.66h3.87v14.67a5.82,5.82,0,0,0,1.36,4.24,5.63,5.63,0,0,0,4.16,1.36c3.64,0,5.46-1.87,5.46-5.63V394.66Z"/><path fill="#fff" d="M654.58,405.24l5.59-10.58h4.19l-7.86,14.2v9h-3.87V409l-7.83-14.32H649Z"/><path fill="#feb532" d="M719.87,644.86S746.74,428.5,783,397.59s188.14-40.31,216.36,16.13S938.91,576.33,951,644.86s25.53,176-102.13,180.08S658.7,816.36,650,771.18C635.2,694.58,663.43,661,719.87,644.86Z"/><g clip-path="url(#c)"><path fill="#fd823f" d="M686.78,610.3S713.66,393.94,749.94,363s188.14-40.32,216.36,16.12S905.83,541.76,917.92,610.3s25.54,176-102.13,180.07-190.17-8.58-198.89-53.75C602.12,660,630.34,626.42,686.78,610.3Z"/></g><path fill="#e0d8f7" d="M846.8,369.67s.74-8.16-3.37-9S846.8,369.67,846.8,369.67Z"/><path fill="#ea4e70" d="M833.63,214.27a46.38,46.38,0,0,1,33.62-6.82C887,211,895.69,230.6,898.72,236.06s14.86,18.93,16.82,34c3.11,24-8.48,60.19-15,84.43-5.78,21.58,16.94,22.89,21.33,23.95,0,0-51.44,18.46-64-7.39-13.66-28.15.37-36.76-10.95-47.46S802.89,228.61,833.63,214.27Z"/><path fill="#f8bbc2" d="M764.61,377.24c10.18-3.54,15.7-5.15,24.69-6.37,15.74-14.25,6.77-38.32,8.78-39.45,10.65-6,45.21-25.59,45.21-25.59s-5,50.3,5.09,69.73c23.68,8.45,36.34,22.15,36.34,22.15-25.83-7.1-122.25,24.43-123.39,26.55S764.61,377.24,764.61,377.24Z"/><g clip-path="url(#d)"><path fill="#e88d92" d="M790.72,345.46s19.67-2,35.39-6.83a7.52,7.52,0,0,1,9.72,6.47c1,11,3.66,27.55,10.18,29.76,9.88,3.35,22-2.45,22-2.45s-13.48-53.34-15.58-76.72c-1.46-16.28-49.14,5.59-66.78,24.68C777.91,328.71,790.72,345.46,790.72,345.46Z"/></g><path fill="#f8c098" d="M568.47,608.57c-8.33-.6-27.68-9.71-34.89-9.56-3.61.13-10.14,3.16-13.18,4.67-9-.1-22.66,5.79-27.32,8.34s-11.39,5-13.13,9a2.54,2.54,0,0,0,.88,3.07c1.72,1.12,4.94,2.53,8,.21,3.73-2.82,16.59-6,25.41-7.56-7.31,2.45-15.88,5.48-21.22,7.88-10.8,4.86-8.27,8-8.27,8,.79,1.52,3.86,2.17,11.26.62-2.47,1.45-3.86,2.83-3.48,4,0,0,1.26,3.9,10.78,3.18,4.45-.34,12.23-1.22,19.87-2.43a34.77,34.77,0,0,1-4,1.87c-3.08,1.17-7.83,3-9.93,3.73,0,0-4.05-1-6.74.71a1.58,1.58,0,0,0-.19,2.3,15.39,15.39,0,0,0,8.72,4.15c7.92.67,19.69-3.89,25-5.81,17-3.21,21.8-9.22,36.56-12.63C587.89,628.82,576.81,609.17,568.47,608.57Z"/><path fill="#e88d92" d="M568.47,608.57c-8.33-.6-27.68-9.71-34.89-9.56-3.61.13-10.14,3.16-13.18,4.67-9-.1-22.66,5.79-27.32,8.34s-11.39,5-13.13,9a2.54,2.54,0,0,0,.88,3.07c1.72,1.12,4.94,2.53,8,.21,3.73-2.82,16.59-6,25.41-7.56-7.31,2.45-15.88,5.48-21.22,7.88-10.8,4.86-8.27,8-8.27,8,.79,1.52,3.86,2.17,11.26.62-2.47,1.45-3.86,2.83-3.48,4,0,0,1.26,3.9,10.78,3.18,4.45-.34,12.23-1.22,19.87-2.43a34.77,34.77,0,0,1-4,1.87c-3.08,1.17-7.83,3-9.93,3.73,0,0-4.05-1-6.74.71a1.58,1.58,0,0,0-.19,2.3,15.39,15.39,0,0,0,8.72,4.15c7.92.67,19.69-3.89,25-5.81,17-3.21,21.8-9.22,36.56-12.63C587.89,628.82,576.81,609.17,568.47,608.57Z"/><path fill="#f2b1bb" d="M500.24,605.61,513.07,600a3,3,0,0,1,.81-.25c3.55-.59,17.37-3,21.17-2.5,2.85.35,26.73,8.77,30.31,10.66,4.4,2.32,5,24.74,5,24.74s-21.17,8.67-25.32,10.1c-2.76.95-10.57-15.09-11.28-28.08-7,.81-14.35-3.8-19.38-5.48-7.65,3.4-11,3.47-14.6-1.16A1.59,1.59,0,0,1,500.24,605.61Z"/><path fill="#f2b1bb" d="M711,567.36c-10.88,31.83-65,44.48-85.93,49.68-17.48,4.33-33.77,11.06-59.8,16.77-9.92,2.18-25.62-27.86-9.36-29.17,15-1.2,45.79-10.37,67.7-26.17a515.31,515.31,0,0,0,55-36.63C696.17,528.72,718.56,545.28,711,567.36Z"/><path fill="#72b8f7" d="M762.34,386c-5.52-4.12-14.27-4-19.74-.17-6.85,4.77-12.61,14.77-17.37,24.94-13.62,29.08-52.85,133.72-52.85,133.72s23.48,9.29,29,40.65c0,0,46.75-49,62.73-122.65C773.18,420.52,775.49,395.84,762.34,386Z"/><g clip-path="url(#e)"><path fill="#3087e8" d="M710.79,542.39c-6.27,28-35.31-15.84-50.29,1.54-5.4,6.27-24,111.59,48.82,65.16s38.21-217.5,38.21-217.5-13.46,18.55-22.84,64.75C718.39,487.42,716.24,518,710.79,542.39Z"/></g><path fill="#fdfdfd" d="M750.31,673.16s1.18,17.48-9.82,14.21-18.23-10.42-27.62-28.8l5.4-18.14S730.29,669.89,750.31,673.16Z"/><path fill="#fdfdfd" d="M750.31,673.16s-1.89,13.46,4.72,17.68,52.07,6.38,73.6,4.34S888,682.43,888,682.43l-7.87-22.19S808.86,687.23,750.31,673.16Z"/><g clip-path="url(#f)"><path fill="#e0eaff" d="M890.82,460.8s-16.89,35.17-29.6,70.41-13.8,77.4,9.16,139.57,20.44,83.91,20.44,83.91S921.15,722,921.47,705.1s-4.93-212.91-4.93-212.91Z"/></g><path fill="#72b8f7" d="M887.08,391.11a104.28,104.28,0,0,0-35.19-17.84c-3.56,7.1-13.81,14.28-28.29,17.59-18.82,4.3-35.7.63-37.72-8.18-1-4.32,1.69-7.85,7-12.08-15.75,2-17.17,1-37.3,7-6,1.79-12.67,5.66-15.14,11.41-2.75,6.38-7.81,23.95-11.38,36.8a99,99,0,0,1-10,23.56c-7.85,13.44-18.5,40,.77,64.21,6.37,8,12.72,48.78,10.41,71.34-2.75,26.94-15.06,65-15.06,65,39.4,63.79,166.53,14.63,166.53,14.63s-12.37-36.21-13.58-73.6c-.5-15.46,13.38-75.05,13.37-75.06,10.71-34.77,11.72-90.08,14.21-105.78C896.89,402.63,893.06,395.8,887.08,391.11Z"/><g clip-path="url(#g)"><path fill="#8ac9f9" d="M782.56,359.61s-35.26,51.91-32,75.35c1.26,9.05,4.43,26.75,44.12,24s40.7-3.39,48.83,17.29-6,77.28-6.73,91.68C830.25,704.64,728,704.64,728,704.64L694.68,629.5s31-106.54,10.06-129.81S675.21,476.6,693,429.13c35.52-95,73.24-74.23,73.24-74.23Z"/><path fill="#3087e8" d="M890.82,460.8s-16.89,35.17-29.6,70.41-13.8,77.4,9.16,139.57,20.44,83.91,20.44,83.91S921.15,722,921.47,705.1s-4.93-212.91-4.93-212.91Z"/></g><path fill="#fdfdfd" d="M846,363s-15.23,18.4-33.81,22.67c-5.43,1.25-11.54,5.83-12.32,11.34l-.6,3.89s4.47-9.43,12-8.4c2.84.39,4.91,14.59,4.91,14.59s40.29-14.25,39.32-32A59.74,59.74,0,0,1,846,363Z"/><path fill="#fdfdfd" d="M795.22,362.48s-8,17.9-.21,24.31c6.55,5.42,1.13,13.17,1.13,13.17s-.29-10.15-6.4-9.74-8.55,7.83-8.55,7.83-5.53-9.76-1.71-19.53a20.57,20.57,0,0,1,5.49-7.47S794.58,364.16,795.22,362.48Z"/><path fill="#e88d92" d="M618.76,605a8.39,8.39,0,0,0-5.46,1.58c-5.88,4.24-20.55,14.78-23,16-3.07,1.56.16,4.83,6.23,3.89s22.16-12.81,22.16-12.81l9.32-8.1Z"/><path fill="#f8bbc2" d="M682,586.41s-20.63-2.43-62.63,16.41a33,33,0,0,0-6.78,4c-2.8,2.18-7,5.08-6.93,5.22-1.84,2.39.44,4.63,3,5.64a168,168,0,0,0-17.62,11c-2.4,1.79-5.68,7.13-2.16,7.88,2.64.56,7.81-2,11.53-4.14a50.82,50.82,0,0,1,10.84-4.62l2.86-.85a8.38,8.38,0,0,0,1.25.25c-3.95,3.34-16.88,14.56-16.27,17.88,1.34,7.45,21-7.67,28.94-11.4l.69-.08c-4,2.37-18.62,11.55-14.82,14.28,3.16,2.26,22.81-7.29,33.59-12.82,24.42-12.25,36.25-24.8,38.45-27.85C694.4,595.6,690.06,587.88,682,586.41Z"/><g clip-path="url(#h)"><path fill="#e88d92" d="M696.57,601.5c-11.91,4.4-21.44,8.24-26.32,10.87-14.86,8-46.15,36.63-56.32,35.56s-.24,16.15,7.2,15.36c5.93-.63,49.6-18.48,67.15-25.72C690.74,626.9,693.68,614.16,696.57,601.5Z"/></g><path fill="#f8bbc2" d="M673.63,587.23c23.45-9.77,49.6-18.89,76.47-38.25,37.28-26.86,75.66-44.7,79-13.05,4.86,46.39-64.1,50.81-142.43,75.17-8.67,2.69-24.8,6.76-29.9-.78C653.79,605.94,667.69,591,673.63,587.23Z"/><g clip-path="url(#i)"><path fill="#e88d92" d="M830.91,514.61S834,559,781,572.83c-38.72,10.11-95.86,31.51-110.73,39.54S624.1,649,613.93,647.93s-.24,16.15,7.2,15.36,74.44-28.75,74.44-28.75l109.12-27.39s55.33-55.88,53-58.5S830.91,514.61,830.91,514.61Z"/></g><path fill="#72b8f7" d="M888.08,391.51s19.53,15.9-4.36,72.1c-14,32.95-44.16,74.53-57.83,91.85-4.48,5.67-17.06-7.42-29.14-15.84-8.37-5.84-14.61-6.7-13.84-11.25,2.21-13.07,27.55-48.36,55.41-102C850.94,402.15,866.57,382,888.08,391.51Z"/><g clip-path="url(#j)"><path fill="url(#k)" d="M876.9,380.5c10.6-6.66,24.87.45,22.4,11.23-3.1,13.52-22,33-49.25,81.92-14.61,26.24-32,10.74-22-20C835.1,432,851.74,396.29,876.9,380.5Z" opacity=".4"/></g><rect width="790.62" height="23.46" x="130.82" y="646.99" fill="#c66231"/><polygon fill="#c66231" points="819.71 1053.23 806.66 1055.37 742.64 649.13 755.69 646.99 819.71 1053.23"/><polygon fill="#c66231" points="209.8 1060.37 222.85 1062.5 286.87 656.26 273.82 654.13 209.8 1060.37"/><path fill="#011135" d="M424.86,602.89H641a5,5,0,0,0,4.87-6.46L607.69,469a5.08,5.08,0,0,0-4.88-3.6H386.66a5,5,0,0,0-4.87,6.46L420,599.29A5.08,5.08,0,0,0,424.86,602.89Z"/><path fill="#dcdde2" d="M421.15,602.89H637.3a5,5,0,0,0,4.88-6.46L604,469a5.08,5.08,0,0,0-4.88-3.6H383a5,5,0,0,0-4.87,6.46l38.2,127.39A5.07,5.07,0,0,0,421.15,602.89Z"/><g clip-path="url(#l)"><polygon fill="#14296c" points="565.42 441.19 333.81 453.73 381.57 618.15 478.95 618.15 594.21 453.73 565.42 441.19" opacity=".25"/></g><path fill="#14296c" d="M546.64,582.75l-1.44-5.29a2.58,2.58,0,0,0-2.5-1.9H489.88a2.57,2.57,0,0,0-2.51,3.23l1.07,4c9.36,34.64-9.34,56.61-9.34,56.61a3.16,3.16,0,0,0,3,4.1h35.59c1.4,0,11-1.13,11.43-2.44C529.17,641,549.22,624.26,546.64,582.75Z"/><path fill="#14296c" d="M632.48,647h-231a1.48,1.48,0,0,1-1.47-2l2.15-8a2.81,2.81,0,0,1,2.55-2H635.72a1.48,1.48,0,0,1,1.47,2L635,645A2.8,2.8,0,0,1,632.48,647Z"/><path fill="#feb532" fill-rule="evenodd" d="M351.33,647.32H327.41c-7.67,0-13.89-7.09-13.89-15.85h51.7C365.22,640.23,359,647.32,351.33,647.32Z"/><path fill="#ff5f18" d="M388.46,623.66a15.81,15.81,0,0,1-6.72-1.53c-8.95-4.25-13.21-16-9.49-26.22s14-15.06,23-10.83a18.87,18.87,0,0,1,9.5,10.86,22.49,22.49,0,0,1,0,15.35C401.92,619,395.36,623.66,388.46,623.66Zm0-30.56a9.3,9.3,0,0,0-8.52,6.47c-1.94,5.35.29,11.51,5,13.73s10.09-.32,12-5.67h0a11.81,11.81,0,0,0,0-8,9.92,9.92,0,0,0-5-5.69A8.13,8.13,0,0,0,388.5,593.1Z"/><path fill="#feb532" d="M388.46,623.66a15.81,15.81,0,0,1-6.72-1.53c-8.95-4.25-13.21-16-9.49-26.22s14-15.06,23-10.83a18.87,18.87,0,0,1,9.5,10.86,22.49,22.49,0,0,1,0,15.35C401.92,619,395.36,623.66,388.46,623.66Zm0-30.56a9.3,9.3,0,0,0-8.52,6.47c-1.94,5.35.29,11.51,5,13.73s10.09-.32,12-5.67h0a11.81,11.81,0,0,0,0-8,9.92,9.92,0,0,0-5-5.69A8.13,8.13,0,0,0,388.5,593.1Z"/><path fill="#f9d55a" fill-rule="evenodd" d="M339.37,642.28c29,0,52.5-27.81,52.5-62.11h-105C286.87,614.47,310.37,642.28,339.37,642.28Z"/><g clip-path="url(#m)"><path fill="#fff" d="M353.56,602.72a1.16,1.16,0,0,1-1.08-1.23V578.9a1.09,1.09,0,1,1,2.16,0v22.59A1.17,1.17,0,0,1,353.56,602.72Z"/><path fill="#fff" fill-rule="evenodd" d="M359.85,619.18H347.26a.5.5,0,0,1-.51-.5V599.9a2.82,2.82,0,0,1,2.82-2.82h8a2.82,2.82,0,0,1,2.82,2.82v18.78A.5.5,0,0,1,359.85,619.18Z"/><path fill="#feb532" fill-rule="evenodd" d="M364.11,632.84c-27.4,0-50.46-22.69-57.33-53.55h-22c0,35.91,23.8,65,53.17,65,11.29,0,21.73-4.33,30.34-11.67C366.9,632.76,365.52,632.84,364.11,632.84Z"/></g></g><path fill="#14296c" d="M245.38,155.31h181a4.94,4.94,0,0,1,4.72,5.13v96.5a4.94,4.94,0,0,1-4.72,5.13H274.91l-11.24,17.36-1.93-17.36H245.38a4.94,4.94,0,0,1-4.72-5.13v-96.5A4.94,4.94,0,0,1,245.38,155.31Z"/><path fill="#ff6378" d="M251.21,150.74h181a4.94,4.94,0,0,1,4.72,5.13v96.5a4.94,4.94,0,0,1-4.72,5.13H280.75l-11.24,17.36-1.93-17.36H251.21a4.94,4.94,0,0,1-4.72-5.13v-96.5A4.94,4.94,0,0,1,251.21,150.74Z"/><circle cx="342.29" cy="203.54" r="44.29" fill="#fff" transform="rotate(-18.56 342.391 203.575)"/><polygon fill="#2c49a2" points="320.07 209.81 342.04 224.53 364.51 209.74 341.8 201.66 320.07 209.81"/><polygon fill="#2c49a2" points="320.07 209.81 342.04 224.53 364.51 209.74 341.8 201.66 320.07 209.81" opacity=".8"/><polygon fill="#72b8f7" points="342.04 224.53 320.07 209.81 342.1 240.51 364.51 209.74 342.04 224.53"/><g clip-path="url(#n)"><polygon fill="#3087e8" points="342.59 159.9 342.46 160.12 342.07 244.83 351.89 244.87 376.76 206.33 342.59 159.9" opacity=".8"/></g><polygon fill="#72b8f7" points="342.17 166.57 319.99 202.34 342.04 218.98 364.58 202.27 342.17 166.57"/><g clip-path="url(#o)"><polygon fill="#3087e8" points="342.59 159.9 342.46 160.12 342.07 244.83 351.89 244.87 376.76 206.33 342.59 159.9" opacity=".8"/></g><path fill="#14296c" d="M832.22,133.52H550.48a7.54,7.54,0,0,0-7.34,7.72v145.3a7.54,7.54,0,0,0,7.34,7.73H786.24l17.5,26.14,3-26.14h25.48a7.55,7.55,0,0,0,7.35-7.73V141.24A7.54,7.54,0,0,0,832.22,133.52Z"/><path fill="#72b8f7" d="M822.84,125.71H541.1a7.54,7.54,0,0,0-7.35,7.72v145.3a7.54,7.54,0,0,0,7.35,7.72H776.86l17.49,26.15,3-26.15h25.48a7.53,7.53,0,0,0,7.34-7.72V133.43A7.54,7.54,0,0,0,822.84,125.71Z"/><g clip-path="url(#p)"><rect width="335.34" height="68.93" x="512.48" y="82.62" fill="#fd823f"/><path fill="#fdfdfd" d="M553.36,139.7a4,4,0,1,1-4-4.19A4.08,4.08,0,0,1,553.36,139.7Z"/><path fill="#fdfdfd" d="M566.11,139.7a4,4,0,1,1-4-4.19A4.09,4.09,0,0,1,566.11,139.7Z"/><path fill="#fdfdfd" d="M578.86,139.7a4,4,0,1,1-4-4.19A4.09,4.09,0,0,1,578.86,139.7Z"/><path fill="#fdfefd" d="M813.81,145.35a.36.36,0,0,1-.27-.12l-9-9.43a.41.41,0,0,1,0-.58.38.38,0,0,1,.55,0l9,9.43a.43.43,0,0,1,0,.58A.39.39,0,0,1,813.81,145.35Z"/><path fill="#fdfefd" d="M804.84,145.35a.36.36,0,0,1-.27-.12.41.41,0,0,1,0-.58l9-9.43a.38.38,0,0,1,.55,0,.43.43,0,0,1,0,.58l-9,9.43A.39.39,0,0,1,804.84,145.35Z"/></g><rect width="17.02" height="99.68" x="632.2" y="170.24" fill="#fd823f"/><rect width="17.02" height="76.04" x="665.25" y="193.89" fill="#fff"/><rect width="17.02" height="86.52" x="695.63" y="183.41" fill="#fd823f"/><rect width="17.02" height="68.52" x="725.34" y="201.41" fill="#fff"/><rect width="17.02" height="68.52" x="604.83" y="201.41" fill="#fff"/><rect width="17.02" height="82.76" x="753.38" y="187.17" fill="#fff"/><path fill="#14296c" d="M592.36,231.32l-2-1.8a174.94,174.94,0,0,0,22.7-31.36c1.25-2.21,2.37-4.31,3.35-6.17,4.36-8.23,7.25-13.66,15-15.8a14.66,14.66,0,0,1,13.48,3.36A80.92,80.92,0,0,1,655,191.29c1.64,2.18,3.49,4.64,5.75,7.43l.86,1.1c2.66,3.4,6,7.64,13.35,8.75s12.77-2.51,16.28-5.33c2.21-1.76,3.88-3.27,5.5-4.74a77,77,0,0,1,8.41-6.85c2.35-1.65,8.73-3.7,16,.31,2.18,1.2,7.09,5.5,11.23,10.36,4.48,5.26,9,8.26,13.07,8.67,9.85,1,15.08.39,35.71-25.19l2.07,1.67c-20.47,25.38-26.69,27.33-38.06,26.17-4.82-.5-9.81-3.73-14.82-9.6-4.11-4.82-8.81-8.83-10.49-9.75-6.34-3.51-11.67-1.52-13.19-.46a76.49,76.49,0,0,0-8.15,6.64c-1.65,1.5-3.35,3-5.61,4.85-3.91,3.12-10.05,7.13-18.35,5.88s-12.25-6.17-15-9.75c-.28-.37-.56-.72-.83-1-2.29-2.83-4.16-5.32-5.8-7.51a79.78,79.78,0,0,0-9.74-11.4,12.17,12.17,0,0,0-11-2.74c-6.62,1.84-9.15,6.6-13.33,14.49-1,1.87-2.11,4-3.39,6.24A177.9,177.9,0,0,1,592.36,231.32Z"/><path fill="#f8bbc2" d="M755.55,292.15l-.59,5.09c-1.38,14.22,8.29,27.69,14.31,37.67,4.09,6.76,8.36,17.52,16,19.45,4.06,1,8.35-.55,12.27-2,6.71-2.5,20.79-8.09,28.15-13.6,10.89-8.16,15-20.73,15.09-23.55a9.4,9.4,0,0,1,.92-4.19s49.52-36.67,2.25-89.85a62.59,62.59,0,0,0-9.7-5.76c-22.5-10.89-42.82-3.83-57.39,7.4h0c-13,10.05-21.48,23.42-22.73,30.22-1.66,9-.36,19.09.85,25.4A45.76,45.76,0,0,1,755.55,292.15Z"/><path fill="#f1526e" d="M845.2,294.35l1.94-23.23s-41-20.25-41.35-45.51c-.08-6.55-52.17,17.37-50.11,10.92,2.89-9,12.14-18.64,15.93-21.37,35-25.27,77.07-3.74,87.52,13.84,19.07,32,13.28,55.94,3.69,71.3C857.52,308.78,844.37,304.31,845.2,294.35Z"/><path fill="#f8bbc2" d="M856.19,290.67c10.37,9.84-6.82,30.63-14.13,30.7-8.25.07-7.78-8.4-6.61-14C837.66,296.81,849,283.86,856.19,290.67Z"/><path fill="#e88d92" d="M841.72,305.55s2.48-4.48,4.92-5.73c4-2,7.91.66,9.19,2.15,0,0-5.56-2-8.38.49,1.09,1,2.83,2.47,3.18,4.89a20.17,20.17,0,0,1-.49,6.94s-.77-14.85-9.37-7.19C840.76,307.11,841.74,305.53,841.72,305.55Z"/><path fill="#f1526e" d="M787.88,234.53s-12,12.45-22.06,19.89S751,280.6,751,280.6s-4.58-20.3,1.73-36.7c6.75-17.56,17.06-27.49,30.53-21.76C790.5,225.23,787.88,234.53,787.88,234.53Z"/><path fill="#f1526e" d="M859.38,331.39c.71-9.38-4.23-10.23-10.29-11.65-3.46-.83-7.27-1.84-10.62-4.73-9.2-7.95.16-22.15-8-35.41s-22.69-19.69-37-28.18c-28.23-16.73-10.29-33.41-9.75-33.65,19.85-8,56.71-14.8,75.78,46.2,5.81,18.59-3.55,25.85-3.82,40.59-.07,3.24,5.16,8,7.47,11.66C867.72,323.38,864.3,326.83,859.38,331.39Z"/><path fill="#ff6378" d="M829.39,270.27s-5-6.8-25.56-19.55c-15.81-9.82-25.07-20.51-18.77-27.13,14.62-15.39,46.83-7.53,55.64,12.12s1.38,42.64,1.38,42.64-6.83-29.74-24.89-38.06C817.19,240.29,831.55,251.42,829.39,270.27Z"/><path fill="#050a32" d="M803.13,286.55c.06,3.11-1.24,5.66-2.91,5.71s-3.09-2.43-3.15-5.53,1.24-5.65,2.91-5.7S803.06,283.45,803.13,286.55Z"/><path fill="#050a32" d="M771.18,288.06c0,3.1-1.31,5.63-3,5.66s-3.05-2.46-3.08-5.57,1.31-5.64,3-5.66S771.15,285,771.18,288.06Z"/><path fill="#f1526e" d="M758.46,276.37a1.64,1.64,0,0,0,1.38-.19,15.08,15.08,0,0,1,13-1.63,2,2,0,0,0,2.39-1.39,2,2,0,0,0-1-2.62,18.35,18.35,0,0,0-15.83,2,2.44,2.44,0,0,0-1,2.85A1.61,1.61,0,0,0,758.46,276.37Z"/><path fill="#f1526e" d="M795.56,273.07a1.73,1.73,0,0,0,1.42.23,15.91,15.91,0,0,1,13.33,2.4,2,2,0,0,0,2.73-.63,2.07,2.07,0,0,0-.29-2.85,19.42,19.42,0,0,0-16.27-2.92,2.33,2.33,0,0,0-1.67,2.49A1.8,1.8,0,0,0,795.56,273.07Z"/><path fill="#e88d92" d="M782.54,313.83a2.06,2.06,0,0,0,.89-2.56,1.82,1.82,0,0,0-2.32-1.28,2.83,2.83,0,0,1-3.1-.94,1.46,1.46,0,0,1-.34-.6,3.41,3.41,0,0,1,.09-1,38.4,38.4,0,0,1,1.26-4.56,38.74,38.74,0,0,0,1.56-6.09,2.22,2.22,0,0,0-1.47-2.45,1.69,1.69,0,0,0-2,1.54,34.38,34.38,0,0,1-1.39,5.38,41.85,41.85,0,0,0-1.39,5,7,7,0,0,0-.07,2.79,6,6,0,0,0,1.29,2.64,6.22,6.22,0,0,0,7,2.09Z"/><path fill="#fff" d="M794.46,320c-.15-.28-1.9,3.21-8.76,4a18.77,18.77,0,0,1-8.42-.8c-.37.88,1.6,4.3,4.77,5.66,2,.86,6.3,1.56,9.22-.52S795.22,321.28,794.46,320Z"/><path fill="#14296c" d="M306.34,347.56l-42.11,23.87a10.82,10.82,0,0,0-5.48,9.41v47.41a10.82,10.82,0,0,0,5.48,9.4l42.11,23.88a10.85,10.85,0,0,0,10.67,0l42.11-23.88a10.82,10.82,0,0,0,5.48-9.4V380.84a10.82,10.82,0,0,0-5.48-9.41L317,347.56A10.8,10.8,0,0,0,306.34,347.56Z"/><path fill="#ff6378" d="M301.92,345l-42.11,23.87a10.82,10.82,0,0,0-5.48,9.41v47.41a10.82,10.82,0,0,0,5.48,9.4L301.92,459a10.85,10.85,0,0,0,10.67,0l42.11-23.88a10.8,10.8,0,0,0,5.48-9.4V378.3a10.82,10.82,0,0,0-5.48-9.41L312.59,345A10.8,10.8,0,0,0,301.92,345Z"/><path fill="#fff" d="M301.92,351.84,265.83,372.3a10.84,10.84,0,0,0-5.48,9.41v40.58a10.82,10.82,0,0,0,5.48,9.41l36.09,20.46a10.8,10.8,0,0,0,10.67,0l36.09-20.46a10.8,10.8,0,0,0,5.48-9.41V381.71a10.82,10.82,0,0,0-5.48-9.41l-36.09-20.46A10.85,10.85,0,0,0,301.92,351.84Z"/><path fill="#ac7adb" d="M273.84,417.16v-28.8h7.72l6.09,10.56a82.63,82.63,0,0,1,4.8,9.88h.11a111.39,111.39,0,0,1-.54-12v-8.4h6.09v28.8h-6.94l-6.29-11.09a104,104,0,0,1-5.1-10.18l-.14,0c.2,3.81.29,7.89.29,12.59v8.66Z"/><path fill="#ac7adb" d="M303.88,388.36h17.91v5.33H310.51v6.61h10.56v5.28H310.51v11.58h-6.63Z"/><path fill="#ac7adb" d="M332.49,393.82h-7.92v-5.46h22.58v5.46h-8v23.34h-6.63Z"/></svg>